<svg width="64" height="64" viewBox="0 0 64 64" fill="none" xmlns="http://www.w3.org/2000/svg">
<path d="M20 12H41.1882C47.1594 12 52 16.8406 52 22.8118V22.8118C52 29.6345 45.7581 34.7516 39.0679 33.4136L24.9321 30.5864C18.2419 29.2484 12 34.3655 12 41.1882V41.1882C12 47.1594 16.8406 52 22.8118 52H44" stroke="#EAB300" stroke-width="12"/>
<path d="M10.1543 5.88379V5.71387L12.6172 20H10.1543V18.1162L5.81934 19.4502L5.23047 17.5391L4.64258 15.627L9.93164 14H4V10H9.92969L4.64258 8.37305L5.23047 6.46191L5.81934 4.55078L10.1543 5.88379ZM16.3096 20H13.6318L10.874 4H13.5508L16.3096 20ZM20 19.9863V20H17.3242L14.5654 4H17.2432L20 19.9863ZM20 14.1016L18.2578 4H20V14.1016Z" fill="#EAB300"/>
<path d="M53.8457 58.1162L53.8457 58.2861L51.3828 44L53.8457 44L53.8457 45.8838L58.1807 44.5498L58.7695 46.4609L59.3574 48.373L54.0684 50L60 50L60 54L54.0703 54L59.3574 55.627L58.7695 57.5381L58.1807 59.4492L53.8457 58.1162ZM47.6904 44L50.3682 44L53.126 60L50.4492 60L47.6904 44ZM44 44.0137L44 44L46.6758 44L49.4346 60L46.7568 60L44 44.0137ZM44 49.8984L45.7422 60L44 60L44 49.8984Z" fill="#EAB300"/>
</svg>
