<svg width="64" height="64" viewBox="0 0 64 64" fill="none" xmlns="http://www.w3.org/2000/svg">
<path d="M60.9215 48.4501L4.39383 43.5771C4.00362 43.5434 3.72894 43.9523 3.90834 44.3005C7.45553 51.1848 10.2347 54.6769 16.8758 58.9208C16.9559 58.972 17.0505 59 17.1455 59H54.3319C54.441 59 54.5489 58.9631 54.6355 58.8968C59.0827 55.4976 60.3273 53.1663 61.3613 49.0651C61.436 48.7687 61.2261 48.4764 60.9215 48.4501Z" fill="white"/>
<path d="M41.5 43.4559V23.3973C41.5 22.8553 42.2564 22.6963 42.4853 23.1876C45.9828 30.6954 49.5728 35.6348 56.1502 43.4886C56.4457 43.8414 56.1489 44.3767 55.693 44.3141C50.855 43.6506 47.5952 43.51 42.0429 43.9552C41.7511 43.9786 41.5 43.7487 41.5 43.4559Z" fill="white"/>
<path d="M10.2588 39.7143C15.155 25.0371 20.8206 18.7924 35.3389 12.4959C35.754 12.3158 36.1759 12.7393 35.9994 13.1559C31.503 23.7645 31.4691 30.5347 36.0693 42.4071C36.2285 42.8179 35.8185 43.2262 35.4083 43.0657C26.3215 39.5103 20.6325 38.8426 10.813 40.3701C10.4429 40.4277 10.1403 40.0696 10.2588 39.7143Z" fill="white"/>
<path d="M46.5787 9.5196C43.0121 7.46546 41.0877 9.49898 38.4767 7.08134C38.1274 6.75788 37.5 6.98119 37.5 7.45727V12.1181C37.5 12.3436 37.6539 12.5432 37.8733 12.5953C42.2661 13.6375 43.3341 11.024 46.2785 10.534C46.7727 10.4518 47.0128 9.76959 46.5787 9.5196Z" fill="white"/>
<path d="M60.9215 48.4501L4.39383 43.5771C4.00362 43.5434 3.72894 43.9523 3.90834 44.3005C7.45553 51.1848 10.2347 54.6769 16.8758 58.9208C16.9559 58.972 17.0505 59 17.1455 59H54.3319C54.441 59 54.5489 58.9631 54.6355 58.8968C59.0827 55.4976 60.3273 53.1663 61.3613 49.0651C61.436 48.7687 61.2261 48.4764 60.9215 48.4501Z" stroke="white"/>
<path d="M41.5 43.4559V23.3973C41.5 22.8553 42.2564 22.6963 42.4853 23.1876C45.9828 30.6954 49.5728 35.6348 56.1502 43.4886C56.4457 43.8414 56.1489 44.3767 55.693 44.3141C50.855 43.6506 47.5952 43.51 42.0429 43.9552C41.7511 43.9786 41.5 43.7487 41.5 43.4559Z" stroke="white"/>
<path d="M10.2588 39.7143C15.155 25.0371 20.8206 18.7924 35.3389 12.4959C35.754 12.3158 36.1759 12.7393 35.9994 13.1559C31.503 23.7645 31.4691 30.5347 36.0693 42.4071C36.2285 42.8179 35.8185 43.2262 35.4083 43.0657C26.3215 39.5103 20.6325 38.8426 10.813 40.3701C10.4429 40.4277 10.1403 40.0696 10.2588 39.7143Z" stroke="white"/>
<path d="M46.5787 9.5196C43.0121 7.46546 41.0877 9.49898 38.4767 7.08134C38.1274 6.75788 37.5 6.98119 37.5 7.45727V12.1181C37.5 12.3436 37.6539 12.5432 37.8733 12.5953C42.2661 13.6375 43.3341 11.024 46.2785 10.534C46.7727 10.4518 47.0128 9.76959 46.5787 9.5196Z" stroke="white"/>
<rect x="36" y="5" width="2" height="42" rx="1" fill="white"/>
</svg>
