<svg width="64" height="64" viewBox="0 0 64 64" fill="none" xmlns="http://www.w3.org/2000/svg">
<path d="M21.0169 22.0003C21.0169 23.0612 21.4388 24.0792 22.1898 24.8294C22.9407 25.5796 23.9598 26.0003 25.0218 26.0003H29.0257V29.9603C28.5933 29.9741 28.1656 30.0579 27.7601 30.2083L19.5481 32.9446L16.8089 24.7405C16.4739 23.7339 15.7524 22.9013 14.803 22.4261C13.8535 21.9509 12.7532 21.8716 11.7454 22.2064C10.7378 22.541 9.90476 23.262 9.42901 24.2103C8.95329 25.1589 8.87422 26.2582 9.20928 27.265L13.2132 39.265C13.3792 39.7635 13.6422 40.2243 13.9866 40.6214C14.3311 41.0185 14.7506 41.3443 15.221 41.5794C15.6913 41.8145 16.2033 41.9551 16.7278 41.9925C17.2525 42.0298 17.7796 41.9633 18.2786 41.7972L25.0218 39.5569V41.9974C25.0219 42.1613 25.0975 42.3013 25.1175 42.4612L6.78252 54.6693C5.89895 55.258 5.28546 56.1737 5.07745 57.2142C4.86947 58.2546 5.08377 59.3354 5.67315 60.2181C6.26251 61.1005 7.17869 61.7134 8.22002 61.9212C9.26157 62.129 10.3433 61.9143 11.2269 61.3255L31.472 47.845L37.4583 59.7894C37.8889 60.6504 38.6162 61.3277 39.5062 61.6966C40.3961 62.0654 41.3897 62.1018 42.304 61.7982L54.3167 57.7972C54.8262 57.64 55.2997 57.3835 55.7083 57.0413C56.117 56.6991 56.4527 56.2778 56.6966 55.804C56.9403 55.3303 57.0874 54.8126 57.1282 54.2816C57.169 53.7504 57.1024 53.2166 56.9339 52.7112C56.7653 52.2058 56.4974 51.7388 56.1458 51.3382C55.7943 50.9377 55.3665 50.6112 54.887 50.3782C54.4075 50.1452 53.8862 50.0098 53.3538 49.9808C52.8213 49.9518 52.2876 50.0297 51.7855 50.2093L43.0648 53.1097L39.1605 45.305C39.7285 44.9578 40.1991 44.4725 40.5276 43.8939C40.8561 43.3153 41.0317 42.6625 41.0384 41.9974V38.0013H46.5765L49.4671 43.7933C49.7024 44.2634 50.0286 44.6823 50.4261 45.0267C50.8236 45.3711 51.2853 45.6339 51.7845 45.8001C52.2836 45.9663 52.8105 46.0327 53.3353 45.9954C53.8601 45.9582 54.3725 45.8184 54.8431 45.5833C55.3137 45.3482 55.7337 45.0224 56.0784 44.6253C56.423 44.2283 56.6855 43.7673 56.8519 43.2689C57.0183 42.7702 57.0854 42.2434 57.0481 41.7191C57.0108 41.1949 56.8703 40.6832 56.6351 40.2132L52.6312 32.2132C52.2985 31.5483 51.7866 30.9887 51.1536 30.598C50.5207 30.2073 49.7912 30 49.0472 30.0003H37.0345V26.0003H41.0384C42.1002 26.0003 43.1185 25.5793 43.8694 24.8294C44.6204 24.0792 45.0423 23.0612 45.0423 22.0003V16.0267H29.0257V22.0003H25.0218V16.0267H21.0169V22.0003Z" fill="white"/>
<path d="M19.9928 15.4721L16 4.49189C18.2233 5.1458 20.3718 5.29592 22.5122 5.23336C23.739 3.62318 27.1464 0 32.9694 0C38.7923 0 42.1998 3.62318 43.4266 5.23336C45.567 5.29592 47.7155 5.1458 49.9387 4.49189L45.946 15.4721H19.9928Z" fill="white"/>
</svg>
