<svg width="64" height="64" viewBox="0 0 64 64" fill="none" xmlns="http://www.w3.org/2000/svg">
<path d="M13 32.0001L13.3904 32.3125L13.3904 32.3125L13 32.0001ZM39.5 16.0001L39.647 16.478L41.4319 15.9288L39.6114 15.5127L39.5 16.0001ZM38.5 37.0001L38.2428 37.4289H38.2428L38.5 37.0001ZM62 31.0001H62.5V29.1387L61.5673 30.7496L62 31.0001ZM62 61.0001V61.5001H62.5V61.0001H62ZM2.5 61.0001H2V61.5001H2.5V61.0001ZM2.5 31.0001L2.79409 30.5958L2 30.0182V31.0001H2.5ZM13 32.0001L13.3904 32.3125C13.6682 31.9653 14.0166 31.3814 14.4263 30.684C14.8449 29.9712 15.3463 29.1058 15.947 28.1487C17.1478 26.2351 18.7344 23.9729 20.7911 21.9162C24.8913 17.8159 30.8488 14.5356 39.3886 16.4876L39.5 16.0001L39.6114 15.5127C30.6512 13.4646 24.3587 16.9344 20.0839 21.2091C17.9531 23.3399 16.3209 25.6714 15.0999 27.6172C14.4896 28.5897 13.9793 29.4704 13.564 30.1776C13.1396 30.9001 12.8318 31.4099 12.6096 31.6878L13 32.0001ZM39.5 16.0001L39.353 15.5222C37.5885 16.0652 36.0663 17.381 34.9208 19.087C33.7733 20.7961 32.9822 22.9267 32.6917 25.1607C32.1107 29.6281 33.5294 34.6009 38.2428 37.4289L38.5 37.0001L38.7572 36.5714C34.4706 33.9994 33.1394 29.4721 33.6833 25.2896C33.9553 23.1986 34.6955 21.2167 35.7511 19.6445C36.8087 18.0692 38.1616 16.9351 39.647 16.478L39.5 16.0001ZM38.5 37.0001L38.2428 37.4289C42.9369 40.2453 48.5377 39.4814 53.1205 37.6779C55.4211 36.7725 57.4935 35.595 59.1108 34.4398C60.7109 33.2969 61.919 32.1379 62.4327 31.2507L62 31.0001L61.5673 30.7496C61.1642 31.4457 60.1015 32.5033 58.5296 33.6261C56.9751 34.7365 54.9745 35.8736 52.7543 36.7473C48.2955 38.5021 43.063 39.1548 38.7572 36.5714L38.5 37.0001ZM62 31.0001H61.5V61.0001H62H62.5V31.0001H62ZM62 61.0001V60.5001H2.5V61.0001V61.5001H62V61.0001ZM2.5 61.0001H3V31.0001H2.5H2V61.0001H2.5ZM2.5 31.0001L2.20591 31.4045C4.04445 32.7416 6.01692 33.9588 7.93333 34.3534C8.90225 34.5528 9.87329 34.5458 10.8094 34.226C11.7473 33.9056 12.6134 33.2837 13.3904 32.3125L13 32.0001L12.6096 31.6878C11.9321 32.5346 11.2168 33.0301 10.4861 33.2797C9.75375 33.5299 8.96909 33.5456 8.13496 33.3739C6.44525 33.0261 4.62218 31.9253 2.79409 30.5958L2.5 31.0001Z" fill="#EAB300"/>
<path d="M34.291 17.4113C34.075 17.6828 33.8692 17.963 33.6758 18.2511C32.3905 20.1654 31.5225 22.5186 31.2041 24.9669C30.5675 29.8618 32.1176 35.5029 37.4707 38.715C42.7473 41.8809 48.901 40.9502 53.6699 39.0734C56.0911 38.1205 58.2709 36.8827 59.9824 35.6603C59.9884 35.656 59.994 35.6509 60 35.6466V59.0001H4.5V34.6427C5.51049 35.1746 6.5637 35.6027 7.63086 35.8224C8.80181 36.0634 10.0523 36.0697 11.2939 35.6456C12.5426 35.219 13.6353 34.4069 14.5615 33.2491C14.9224 32.798 15.3322 32.1033 15.7197 31.4435C16.1433 30.7223 16.6317 29.8793 17.2178 28.9454C18.3883 27.0801 19.9062 24.922 21.8516 22.9767C24.866 19.9622 28.8774 17.4682 34.291 17.4113Z" stroke="#EAB300" stroke-width="4"/>
<path d="M4 48H60" stroke="#EAB300" stroke-width="4"/>
<path d="M15 32L32 32" stroke="#EAB300" stroke-width="4"/>
<path d="M25 20V59" stroke="#EAB300" stroke-width="4"/>
<path d="M44 41V59" stroke="#EAB300" stroke-width="4"/>
</svg>
