<svg width="64" height="64" viewBox="0 0 64 64" fill="none" xmlns="http://www.w3.org/2000/svg">
<circle cx="53" cy="11" r="10" fill="#D9D9D9"/>
<path d="M57.1096 12.654C57.3858 12.654 57.5812 12.7046 57.6958 12.8056C57.8103 12.9067 57.8676 13.0752 57.8676 13.311V16.3127C57.8676 16.562 57.8171 16.7406 57.716 16.8484C57.6217 16.9495 57.4599 17 57.2309 17H48.1953C47.9662 17 47.8011 16.9495 47.7 16.8484C47.6057 16.7406 47.5586 16.562 47.5586 16.3127C47.5586 16.0634 47.6057 15.8882 47.7 15.7872C47.8011 15.6794 47.9662 15.6255 48.1953 15.6255H49.2262V6.37765H48.1953C47.9662 6.37765 47.8011 6.32712 47.7 6.22605C47.6057 6.11824 47.5586 5.93968 47.5586 5.69038C47.5586 5.44108 47.6057 5.26589 47.7 5.16482C47.8011 5.05702 47.9662 5.00311 48.1953 5.00311H57.0287C57.2578 5.00311 57.4195 5.05702 57.5138 5.16482C57.6149 5.26589 57.6654 5.44108 57.6654 5.69038V8.25753C57.6654 8.49336 57.6082 8.66181 57.4936 8.76288C57.3791 8.86395 57.1837 8.91448 56.9074 8.91448C56.6312 8.91448 56.4358 8.86395 56.3212 8.76288C56.2067 8.66181 56.1494 8.49336 56.1494 8.25753V6.37765H50.7422V10.1273H53.3498V9.20758C53.3498 8.97175 53.4003 8.80331 53.5014 8.70224C53.6092 8.60117 53.7979 8.55063 54.0674 8.55063C54.3369 8.55063 54.5222 8.60117 54.6233 8.70224C54.7311 8.80331 54.785 8.97175 54.785 9.20758V12.4216C54.785 12.6574 54.7311 12.8259 54.6233 12.9269C54.5222 13.028 54.3369 13.0785 54.0674 13.0785C53.7979 13.0785 53.6092 13.028 53.5014 12.9269C53.4003 12.8259 53.3498 12.6574 53.3498 12.4216V11.5018H50.7422V15.6255H56.3516V13.311C56.3516 13.0752 56.4088 12.9067 56.5234 12.8056C56.6379 12.7046 56.8333 12.654 57.1096 12.654Z" fill="black"/>
</svg>
