<svg width="64" height="64" viewBox="0 0 64 64" fill="none" xmlns="http://www.w3.org/2000/svg">
<path d="M16 27V36C16 44.8366 23.1634 52 32 52V52C40.8366 52 48 44.8366 48 36V27" stroke="#EAB300" stroke-width="18"/>
<path d="M25.2432 12.0088L4 15.6719L4 12.2305L6.82617 12.2305L4.8252 5.72851L7.69238 4.8457L10.5596 3.96387L13 11.8955L13 3L19 3L19 11.8955L21.4404 3.96387L24.3076 4.8457L27.1748 5.72852L25.2432 12.0088ZM4 21.21L4 17.7012L28 13.5635L28 17.0723L4 21.21ZM4 26.749L4 23.2402L28 19.1016L28 22.6113L4 26.749ZM14.3145 27L28 24.6406L28 27L14.3145 27Z" fill="#EAB300"/>
<path d="M57.2432 12.0088L36 15.6719L36 12.2305L38.8262 12.2305L36.8252 5.72852L39.6924 4.8457L42.5596 3.96387L45 11.8955L45 3L51 3L51 11.8955L53.4404 3.96387L56.3076 4.8457L59.1748 5.72852L57.2432 12.0088ZM36 21.21L36 17.7012L60 13.5635L60 17.0723L36 21.21ZM36 26.749L36 23.2402L60 19.1016L60 22.6113L36 26.749ZM46.3145 27L60 24.6406L60 27L46.3145 27Z" fill="#EAB300"/>
</svg>
