<svg width="64" height="64" viewBox="0 0 64 64" fill="none" xmlns="http://www.w3.org/2000/svg">
<path d="M5 57L59 57" stroke="#EAB300" stroke-width="10" stroke-linecap="round"/>
<path d="M8.07141 3.20911C10.7172 2.42015 13.5006 3.9249 14.2902 6.57043C14.2905 6.57143 14.2917 6.57283 14.2921 6.57434C14.2945 6.58213 14.2995 6.59683 14.3058 6.61731C14.3186 6.65895 14.3397 6.72666 14.3683 6.8175C14.4258 7.00009 14.5146 7.2783 14.6349 7.63782C14.8762 8.35899 15.2411 9.40506 15.7238 10.6652C16.6947 13.2 18.1169 16.5357 19.9386 19.8322C21.7817 23.1672 23.9102 26.2331 26.2179 28.4073C28.5267 30.5826 30.6103 31.5001 32.5001 31.5001C33.1181 31.5001 33.75 31.3993 34.3995 31.1906C38.131 31.9478 41.0666 34.8919 41.8136 38.6271C39.1622 40.3382 36.0516 41.5001 32.5001 41.5001C27.1402 41.5001 22.7234 38.855 19.3605 35.6866C15.9965 32.5173 13.2809 28.4577 11.1866 24.6681C9.07108 20.8399 7.46176 17.0501 6.38586 14.2413C5.84533 12.8301 5.43263 11.649 5.15247 10.8116C5.01228 10.3927 4.90421 10.0582 4.8302 9.82336C4.79322 9.70606 4.76456 9.61324 4.74426 9.547C4.73417 9.51407 4.72579 9.48755 4.71985 9.4679C4.71695 9.4583 4.71491 9.44982 4.71301 9.44348L4.70911 9.43176C4.70871 9.43045 4.70868 9.42915 9.50012 8.00012L4.70911 9.42883C3.91999 6.78265 5.42523 3.99832 8.07141 3.20911ZM42.3585 23.673C45.337 25.4218 47.8086 27.9392 49.504 30.9523C48.3155 32.6169 46.9989 34.2105 45.5441 35.6281C45.4348 35.7345 45.3217 35.8374 45.2101 35.9425C44.0393 32.6779 41.6474 29.9957 38.5841 28.4464C39.9221 27.1389 41.1861 25.5021 42.3585 23.673ZM49.6652 6.72668C50.3683 4.05679 53.1024 2.46249 55.7726 3.16516C58.4429 3.86803 60.0378 6.60216 59.3351 9.27258L54.5001 8.00012C59.3353 9.27255 59.3354 9.27417 59.3351 9.27551C59.3349 9.27621 59.3344 9.27744 59.3341 9.27844C59.3335 9.28081 59.333 9.28403 59.3322 9.28723C59.3304 9.29367 59.3279 9.30189 59.3253 9.31165C59.32 9.33149 59.3128 9.35853 59.3038 9.39172C59.2858 9.4583 59.2596 9.55148 59.2267 9.66907C59.1607 9.90462 59.0653 10.2395 58.9396 10.6593C58.6882 11.4985 58.3164 12.6826 57.8243 14.0968C56.8455 16.91 55.3653 20.7082 53.3781 24.548C52.9198 25.4335 52.4263 26.3337 51.8995 27.2355C49.9392 24.374 47.3626 21.9687 44.3605 20.2101C44.4056 20.124 44.4524 20.0387 44.4972 19.9523C46.1973 16.6673 47.4985 13.3402 48.379 10.8097C48.8165 9.55228 49.1441 8.50951 49.3595 7.79016C49.467 7.43106 49.5468 7.15371 49.5978 6.9718C49.6232 6.8811 49.6413 6.81385 49.6525 6.77258C49.658 6.75204 49.6622 6.73718 49.6642 6.72961L49.6652 6.72571V6.72668Z" fill="#EAB300"/>
<path d="M32.5 19C44.3741 19 54 28.6259 54 40.5C54 52.3741 44.3741 62 32.5 62C20.6259 62 11 52.3741 11 40.5C11 37.2368 11.7275 34.1436 13.0283 31.373C14.4883 33.4171 16.1383 35.3996 17.9883 37.1426C18.9157 38.0163 19.9324 38.864 21.0342 39.6416C21.0133 39.9251 21 40.2112 21 40.5C21 46.8513 26.1487 52 32.5 52C38.8513 52 44 46.8513 44 40.5C44 34.1487 38.8513 29 32.5 29C31.9084 29 31.3273 29.0447 30.7598 29.1309C29.8555 28.766 28.8018 28.0939 27.5889 26.9512C26.0084 25.462 24.4763 23.4659 23.0498 21.1836C25.9021 19.7855 29.1092 19 32.5 19ZM19.6367 23.2695C21.1942 25.7661 22.9422 28.0687 24.8457 29.8623V29.8633C25.2617 30.2552 25.6802 30.6148 26.0977 30.9453C24.4153 32.0749 23.0479 33.6372 22.1543 35.4727C21.6641 35.0753 21.1884 34.661 20.7314 34.2305C18.6847 32.3021 16.8724 29.9976 15.293 27.6064C16.5268 25.9625 17.9905 24.5005 19.6367 23.2695Z" fill="#EAB300"/>
</svg>
