<svg width="64" height="64" viewBox="0 0 64 64" fill="none" xmlns="http://www.w3.org/2000/svg">
<path d="M51.5 10.5H12.5C9.18629 10.5 6.5 13.1863 6.5 16.5V47.5C6.5 50.8137 9.18629 53.5 12.5 53.5H51.5C54.8137 53.5 57.5 50.8137 57.5 47.5V16.5C57.5 13.1863 54.8137 10.5 51.5 10.5Z" stroke="#E0E0E0" stroke-width="4"/>
<path d="M14 48V29.5756C16.2185 31.2133 18.5929 32.4229 20.3529 30.1897C21.563 28.6544 25.7983 17.9068 36.3866 20.3634C32.4538 21.5917 30.3361 29.9441 35.7815 33.2605C41.2269 36.5769 48.8908 31.5204 50 29.5756V48H14Z" fill="white"/>
</svg>
