<svg width="64" height="64" viewBox="0 0 64 64" fill="none" xmlns="http://www.w3.org/2000/svg">
<path d="M7 36V27H25V36C25 39.866 28.134 43 32 43C35.866 43 39 39.866 39 36V27H57V36C57 49.8071 45.8071 61 32 61C18.1929 61 7 49.8071 7 36Z" fill="url(#paint0_radial_1973_232)"/>
<path d="M36 16.4375V12.2305H38.8262L36.8252 5.72852L42.5596 3.96387L45 11.8955V3H51V11.8955L53.4404 3.96387L59.1748 5.72852L57.1748 12.2305H60V13.2373L36 16.4375Z" fill="url(#paint1_radial_1973_232)"/>
<path d="M36 21.4375V18.4551L60 15.2549V18.2373L36 21.4375Z" fill="url(#paint2_radial_1973_232)"/>
<path d="M36 26.3994V23.4551L60 20.2549V23.1992L36 26.3994Z" fill="url(#paint3_radial_1973_232)"/>
<path d="M46.627 27L60 25.2168V27H46.627Z" fill="url(#paint4_radial_1973_232)"/>
<path d="M4 16.4375L4 12.2305H6.82617L4.8252 5.72852L10.5596 3.96387L13 11.8955V3H19V11.8955L21.4404 3.96387L27.1748 5.72852L25.1748 12.2305H28V13.2373L4 16.4375Z" fill="url(#paint5_radial_1973_232)"/>
<path d="M4 21.4375L4 18.4551L28 15.2549V18.2373L4 21.4375Z" fill="url(#paint6_radial_1973_232)"/>
<path d="M4 26.3994L4 23.4551L28 20.2549V23.1992L4 26.3994Z" fill="url(#paint7_radial_1973_232)"/>
<path d="M14.627 27L28 25.2168V27H14.627Z" fill="url(#paint8_radial_1973_232)"/>
<defs>
<radialGradient id="paint0_radial_1973_232" cx="0" cy="0" r="1" gradientUnits="userSpaceOnUse" gradientTransform="translate(16.5 38.5) rotate(-0.674035) scale(42.5029 62.5043)">
<stop stop-color="#EE0000"/>
<stop offset="0.144231" stop-color="#DC9511"/>
<stop offset="0.346154" stop-color="#59C328"/>
<stop offset="0.5625" stop-color="#41A99D"/>
<stop offset="0.754808" stop-color="#1B3EEE"/>
<stop offset="1" stop-color="#737373"/>
</radialGradient>
<radialGradient id="paint1_radial_1973_232" cx="0" cy="0" r="1" gradientTransform="matrix(47.6 -0.35294 0.823528 44.1176 14.64 11.1176)" gradientUnits="userSpaceOnUse">
<stop stop-color="#EE0000"/>
<stop offset="0.144231" stop-color="#DC9511"/>
<stop offset="0.346154" stop-color="#59C328"/>
<stop offset="0.5625" stop-color="#41A99D"/>
<stop offset="0.754808" stop-color="#1B3EEE"/>
<stop offset="1" stop-color="#737373"/>
</radialGradient>
<radialGradient id="paint2_radial_1973_232" cx="0" cy="0" r="1" gradientTransform="matrix(47.6 -0.35294 0.823528 44.1176 14.64 11.1176)" gradientUnits="userSpaceOnUse">
<stop stop-color="#EE0000"/>
<stop offset="0.144231" stop-color="#DC9511"/>
<stop offset="0.346154" stop-color="#59C328"/>
<stop offset="0.5625" stop-color="#41A99D"/>
<stop offset="0.754808" stop-color="#1B3EEE"/>
<stop offset="1" stop-color="#737373"/>
</radialGradient>
<radialGradient id="paint3_radial_1973_232" cx="0" cy="0" r="1" gradientTransform="matrix(47.6 -0.35294 0.823528 44.1176 14.64 11.1176)" gradientUnits="userSpaceOnUse">
<stop stop-color="#EE0000"/>
<stop offset="0.144231" stop-color="#DC9511"/>
<stop offset="0.346154" stop-color="#59C328"/>
<stop offset="0.5625" stop-color="#41A99D"/>
<stop offset="0.754808" stop-color="#1B3EEE"/>
<stop offset="1" stop-color="#737373"/>
</radialGradient>
<radialGradient id="paint4_radial_1973_232" cx="0" cy="0" r="1" gradientTransform="matrix(47.6 -0.35294 0.823528 44.1176 14.64 11.1176)" gradientUnits="userSpaceOnUse">
<stop stop-color="#EE0000"/>
<stop offset="0.144231" stop-color="#DC9511"/>
<stop offset="0.346154" stop-color="#59C328"/>
<stop offset="0.5625" stop-color="#41A99D"/>
<stop offset="0.754808" stop-color="#1B3EEE"/>
<stop offset="1" stop-color="#737373"/>
</radialGradient>
<radialGradient id="paint5_radial_1973_232" cx="0" cy="0" r="1" gradientTransform="matrix(47.6 -0.35294 0.823528 44.1176 14.64 11.1176)" gradientUnits="userSpaceOnUse">
<stop stop-color="#EE0000"/>
<stop offset="0.144231" stop-color="#DC9511"/>
<stop offset="0.346154" stop-color="#59C328"/>
<stop offset="0.5625" stop-color="#41A99D"/>
<stop offset="0.754808" stop-color="#1B3EEE"/>
<stop offset="1" stop-color="#737373"/>
</radialGradient>
<radialGradient id="paint6_radial_1973_232" cx="0" cy="0" r="1" gradientTransform="matrix(47.6 -0.35294 0.823528 44.1176 14.64 11.1176)" gradientUnits="userSpaceOnUse">
<stop stop-color="#EE0000"/>
<stop offset="0.144231" stop-color="#DC9511"/>
<stop offset="0.346154" stop-color="#59C328"/>
<stop offset="0.5625" stop-color="#41A99D"/>
<stop offset="0.754808" stop-color="#1B3EEE"/>
<stop offset="1" stop-color="#737373"/>
</radialGradient>
<radialGradient id="paint7_radial_1973_232" cx="0" cy="0" r="1" gradientTransform="matrix(47.6 -0.35294 0.823528 44.1176 14.64 11.1176)" gradientUnits="userSpaceOnUse">
<stop stop-color="#EE0000"/>
<stop offset="0.144231" stop-color="#DC9511"/>
<stop offset="0.346154" stop-color="#59C328"/>
<stop offset="0.5625" stop-color="#41A99D"/>
<stop offset="0.754808" stop-color="#1B3EEE"/>
<stop offset="1" stop-color="#737373"/>
</radialGradient>
<radialGradient id="paint8_radial_1973_232" cx="0" cy="0" r="1" gradientTransform="matrix(47.6 -0.35294 0.823528 44.1176 14.64 11.1176)" gradientUnits="userSpaceOnUse">
<stop stop-color="#EE0000"/>
<stop offset="0.144231" stop-color="#DC9511"/>
<stop offset="0.346154" stop-color="#59C328"/>
<stop offset="0.5625" stop-color="#41A99D"/>
<stop offset="0.754808" stop-color="#1B3EEE"/>
<stop offset="1" stop-color="#737373"/>
</radialGradient>
</defs>
</svg>
