<svg width="64" height="64" viewBox="0 0 64 64" fill="none" xmlns="http://www.w3.org/2000/svg">
<path d="M24.5 27.5V36C24.5 40.1421 27.8579 43.5 32 43.5C36.1421 43.5 39.5 40.1421 39.5 36V27.5H56.5V36C56.5 49.531 45.531 60.5 32 60.5C18.469 60.5 7.5 49.531 7.5 36V27.5H24.5Z" stroke="#EAB300"/>
<path d="M4 16.4375L4 12.2305L6.82617 12.2305L4.8252 5.72851L7.69238 4.8457L10.5596 3.96387L13 11.8955L13 3L19 3L19 11.8955L21.4404 3.96387L24.3076 4.8457L27.1748 5.72852L25.1748 12.2305L28 12.2305L28 13.2373L4 16.4375ZM4 21.4375L4 18.4551L28 15.2549L28 18.2373L4 21.4375ZM4 26.3994L4 23.4551L28 20.2549L28 23.1992L4 26.3994ZM14.627 27L28 25.2168L28 27L14.627 27Z" fill="#EAB300"/>
<path d="M36 16.4375L36 12.2305L38.8262 12.2305L36.8252 5.72852L39.6924 4.8457L42.5596 3.96387L45 11.8955L45 3L51 3L51 11.8955L53.4404 3.96387L56.3076 4.8457L59.1748 5.72852L57.1748 12.2305L60 12.2305L60 13.2373L36 16.4375ZM36 21.4375L36 18.4551L60 15.2549L60 18.2373L36 21.4375ZM36 26.3994L36 23.4551L60 20.2549L60 23.1992L36 26.3994ZM46.627 27L60 25.2168L60 27L46.627 27Z" fill="#EAB300"/>
<path d="M19.8412 33.6089L12.609 40.8411M12.609 33.6233L19.8413 40.8556M35.8412 48.6089L28.609 55.8411M28.609 48.6233L35.8413 55.8556M51.8412 32.6089L44.609 39.8411M44.609 32.6233L51.8413 39.8556" stroke="#EAB300" stroke-width="4"/>
</svg>
