<svg width="64" height="64" viewBox="0 0 64 64" fill="none" xmlns="http://www.w3.org/2000/svg">
<path d="M25 36C25 39.866 28.134 43 32 43C35.866 43 39 39.866 39 36V27H46.627L60 25.2168V27H57V36C57 49.8071 45.8071 61 32 61C18.1929 61 7 49.8071 7 36V27H14.627L28 25.2168V27H25V36ZM28 23.1992L4 26.3994V23.4551L28 20.2549V23.1992ZM60 23.1992L36 26.3994V23.4551L60 20.2549V23.1992ZM28 18.2373L4 21.4375V18.4551L28 15.2549V18.2373ZM60 18.2373L36 21.4375V18.4551L60 15.2549V18.2373ZM19 11.8955L21.4404 3.96387L27.1748 5.72852L25.1748 12.2305H28V13.2373L4 16.4375V12.2305H6.82617L4.8252 5.72852L10.5596 3.96387L13 11.8955V3H19V11.8955ZM51 11.8955L53.4404 3.96387L59.1748 5.72852L57.1748 12.2305H60V13.2373L36 16.4375V12.2305H38.8262L36.8252 5.72852L42.5596 3.96387L45 11.8955V3H51V11.8955Z" fill="url(#paint0_radial_1973_232)"/>
<defs>
<radialGradient id="paint0_radial_1973_232" cx="0" cy="0" r="1" gradientTransform="matrix(47.6 -0.852939 0.823528 106.618 14.64 22.6176)" gradientUnits="userSpaceOnUse">
<stop stop-color="#EE0000"/>
<stop offset="0.144231" stop-color="#DC9511"/>
<stop offset="0.346154" stop-color="#59C328"/>
<stop offset="0.5625" stop-color="#41A99D"/>
<stop offset="0.754808" stop-color="#1B3EEE"/>
<stop offset="1" stop-color="#737373"/>
</radialGradient>
</defs>
</svg>
