<svg width="64" height="64" viewBox="0 0 64 64" fill="none" xmlns="http://www.w3.org/2000/svg">
<path d="M48.0935 11.9314C49.3126 14.3584 49.9997 17.0987 49.9997 19.9998C49.9997 21.6948 49.7658 23.3354 49.3279 24.8904L49.3327 24.8972L49.3034 24.9744C49.0135 25.9847 48.637 26.9584 48.1833 27.8875L46.282 32.8289L45.6726 33.7537L41.4997 35.9998H22.4997L18.3269 33.7537L17.7185 32.8328L15.8181 27.8904C15.3638 26.9605 14.9872 25.9856 14.697 24.9744L14.6667 24.8972L14.6726 24.8904C14.2346 23.3354 13.9997 21.6948 13.9997 19.9998C13.9998 17.0991 14.6871 14.3591 15.906 11.9324L25.1902 25.9998H38.8093L48.0935 11.9314ZM53.8269 3.24585C55.3479 0.941335 58.449 0.306175 60.7536 1.8269C63.0583 3.34797 63.6935 6.44897 62.1726 8.75366L51.4099 25.0593L51.5827 24.6062L51.4919 24.4792C51.822 23.037 51.9997 21.5378 51.9997 19.9998C51.9997 16.3717 51.0334 12.9695 49.3445 10.0359L53.8269 3.24585ZM3.24582 1.8269C5.55041 0.305967 8.65142 0.941433 10.1726 3.24585L14.654 10.0369C12.9656 12.9702 11.9998 16.3722 11.9997 19.9998C11.9997 21.5001 12.1687 22.9632 12.4831 24.3718L12.3659 24.5085L12.573 25.0359L1.82687 8.75366C0.306144 6.44902 0.941305 3.34793 3.24582 1.8269Z" fill="#EAB300"/>
<circle cx="32" cy="53" r="7.5" transform="rotate(-180 32 53)" stroke="#EAB300" stroke-width="5"/>
<path d="M32 47C25.9212 47 20.8179 42.8275 19.3955 37.1904L15.8184 27.8906C15.364 26.9607 14.9875 25.986 14.6973 24.9746L14.667 24.8975L14.6729 24.8906C14.2348 23.3355 14 21.6952 14 20C14 10.0589 22.0589 2 32 2C41.9411 2 50 10.0589 50 20C50 21.6951 49.7661 23.3356 49.3281 24.8906L49.333 24.8975L49.3037 24.9746C49.0138 25.9849 48.6373 26.9586 48.1836 27.8877L44.6055 37.1904C43.1831 42.8276 38.0789 47 32 47ZM32 24C34.2091 24 36 22.2091 36 20C36 17.7909 34.2091 16 32 16C29.7909 16 28 17.7909 28 20C28 22.2091 29.7909 24 32 24Z" fill="#EAB300"/>
</svg>
