<svg width="64" height="64" viewBox="0 0 64 64" fill="none" xmlns="http://www.w3.org/2000/svg">
<circle cx="11" cy="11" r="10" fill="#D9D9D9"/>
<path d="M14.9304 4.26841C15.2183 4.26841 15.4219 4.32107 15.5412 4.42637C15.6606 4.53168 15.7202 4.70719 15.7202 4.95291V7.37496C15.7202 7.62068 15.6606 7.79619 15.5412 7.9015C15.4219 8.0068 15.2183 8.05946 14.9304 8.05946C14.6636 8.05946 14.4811 7.96819 14.3828 7.78566C14.0458 7.1468 13.572 6.66239 12.9612 6.33243C12.3504 5.99544 11.6554 5.82695 10.8761 5.82695C10.1039 5.82695 9.50362 6.00598 9.07537 6.36402C8.65414 6.72206 8.44353 7.20296 8.44353 7.80672C8.44353 8.09456 8.51725 8.33676 8.66467 8.53334C8.8121 8.72991 9.02272 8.8984 9.29652 9.03881C9.54223 9.16518 9.83007 9.27048 10.16 9.35473C10.49 9.43196 10.9323 9.52322 11.4869 9.62853C12.0907 9.74788 12.568 9.84967 12.9191 9.93392C13.2771 10.0111 13.6281 10.12 13.9721 10.2604C14.6742 10.5482 15.2218 10.9519 15.6149 11.4714C16.0151 11.9839 16.2152 12.6789 16.2152 13.5565C16.2152 14.2866 16.0432 14.929 15.6992 15.4836C15.3552 16.0312 14.8462 16.4594 14.1722 16.7683C13.5053 17.0772 12.7014 17.2317 11.7607 17.2317C11.0586 17.2317 10.4057 17.1053 9.80199 16.8526C9.20525 16.5928 8.68574 16.2172 8.24345 15.7258V16.5472C8.24345 16.7929 8.18377 16.9684 8.06443 17.0737C7.94508 17.179 7.74149 17.2317 7.45365 17.2317C7.16581 17.2317 6.96222 17.179 6.84287 17.0737C6.72352 16.9684 6.66385 16.7929 6.66385 16.5472V13.388C6.66385 13.1423 6.72352 12.9668 6.84287 12.8614C6.96222 12.7561 7.16581 12.7035 7.45365 12.7035C7.75553 12.7035 7.95912 12.8509 8.06443 13.1458C8.35226 13.9601 8.80859 14.585 9.43341 15.0202C10.0653 15.4555 10.841 15.6731 11.7607 15.6731C12.6593 15.6731 13.3473 15.4801 13.8247 15.0939C14.3091 14.7078 14.5513 14.1953 14.5513 13.5565C14.5513 13.1142 14.439 12.7561 14.2143 12.4823C13.9967 12.2015 13.6773 11.9698 13.256 11.7873C12.9893 11.668 12.6979 11.5732 12.382 11.503C12.0661 11.4258 11.6343 11.331 11.0867 11.2187C10.5111 11.1063 10.0266 11.001 9.6335 10.9027C9.24737 10.8045 8.88933 10.6816 8.55937 10.5342C7.99773 10.2814 7.55895 9.94094 7.24303 9.51269C6.93413 9.07742 6.77968 8.50877 6.77968 7.80672C6.77968 7.08361 6.95169 6.45528 7.29569 5.92173C7.64671 5.38818 8.13112 4.98099 8.74892 4.70017C9.37374 4.41233 10.0828 4.26841 10.8761 4.26841C11.4939 4.26841 12.0907 4.38776 12.6663 4.62646C13.242 4.86515 13.7334 5.18809 14.1406 5.59528V4.95291C14.1406 4.70719 14.2003 4.53168 14.3196 4.42637C14.439 4.32107 14.6426 4.26841 14.9304 4.26841Z" fill="black"/>
</svg>
