<svg width="64" height="64" viewBox="0 0 64 64" fill="none" xmlns="http://www.w3.org/2000/svg">
<path d="M8.79524 57.251L16.0884 42.2509C16.7579 40.874 18.1546 40 19.6857 40H44.8179C46.3776 40 47.7951 40.9067 48.4492 42.3227L55.3777 57.3227C56.602 59.9733 54.666 63 51.7463 63H12.3926C9.4384 63 7.50349 59.9077 8.79524 57.251Z" fill="#EAB300"/>
<path d="M28 33V5C28 2.79086 29.7909 1 32 1C34.2091 1 36 2.79086 36 5V33C36 35.2091 34.2091 37 32 37C29.7909 37 28 35.2091 28 33Z" fill="#EAB300"/>
<path d="M37 27.3408C39.9883 29.0701 42 32.2991 42 36C42 41.5228 37.5228 46 32 46C26.4772 46 22 41.5228 22 36C22 32.2991 24.0117 29.0701 27 27.3408V33C27 33.5226 27.0798 34.0265 27.2285 34.5C27.0798 34.9735 27 35.4774 27 36C27 38.7614 29.2386 41 32 41C34.7614 41 37 38.7614 37 36C37 35.4773 36.9193 34.9736 36.7705 34.5C36.9193 34.0264 37 33.5227 37 33V27.3408ZM32 26C33.4225 26 34.7749 26.2986 36 26.834V33C35.0878 31.7857 33.6357 31 32 31C30.3643 31 28.9122 31.7857 28 33V26.834C29.2251 26.2986 30.5775 26 32 26Z" fill="#EAB300"/>
</svg>
