<svg width="538" height="312" viewBox="0 0 538 312" fill="none" xmlns="http://www.w3.org/2000/svg">
<rect width="538" height="312" fill="#BDBDBD"/>
<path d="M124.344 129L0 145.036V312H538V145.036L460.718 132.302L310.613 153.997L124.344 129Z" fill="#7888B1"/>
<path d="M310.613 153.997L445.733 134.467L438.773 212.531L240.934 194.891L240.894 194.886C184.341 186.842 144.988 176.171 113.903 158.084C102.269 151.314 91.8118 143.516 82.0547 134.453L124.345 129L310.613 153.997Z" fill="#3CAAD9"/>
<path d="M395.83 241.455C395.778 241.023 395.571 240.688 395.207 240.449C394.844 240.21 394.398 240.091 393.869 240.091C393.483 240.091 393.145 240.153 392.855 240.278C392.568 240.403 392.344 240.575 392.182 240.794C392.023 241.013 391.943 241.261 391.943 241.54C391.943 241.773 391.999 241.973 392.109 242.141C392.223 242.305 392.368 242.443 392.544 242.554C392.72 242.662 392.905 242.751 393.098 242.822C393.291 242.891 393.469 242.946 393.631 242.989L394.517 243.227C394.744 243.287 394.997 243.369 395.276 243.474C395.557 243.58 395.825 243.723 396.081 243.905C396.339 244.084 396.553 244.314 396.72 244.595C396.888 244.876 396.972 245.222 396.972 245.631C396.972 246.102 396.848 246.528 396.601 246.909C396.357 247.29 395.999 247.592 395.527 247.817C395.058 248.041 394.489 248.153 393.818 248.153C393.193 248.153 392.652 248.053 392.195 247.851C391.74 247.649 391.382 247.368 391.121 247.007C390.862 246.646 390.716 246.227 390.682 245.75H391.773C391.801 246.08 391.912 246.352 392.105 246.568C392.301 246.781 392.548 246.94 392.847 247.045C393.148 247.148 393.472 247.199 393.818 247.199C394.222 247.199 394.584 247.134 394.905 247.003C395.226 246.869 395.48 246.685 395.668 246.449C395.855 246.21 395.949 245.932 395.949 245.614C395.949 245.324 395.868 245.088 395.706 244.906C395.544 244.724 395.331 244.577 395.067 244.463C394.803 244.349 394.517 244.25 394.21 244.165L393.136 243.858C392.455 243.662 391.915 243.382 391.517 243.018C391.119 242.655 390.92 242.179 390.92 241.591C390.92 241.102 391.053 240.676 391.317 240.312C391.584 239.946 391.942 239.662 392.391 239.46C392.842 239.256 393.347 239.153 393.903 239.153C394.466 239.153 394.966 239.254 395.403 239.456C395.841 239.655 396.188 239.928 396.443 240.274C396.702 240.621 396.838 241.014 396.852 241.455H395.83ZM402.698 245.324V241.455H403.703V248H402.698V246.892H402.63C402.476 247.224 402.238 247.507 401.914 247.74C401.59 247.97 401.181 248.085 400.686 248.085C400.277 248.085 399.914 247.996 399.596 247.817C399.277 247.635 399.027 247.362 398.846 246.999C398.664 246.632 398.573 246.17 398.573 245.614V241.455H399.578V245.545C399.578 246.023 399.712 246.403 399.979 246.688C400.249 246.972 400.593 247.114 401.01 247.114C401.26 247.114 401.515 247.05 401.773 246.922C402.034 246.794 402.253 246.598 402.429 246.334C402.608 246.07 402.698 245.733 402.698 245.324ZM405.682 248V239.273H406.688V242.494H406.773C406.847 242.381 406.949 242.236 407.08 242.06C407.213 241.881 407.403 241.722 407.651 241.582C407.901 241.44 408.239 241.369 408.665 241.369C409.216 241.369 409.702 241.507 410.122 241.783C410.543 242.058 410.871 242.449 411.107 242.955C411.342 243.46 411.46 244.057 411.46 244.744C411.46 245.438 411.342 246.038 411.107 246.547C410.871 247.053 410.544 247.445 410.126 247.723C409.709 247.999 409.227 248.136 408.682 248.136C408.261 248.136 407.925 248.067 407.672 247.928C407.419 247.786 407.224 247.625 407.088 247.446C406.952 247.264 406.847 247.114 406.773 246.994H406.653V248H405.682ZM406.67 244.727C406.67 245.222 406.743 245.658 406.888 246.036C407.033 246.411 407.244 246.705 407.523 246.918C407.801 247.128 408.142 247.233 408.545 247.233C408.966 247.233 409.317 247.122 409.598 246.901C409.882 246.676 410.095 246.375 410.237 245.997C410.382 245.616 410.455 245.193 410.455 244.727C410.455 244.267 410.384 243.852 410.241 243.483C410.102 243.111 409.891 242.817 409.607 242.601C409.325 242.382 408.972 242.273 408.545 242.273C408.136 242.273 407.793 242.376 407.514 242.584C407.236 242.788 407.026 243.075 406.884 243.445C406.741 243.811 406.67 244.239 406.67 244.727ZM412.999 248V241.455H413.97V242.477H414.055C414.192 242.128 414.412 241.857 414.716 241.663C415.02 241.467 415.385 241.369 415.811 241.369C416.243 241.369 416.602 241.467 416.889 241.663C417.179 241.857 417.405 242.128 417.567 242.477H417.635C417.803 242.139 418.054 241.871 418.389 241.672C418.724 241.47 419.126 241.369 419.595 241.369C420.18 241.369 420.659 241.553 421.031 241.919C421.403 242.283 421.589 242.849 421.589 243.619V248H420.584V243.619C420.584 243.136 420.452 242.791 420.188 242.584C419.923 242.376 419.612 242.273 419.254 242.273C418.794 242.273 418.438 242.412 418.185 242.69C417.932 242.966 417.805 243.315 417.805 243.739V248H416.783V243.517C416.783 243.145 416.662 242.845 416.42 242.618C416.179 242.388 415.868 242.273 415.487 242.273C415.226 242.273 414.982 242.342 414.754 242.482C414.53 242.621 414.348 242.814 414.209 243.061C414.072 243.305 414.004 243.588 414.004 243.909V248H412.999ZM426.173 248.136C425.542 248.136 424.998 247.997 424.54 247.719C424.086 247.438 423.735 247.045 423.488 246.543C423.244 246.037 423.121 245.449 423.121 244.778C423.121 244.108 423.244 243.517 423.488 243.006C423.735 242.491 424.079 242.091 424.519 241.804C424.962 241.514 425.479 241.369 426.07 241.369C426.411 241.369 426.748 241.426 427.08 241.54C427.413 241.653 427.715 241.838 427.988 242.094C428.261 242.347 428.478 242.682 428.64 243.099C428.802 243.517 428.883 244.031 428.883 244.642V245.068H423.837V244.199H427.86C427.86 243.83 427.786 243.5 427.638 243.21C427.494 242.92 427.286 242.692 427.016 242.524C426.749 242.357 426.434 242.273 426.07 242.273C425.67 242.273 425.323 242.372 425.031 242.571C424.741 242.767 424.518 243.023 424.362 243.338C424.205 243.653 424.127 243.991 424.127 244.352V244.932C424.127 245.426 424.212 245.845 424.383 246.189C424.556 246.53 424.796 246.79 425.103 246.969C425.41 247.145 425.766 247.233 426.173 247.233C426.437 247.233 426.675 247.196 426.888 247.122C427.104 247.045 427.29 246.932 427.447 246.781C427.603 246.628 427.724 246.437 427.809 246.21L428.781 246.483C428.678 246.812 428.506 247.102 428.265 247.352C428.023 247.599 427.725 247.793 427.37 247.932C427.015 248.068 426.616 248.136 426.173 248.136ZM430.413 248V241.455H431.384V242.443H431.452C431.572 242.119 431.788 241.857 432.1 241.655C432.413 241.453 432.765 241.352 433.157 241.352C433.231 241.352 433.323 241.354 433.434 241.357C433.545 241.359 433.629 241.364 433.685 241.369V242.392C433.651 242.384 433.573 242.371 433.451 242.354C433.332 242.334 433.205 242.324 433.072 242.324C432.754 242.324 432.469 242.391 432.219 242.524C431.972 242.655 431.776 242.837 431.631 243.07C431.489 243.3 431.418 243.562 431.418 243.858V248H430.413ZM437.32 250.591C436.835 250.591 436.417 250.528 436.067 250.403C435.718 250.281 435.427 250.119 435.194 249.918C434.964 249.719 434.781 249.506 434.644 249.278L435.445 248.716C435.536 248.835 435.651 248.972 435.79 249.125C435.93 249.281 436.12 249.416 436.362 249.53C436.606 249.646 436.925 249.705 437.32 249.705C437.849 249.705 438.285 249.577 438.629 249.321C438.972 249.065 439.144 248.665 439.144 248.119V246.79H439.059C438.985 246.909 438.88 247.057 438.744 247.233C438.61 247.406 438.417 247.561 438.164 247.697C437.914 247.831 437.576 247.898 437.15 247.898C436.621 247.898 436.147 247.773 435.727 247.523C435.309 247.273 434.978 246.909 434.734 246.432C434.492 245.955 434.371 245.375 434.371 244.693C434.371 244.023 434.489 243.439 434.725 242.942C434.961 242.442 435.289 242.055 435.71 241.783C436.13 241.507 436.616 241.369 437.167 241.369C437.593 241.369 437.931 241.44 438.181 241.582C438.434 241.722 438.627 241.881 438.761 242.06C438.897 242.236 439.002 242.381 439.076 242.494H439.178V241.455H440.15V248.188C440.15 248.75 440.022 249.207 439.766 249.56C439.513 249.915 439.173 250.175 438.744 250.339C438.317 250.507 437.843 250.591 437.32 250.591ZM437.286 246.994C437.69 246.994 438.031 246.902 438.309 246.717C438.587 246.533 438.799 246.267 438.944 245.92C439.089 245.574 439.161 245.159 439.161 244.676C439.161 244.205 439.09 243.788 438.948 243.428C438.806 243.067 438.596 242.784 438.317 242.58C438.039 242.375 437.695 242.273 437.286 242.273C436.86 242.273 436.505 242.381 436.221 242.597C435.94 242.812 435.728 243.102 435.586 243.466C435.447 243.83 435.377 244.233 435.377 244.676C435.377 245.131 435.448 245.533 435.59 245.882C435.735 246.229 435.948 246.501 436.229 246.7C436.513 246.896 436.866 246.994 437.286 246.994ZM444.735 248.136C444.104 248.136 443.56 247.997 443.103 247.719C442.648 247.438 442.298 247.045 442.05 246.543C441.806 246.037 441.684 245.449 441.684 244.778C441.684 244.108 441.806 243.517 442.05 243.006C442.298 242.491 442.641 242.091 443.082 241.804C443.525 241.514 444.042 241.369 444.633 241.369C444.974 241.369 445.31 241.426 445.643 241.54C445.975 241.653 446.278 241.838 446.55 242.094C446.823 242.347 447.04 242.682 447.202 243.099C447.364 243.517 447.445 244.031 447.445 244.642V245.068H442.4V244.199H446.423C446.423 243.83 446.349 243.5 446.201 243.21C446.056 242.92 445.849 242.692 445.579 242.524C445.312 242.357 444.996 242.273 444.633 242.273C444.232 242.273 443.886 242.372 443.593 242.571C443.303 242.767 443.08 243.023 442.924 243.338C442.768 243.653 442.69 243.991 442.69 244.352V244.932C442.69 245.426 442.775 245.845 442.945 246.189C443.119 246.53 443.359 246.79 443.665 246.969C443.972 247.145 444.329 247.233 444.735 247.233C444.999 247.233 445.238 247.196 445.451 247.122C445.667 247.045 445.853 246.932 446.009 246.781C446.165 246.628 446.286 246.437 446.371 246.21L447.343 246.483C447.241 246.812 447.069 247.102 446.827 247.352C446.586 247.599 446.288 247.793 445.933 247.932C445.577 248.068 445.178 248.136 444.735 248.136ZM451.447 248.136C450.901 248.136 450.42 247.999 450.002 247.723C449.585 247.445 449.258 247.053 449.022 246.547C448.786 246.038 448.668 245.438 448.668 244.744C448.668 244.057 448.786 243.46 449.022 242.955C449.258 242.449 449.586 242.058 450.006 241.783C450.427 241.507 450.913 241.369 451.464 241.369C451.89 241.369 452.227 241.44 452.474 241.582C452.724 241.722 452.914 241.881 453.045 242.06C453.178 242.236 453.282 242.381 453.356 242.494H453.441V239.273H454.447V248H453.475V246.994H453.356C453.282 247.114 453.177 247.264 453.04 247.446C452.904 247.625 452.71 247.786 452.457 247.928C452.204 248.067 451.867 248.136 451.447 248.136ZM451.583 247.233C451.987 247.233 452.327 247.128 452.606 246.918C452.884 246.705 453.096 246.411 453.241 246.036C453.386 245.658 453.458 245.222 453.458 244.727C453.458 244.239 453.387 243.811 453.245 243.445C453.103 243.075 452.893 242.788 452.614 242.584C452.336 242.376 451.992 242.273 451.583 242.273C451.157 242.273 450.802 242.382 450.518 242.601C450.237 242.817 450.025 243.111 449.883 243.483C449.744 243.852 449.674 244.267 449.674 244.727C449.674 245.193 449.745 245.616 449.887 245.997C450.032 246.375 450.245 246.676 450.526 246.901C450.81 247.122 451.163 247.233 451.583 247.233ZM391.415 254.273L394.006 261.619H394.108L396.699 254.273H397.807L394.602 263H393.511L390.307 254.273H391.415ZM401.08 263.136C400.489 263.136 399.97 262.996 399.524 262.714C399.081 262.433 398.734 262.04 398.484 261.534C398.237 261.028 398.114 260.437 398.114 259.761C398.114 259.08 398.237 258.484 398.484 257.976C398.734 257.467 399.081 257.072 399.524 256.791C399.97 256.51 400.489 256.369 401.08 256.369C401.67 256.369 402.188 256.51 402.631 256.791C403.077 257.072 403.423 257.467 403.67 257.976C403.92 258.484 404.045 259.08 404.045 259.761C404.045 260.437 403.92 261.028 403.67 261.534C403.423 262.04 403.077 262.433 402.631 262.714C402.188 262.996 401.67 263.136 401.08 263.136ZM401.08 262.233C401.528 262.233 401.898 262.118 402.188 261.888C402.477 261.658 402.692 261.355 402.831 260.98C402.97 260.605 403.04 260.199 403.04 259.761C403.04 259.324 402.97 258.916 402.831 258.538C402.692 258.161 402.477 257.855 402.188 257.622C401.898 257.389 401.528 257.273 401.08 257.273C400.631 257.273 400.261 257.389 399.972 257.622C399.682 257.855 399.467 258.161 399.328 258.538C399.189 258.916 399.119 259.324 399.119 259.761C399.119 260.199 399.189 260.605 399.328 260.98C399.467 261.355 399.682 261.658 399.972 261.888C400.261 262.118 400.631 262.233 401.08 262.233ZM406.586 254.273V263H405.581V254.273H406.586ZM412.553 260.324V256.455H413.559V263H412.553V261.892H412.485C412.332 262.224 412.093 262.507 411.769 262.74C411.445 262.97 411.036 263.085 410.542 263.085C410.133 263.085 409.769 262.996 409.451 262.817C409.133 262.635 408.883 262.362 408.701 261.999C408.519 261.632 408.428 261.17 408.428 260.614V256.455H409.434V260.545C409.434 261.023 409.567 261.403 409.835 261.688C410.104 261.972 410.448 262.114 410.866 262.114C411.116 262.114 411.37 262.05 411.629 261.922C411.89 261.794 412.109 261.598 412.285 261.334C412.464 261.07 412.553 260.733 412.553 260.324ZM415.401 263V256.455H416.373V257.477H416.458C416.594 257.128 416.814 256.857 417.118 256.663C417.422 256.467 417.787 256.369 418.213 256.369C418.645 256.369 419.005 256.467 419.292 256.663C419.581 256.857 419.807 257.128 419.969 257.477H420.037C420.205 257.139 420.456 256.871 420.792 256.672C421.127 256.47 421.529 256.369 421.998 256.369C422.583 256.369 423.061 256.553 423.434 256.919C423.806 257.283 423.992 257.849 423.992 258.619V263H422.986V258.619C422.986 258.136 422.854 257.791 422.59 257.584C422.326 257.376 422.015 257.273 421.657 257.273C421.196 257.273 420.84 257.412 420.587 257.69C420.334 257.966 420.208 258.315 420.208 258.739V263H419.185V258.517C419.185 258.145 419.064 257.845 418.823 257.618C418.581 257.388 418.27 257.273 417.89 257.273C417.628 257.273 417.384 257.342 417.157 257.482C416.932 257.621 416.75 257.814 416.611 258.061C416.475 258.305 416.407 258.588 416.407 258.909V263H415.401ZM428.575 263.136C427.944 263.136 427.4 262.997 426.943 262.719C426.488 262.438 426.137 262.045 425.89 261.543C425.646 261.037 425.524 260.449 425.524 259.778C425.524 259.108 425.646 258.517 425.89 258.006C426.137 257.491 426.481 257.091 426.922 256.804C427.365 256.514 427.882 256.369 428.473 256.369C428.814 256.369 429.15 256.426 429.483 256.54C429.815 256.653 430.118 256.838 430.39 257.094C430.663 257.347 430.88 257.682 431.042 258.099C431.204 258.517 431.285 259.031 431.285 259.642V260.068H426.24V259.199H430.262C430.262 258.83 430.189 258.5 430.041 258.21C429.896 257.92 429.689 257.692 429.419 257.524C429.152 257.357 428.836 257.273 428.473 257.273C428.072 257.273 427.725 257.372 427.433 257.571C427.143 257.767 426.92 258.023 426.764 258.338C426.608 258.653 426.529 258.991 426.529 259.352V259.932C426.529 260.426 426.615 260.845 426.785 261.189C426.958 261.53 427.199 261.79 427.505 261.969C427.812 262.145 428.169 262.233 428.575 262.233C428.839 262.233 429.078 262.196 429.291 262.122C429.507 262.045 429.693 261.932 429.849 261.781C430.005 261.628 430.126 261.437 430.211 261.21L431.183 261.483C431.081 261.812 430.909 262.102 430.667 262.352C430.426 262.599 430.127 262.793 429.772 262.932C429.417 263.068 429.018 263.136 428.575 263.136Z" fill="white"/>
<path d="M225.83 268.455C225.778 268.023 225.571 267.688 225.207 267.449C224.844 267.21 224.398 267.091 223.869 267.091C223.483 267.091 223.145 267.153 222.855 267.278C222.568 267.403 222.344 267.575 222.182 267.794C222.023 268.013 221.943 268.261 221.943 268.54C221.943 268.773 221.999 268.973 222.109 269.141C222.223 269.305 222.368 269.443 222.544 269.554C222.72 269.662 222.905 269.751 223.098 269.822C223.291 269.891 223.469 269.946 223.631 269.989L224.517 270.227C224.744 270.287 224.997 270.369 225.276 270.474C225.557 270.58 225.825 270.723 226.081 270.905C226.339 271.084 226.553 271.314 226.72 271.595C226.888 271.876 226.972 272.222 226.972 272.631C226.972 273.102 226.848 273.528 226.601 273.909C226.357 274.29 225.999 274.592 225.527 274.817C225.058 275.041 224.489 275.153 223.818 275.153C223.193 275.153 222.652 275.053 222.195 274.851C221.74 274.649 221.382 274.368 221.121 274.007C220.862 273.646 220.716 273.227 220.682 272.75H221.773C221.801 273.08 221.912 273.352 222.105 273.568C222.301 273.781 222.548 273.94 222.847 274.045C223.148 274.148 223.472 274.199 223.818 274.199C224.222 274.199 224.584 274.134 224.905 274.003C225.226 273.869 225.48 273.685 225.668 273.449C225.855 273.21 225.949 272.932 225.949 272.614C225.949 272.324 225.868 272.088 225.706 271.906C225.544 271.724 225.331 271.577 225.067 271.463C224.803 271.349 224.517 271.25 224.21 271.165L223.136 270.858C222.455 270.662 221.915 270.382 221.517 270.018C221.119 269.655 220.92 269.179 220.92 268.591C220.92 268.102 221.053 267.676 221.317 267.312C221.584 266.946 221.942 266.662 222.391 266.46C222.842 266.256 223.347 266.153 223.903 266.153C224.466 266.153 224.966 266.254 225.403 266.456C225.841 266.655 226.188 266.928 226.443 267.274C226.702 267.621 226.838 268.014 226.852 268.455H225.83ZM232.698 272.324V268.455H233.703V275H232.698V273.892H232.63C232.476 274.224 232.238 274.507 231.914 274.74C231.59 274.97 231.181 275.085 230.686 275.085C230.277 275.085 229.914 274.996 229.596 274.817C229.277 274.635 229.027 274.362 228.846 273.999C228.664 273.632 228.573 273.17 228.573 272.614V268.455H229.578V272.545C229.578 273.023 229.712 273.403 229.979 273.688C230.249 273.972 230.593 274.114 231.01 274.114C231.26 274.114 231.515 274.05 231.773 273.922C232.034 273.794 232.253 273.598 232.429 273.334C232.608 273.07 232.698 272.733 232.698 272.324ZM235.682 275V266.273H236.688V269.494H236.773C236.847 269.381 236.949 269.236 237.08 269.06C237.213 268.881 237.403 268.722 237.651 268.582C237.901 268.44 238.239 268.369 238.665 268.369C239.216 268.369 239.702 268.507 240.122 268.783C240.543 269.058 240.871 269.449 241.107 269.955C241.342 270.46 241.46 271.057 241.46 271.744C241.46 272.438 241.342 273.038 241.107 273.547C240.871 274.053 240.544 274.445 240.126 274.723C239.709 274.999 239.227 275.136 238.682 275.136C238.261 275.136 237.925 275.067 237.672 274.928C237.419 274.786 237.224 274.625 237.088 274.446C236.952 274.264 236.847 274.114 236.773 273.994H236.653V275H235.682ZM236.67 271.727C236.67 272.222 236.743 272.658 236.888 273.036C237.033 273.411 237.244 273.705 237.523 273.918C237.801 274.128 238.142 274.233 238.545 274.233C238.966 274.233 239.317 274.122 239.598 273.901C239.882 273.676 240.095 273.375 240.237 272.997C240.382 272.616 240.455 272.193 240.455 271.727C240.455 271.267 240.384 270.852 240.241 270.483C240.102 270.111 239.891 269.817 239.607 269.601C239.325 269.382 238.972 269.273 238.545 269.273C238.136 269.273 237.793 269.376 237.514 269.584C237.236 269.788 237.026 270.075 236.884 270.445C236.741 270.811 236.67 271.239 236.67 271.727ZM242.999 275V268.455H243.97V269.477H244.055C244.192 269.128 244.412 268.857 244.716 268.663C245.02 268.467 245.385 268.369 245.811 268.369C246.243 268.369 246.602 268.467 246.889 268.663C247.179 268.857 247.405 269.128 247.567 269.477H247.635C247.803 269.139 248.054 268.871 248.389 268.672C248.724 268.47 249.126 268.369 249.595 268.369C250.18 268.369 250.659 268.553 251.031 268.919C251.403 269.283 251.589 269.849 251.589 270.619V275H250.584V270.619C250.584 270.136 250.452 269.791 250.188 269.584C249.923 269.376 249.612 269.273 249.254 269.273C248.794 269.273 248.438 269.412 248.185 269.69C247.932 269.966 247.805 270.315 247.805 270.739V275H246.783V270.517C246.783 270.145 246.662 269.845 246.42 269.618C246.179 269.388 245.868 269.273 245.487 269.273C245.226 269.273 244.982 269.342 244.754 269.482C244.53 269.621 244.348 269.814 244.209 270.061C244.072 270.305 244.004 270.588 244.004 270.909V275H242.999ZM256.173 275.136C255.542 275.136 254.998 274.997 254.54 274.719C254.086 274.438 253.735 274.045 253.488 273.543C253.244 273.037 253.121 272.449 253.121 271.778C253.121 271.108 253.244 270.517 253.488 270.006C253.735 269.491 254.079 269.091 254.519 268.804C254.962 268.514 255.479 268.369 256.07 268.369C256.411 268.369 256.748 268.426 257.08 268.54C257.413 268.653 257.715 268.838 257.988 269.094C258.261 269.347 258.478 269.682 258.64 270.099C258.802 270.517 258.883 271.031 258.883 271.642V272.068H253.837V271.199H257.86C257.86 270.83 257.786 270.5 257.638 270.21C257.494 269.92 257.286 269.692 257.016 269.524C256.749 269.357 256.434 269.273 256.07 269.273C255.67 269.273 255.323 269.372 255.031 269.571C254.741 269.767 254.518 270.023 254.362 270.338C254.205 270.653 254.127 270.991 254.127 271.352V271.932C254.127 272.426 254.212 272.845 254.383 273.189C254.556 273.53 254.796 273.79 255.103 273.969C255.41 274.145 255.766 274.233 256.173 274.233C256.437 274.233 256.675 274.196 256.888 274.122C257.104 274.045 257.29 273.932 257.447 273.781C257.603 273.628 257.724 273.437 257.809 273.21L258.781 273.483C258.678 273.812 258.506 274.102 258.265 274.352C258.023 274.599 257.725 274.793 257.37 274.932C257.015 275.068 256.616 275.136 256.173 275.136ZM260.413 275V268.455H261.384V269.443H261.452C261.572 269.119 261.788 268.857 262.1 268.655C262.413 268.453 262.765 268.352 263.157 268.352C263.231 268.352 263.323 268.354 263.434 268.357C263.545 268.359 263.629 268.364 263.685 268.369V269.392C263.651 269.384 263.573 269.371 263.451 269.354C263.332 269.334 263.205 269.324 263.072 269.324C262.754 269.324 262.469 269.391 262.219 269.524C261.972 269.655 261.776 269.837 261.631 270.07C261.489 270.3 261.418 270.562 261.418 270.858V275H260.413ZM267.32 277.591C266.835 277.591 266.417 277.528 266.067 277.403C265.718 277.281 265.427 277.119 265.194 276.918C264.964 276.719 264.781 276.506 264.644 276.278L265.445 275.716C265.536 275.835 265.651 275.972 265.79 276.125C265.93 276.281 266.12 276.416 266.362 276.53C266.606 276.646 266.925 276.705 267.32 276.705C267.849 276.705 268.285 276.577 268.629 276.321C268.972 276.065 269.144 275.665 269.144 275.119V273.79H269.059C268.985 273.909 268.88 274.057 268.744 274.233C268.61 274.406 268.417 274.561 268.164 274.697C267.914 274.831 267.576 274.898 267.15 274.898C266.621 274.898 266.147 274.773 265.727 274.523C265.309 274.273 264.978 273.909 264.734 273.432C264.492 272.955 264.371 272.375 264.371 271.693C264.371 271.023 264.489 270.439 264.725 269.942C264.961 269.442 265.289 269.055 265.71 268.783C266.13 268.507 266.616 268.369 267.167 268.369C267.593 268.369 267.931 268.44 268.181 268.582C268.434 268.722 268.627 268.881 268.761 269.06C268.897 269.236 269.002 269.381 269.076 269.494H269.178V268.455H270.15V275.188C270.15 275.75 270.022 276.207 269.766 276.56C269.513 276.915 269.173 277.175 268.744 277.339C268.317 277.507 267.843 277.591 267.32 277.591ZM267.286 273.994C267.69 273.994 268.031 273.902 268.309 273.717C268.587 273.533 268.799 273.267 268.944 272.92C269.089 272.574 269.161 272.159 269.161 271.676C269.161 271.205 269.09 270.788 268.948 270.428C268.806 270.067 268.596 269.784 268.317 269.58C268.039 269.375 267.695 269.273 267.286 269.273C266.86 269.273 266.505 269.381 266.221 269.597C265.94 269.812 265.728 270.102 265.586 270.466C265.447 270.83 265.377 271.233 265.377 271.676C265.377 272.131 265.448 272.533 265.59 272.882C265.735 273.229 265.948 273.501 266.229 273.7C266.513 273.896 266.866 273.994 267.286 273.994ZM274.735 275.136C274.104 275.136 273.56 274.997 273.103 274.719C272.648 274.438 272.298 274.045 272.05 273.543C271.806 273.037 271.684 272.449 271.684 271.778C271.684 271.108 271.806 270.517 272.05 270.006C272.298 269.491 272.641 269.091 273.082 268.804C273.525 268.514 274.042 268.369 274.633 268.369C274.974 268.369 275.31 268.426 275.643 268.54C275.975 268.653 276.278 268.838 276.55 269.094C276.823 269.347 277.04 269.682 277.202 270.099C277.364 270.517 277.445 271.031 277.445 271.642V272.068H272.4V271.199H276.423C276.423 270.83 276.349 270.5 276.201 270.21C276.056 269.92 275.849 269.692 275.579 269.524C275.312 269.357 274.996 269.273 274.633 269.273C274.232 269.273 273.886 269.372 273.593 269.571C273.303 269.767 273.08 270.023 272.924 270.338C272.768 270.653 272.69 270.991 272.69 271.352V271.932C272.69 272.426 272.775 272.845 272.945 273.189C273.119 273.53 273.359 273.79 273.665 273.969C273.972 274.145 274.329 274.233 274.735 274.233C274.999 274.233 275.238 274.196 275.451 274.122C275.667 274.045 275.853 273.932 276.009 273.781C276.165 273.628 276.286 273.437 276.371 273.21L277.343 273.483C277.241 273.812 277.069 274.102 276.827 274.352C276.586 274.599 276.288 274.793 275.933 274.932C275.577 275.068 275.178 275.136 274.735 275.136ZM281.447 275.136C280.901 275.136 280.42 274.999 280.002 274.723C279.585 274.445 279.258 274.053 279.022 273.547C278.786 273.038 278.668 272.438 278.668 271.744C278.668 271.057 278.786 270.46 279.022 269.955C279.258 269.449 279.586 269.058 280.006 268.783C280.427 268.507 280.913 268.369 281.464 268.369C281.89 268.369 282.227 268.44 282.474 268.582C282.724 268.722 282.914 268.881 283.045 269.06C283.178 269.236 283.282 269.381 283.356 269.494H283.441V266.273H284.447V275H283.475V273.994H283.356C283.282 274.114 283.177 274.264 283.04 274.446C282.904 274.625 282.71 274.786 282.457 274.928C282.204 275.067 281.867 275.136 281.447 275.136ZM281.583 274.233C281.987 274.233 282.327 274.128 282.606 273.918C282.884 273.705 283.096 273.411 283.241 273.036C283.386 272.658 283.458 272.222 283.458 271.727C283.458 271.239 283.387 270.811 283.245 270.445C283.103 270.075 282.893 269.788 282.614 269.584C282.336 269.376 281.992 269.273 281.583 269.273C281.157 269.273 280.802 269.382 280.518 269.601C280.237 269.817 280.025 270.111 279.883 270.483C279.744 270.852 279.674 271.267 279.674 271.727C279.674 272.193 279.745 272.616 279.887 272.997C280.032 273.375 280.245 273.676 280.526 273.901C280.81 274.122 281.163 274.233 281.583 274.233ZM228.08 284H227.023C226.96 283.696 226.851 283.429 226.695 283.199C226.541 282.969 226.354 282.776 226.132 282.619C225.913 282.46 225.67 282.341 225.403 282.261C225.136 282.182 224.858 282.142 224.568 282.142C224.04 282.142 223.561 282.276 223.132 282.543C222.706 282.81 222.366 283.203 222.114 283.723C221.864 284.243 221.739 284.881 221.739 285.636C221.739 286.392 221.864 287.03 222.114 287.55C222.366 288.07 222.706 288.463 223.132 288.73C223.561 288.997 224.04 289.131 224.568 289.131C224.858 289.131 225.136 289.091 225.403 289.011C225.67 288.932 225.913 288.814 226.132 288.658C226.354 288.499 226.541 288.304 226.695 288.074C226.851 287.841 226.96 287.574 227.023 287.273H228.08C228 287.719 227.855 288.118 227.645 288.47C227.435 288.822 227.173 289.122 226.861 289.369C226.548 289.614 226.197 289.8 225.808 289.928C225.422 290.055 225.009 290.119 224.568 290.119C223.824 290.119 223.162 289.938 222.582 289.574C222.003 289.21 221.547 288.693 221.214 288.023C220.882 287.352 220.716 286.557 220.716 285.636C220.716 284.716 220.882 283.92 221.214 283.25C221.547 282.58 222.003 282.062 222.582 281.699C223.162 281.335 223.824 281.153 224.568 281.153C225.009 281.153 225.422 281.217 225.808 281.345C226.197 281.473 226.548 281.661 226.861 281.908C227.173 282.152 227.435 282.45 227.645 282.803C227.855 283.152 228 283.551 228.08 284ZM232.395 290.136C231.765 290.136 231.221 289.997 230.763 289.719C230.309 289.438 229.958 289.045 229.711 288.543C229.466 288.037 229.344 287.449 229.344 286.778C229.344 286.108 229.466 285.517 229.711 285.006C229.958 284.491 230.301 284.091 230.742 283.804C231.185 283.514 231.702 283.369 232.293 283.369C232.634 283.369 232.971 283.426 233.303 283.54C233.635 283.653 233.938 283.838 234.211 284.094C234.483 284.347 234.701 284.682 234.863 285.099C235.025 285.517 235.105 286.031 235.105 286.642V287.068H230.06V286.199H234.083C234.083 285.83 234.009 285.5 233.861 285.21C233.716 284.92 233.509 284.692 233.239 284.524C232.972 284.357 232.657 284.273 232.293 284.273C231.892 284.273 231.546 284.372 231.253 284.571C230.963 284.767 230.74 285.023 230.584 285.338C230.428 285.653 230.35 285.991 230.35 286.352V286.932C230.35 287.426 230.435 287.845 230.605 288.189C230.779 288.53 231.019 288.79 231.326 288.969C231.632 289.145 231.989 289.233 232.395 289.233C232.659 289.233 232.898 289.196 233.111 289.122C233.327 289.045 233.513 288.932 233.669 288.781C233.826 288.628 233.946 288.437 234.032 288.21L235.003 288.483C234.901 288.812 234.729 289.102 234.488 289.352C234.246 289.599 233.948 289.793 233.593 289.932C233.238 290.068 232.838 290.136 232.395 290.136ZM237.641 286.062V290H236.635V283.455H237.607V284.477H237.692C237.846 284.145 238.078 283.878 238.391 283.676C238.703 283.472 239.107 283.369 239.601 283.369C240.044 283.369 240.432 283.46 240.765 283.642C241.097 283.821 241.355 284.094 241.54 284.46C241.725 284.824 241.817 285.284 241.817 285.841V290H240.811V285.909C240.811 285.395 240.678 284.994 240.411 284.707C240.144 284.418 239.777 284.273 239.311 284.273C238.99 284.273 238.703 284.342 238.451 284.482C238.201 284.621 238.003 284.824 237.858 285.091C237.713 285.358 237.641 285.682 237.641 286.062ZM246.501 283.455V284.307H243.109V283.455H246.501ZM244.098 281.886H245.104V288.125C245.104 288.409 245.145 288.622 245.227 288.764C245.313 288.903 245.42 288.997 245.551 289.045C245.685 289.091 245.825 289.114 245.973 289.114C246.084 289.114 246.175 289.108 246.246 289.097C246.317 289.082 246.374 289.071 246.416 289.062L246.621 289.966C246.553 289.991 246.457 290.017 246.335 290.043C246.213 290.071 246.058 290.085 245.871 290.085C245.587 290.085 245.308 290.024 245.036 289.902C244.766 289.78 244.541 289.594 244.362 289.344C244.186 289.094 244.098 288.778 244.098 288.398V281.886ZM248.014 290V283.455H248.986V284.443H249.054C249.173 284.119 249.389 283.857 249.702 283.655C250.014 283.453 250.366 283.352 250.759 283.352C250.832 283.352 250.925 283.354 251.036 283.357C251.146 283.359 251.23 283.364 251.287 283.369V284.392C251.253 284.384 251.175 284.371 251.053 284.354C250.933 284.334 250.807 284.324 250.673 284.324C250.355 284.324 250.071 284.391 249.821 284.524C249.574 284.655 249.378 284.837 249.233 285.07C249.091 285.3 249.02 285.562 249.02 285.858V290H248.014ZM254.939 290.136C254.348 290.136 253.83 289.996 253.384 289.714C252.94 289.433 252.594 289.04 252.344 288.534C252.097 288.028 251.973 287.437 251.973 286.761C251.973 286.08 252.097 285.484 252.344 284.976C252.594 284.467 252.94 284.072 253.384 283.791C253.83 283.51 254.348 283.369 254.939 283.369C255.53 283.369 256.047 283.51 256.49 283.791C256.936 284.072 257.283 284.467 257.53 284.976C257.78 285.484 257.905 286.08 257.905 286.761C257.905 287.437 257.78 288.028 257.53 288.534C257.283 289.04 256.936 289.433 256.49 289.714C256.047 289.996 255.53 290.136 254.939 290.136ZM254.939 289.233C255.388 289.233 255.757 289.118 256.047 288.888C256.337 288.658 256.551 288.355 256.69 287.98C256.83 287.605 256.899 287.199 256.899 286.761C256.899 286.324 256.83 285.916 256.69 285.538C256.551 285.161 256.337 284.855 256.047 284.622C255.757 284.389 255.388 284.273 254.939 284.273C254.49 284.273 254.121 284.389 253.831 284.622C253.541 284.855 253.327 285.161 253.188 285.538C253.048 285.916 252.979 286.324 252.979 286.761C252.979 287.199 253.048 287.605 253.188 287.98C253.327 288.355 253.541 288.658 253.831 288.888C254.121 289.118 254.49 289.233 254.939 289.233ZM259.44 290V283.455H260.446V290H259.44ZM259.951 282.364C259.755 282.364 259.586 282.297 259.444 282.163C259.305 282.03 259.235 281.869 259.235 281.682C259.235 281.494 259.305 281.334 259.444 281.2C259.586 281.067 259.755 281 259.951 281C260.147 281 260.315 281.067 260.454 281.2C260.596 281.334 260.667 281.494 260.667 281.682C260.667 281.869 260.596 282.03 260.454 282.163C260.315 282.297 260.147 282.364 259.951 282.364ZM264.759 290.136C264.214 290.136 263.732 289.999 263.315 289.723C262.897 289.445 262.57 289.053 262.335 288.547C262.099 288.038 261.981 287.438 261.981 286.744C261.981 286.057 262.099 285.46 262.335 284.955C262.57 284.449 262.898 284.058 263.319 283.783C263.739 283.507 264.225 283.369 264.776 283.369C265.202 283.369 265.539 283.44 265.786 283.582C266.036 283.722 266.227 283.881 266.357 284.06C266.491 284.236 266.594 284.381 266.668 284.494H266.754V281.273H267.759V290H266.788V288.994H266.668C266.594 289.114 266.489 289.264 266.353 289.446C266.217 289.625 266.022 289.786 265.769 289.928C265.516 290.067 265.18 290.136 264.759 290.136ZM264.896 289.233C265.299 289.233 265.64 289.128 265.918 288.918C266.197 288.705 266.408 288.411 266.553 288.036C266.698 287.658 266.771 287.222 266.771 286.727C266.771 286.239 266.7 285.811 266.558 285.445C266.415 285.075 266.205 284.788 265.927 284.584C265.648 284.376 265.305 284.273 264.896 284.273C264.469 284.273 264.114 284.382 263.83 284.601C263.549 284.817 263.337 285.111 263.195 285.483C263.056 285.852 262.987 286.267 262.987 286.727C262.987 287.193 263.058 287.616 263.2 287.997C263.344 288.375 263.558 288.676 263.839 288.901C264.123 289.122 264.475 289.233 264.896 289.233Z" fill="white"/>
<path d="M64.0795 230H63.0227C62.9602 229.696 62.8509 229.429 62.6946 229.199C62.5412 228.969 62.3537 228.776 62.1321 228.619C61.9134 228.46 61.6705 228.341 61.4034 228.261C61.1364 228.182 60.858 228.142 60.5682 228.142C60.0398 228.142 59.5611 228.276 59.1321 228.543C58.706 228.81 58.3665 229.203 58.1136 229.723C57.8636 230.243 57.7386 230.881 57.7386 231.636C57.7386 232.392 57.8636 233.03 58.1136 233.55C58.3665 234.07 58.706 234.463 59.1321 234.73C59.5611 234.997 60.0398 235.131 60.5682 235.131C60.858 235.131 61.1364 235.091 61.4034 235.011C61.6705 234.932 61.9134 234.814 62.1321 234.658C62.3537 234.499 62.5412 234.304 62.6946 234.074C62.8509 233.841 62.9602 233.574 63.0227 233.273H64.0795C64 233.719 63.8551 234.118 63.6449 234.47C63.4347 234.822 63.1733 235.122 62.8608 235.369C62.5483 235.614 62.1974 235.8 61.8082 235.928C61.4219 236.055 61.0085 236.119 60.5682 236.119C59.8239 236.119 59.1619 235.938 58.5824 235.574C58.0028 235.21 57.5469 234.693 57.2145 234.023C56.8821 233.352 56.7159 232.557 56.7159 231.636C56.7159 230.716 56.8821 229.92 57.2145 229.25C57.5469 228.58 58.0028 228.062 58.5824 227.699C59.1619 227.335 59.8239 227.153 60.5682 227.153C61.0085 227.153 61.4219 227.217 61.8082 227.345C62.1974 227.473 62.5483 227.661 62.8608 227.908C63.1733 228.152 63.4347 228.45 63.6449 228.803C63.8551 229.152 64 229.551 64.0795 230ZM68.3952 236.136C67.7646 236.136 67.2205 235.997 66.7631 235.719C66.3086 235.438 65.9577 235.045 65.7106 234.543C65.4663 234.037 65.3441 233.449 65.3441 232.778C65.3441 232.108 65.4663 231.517 65.7106 231.006C65.9577 230.491 66.3015 230.091 66.7418 229.804C67.185 229.514 67.7021 229.369 68.293 229.369C68.6339 229.369 68.9705 229.426 69.3029 229.54C69.6353 229.653 69.9379 229.838 70.2106 230.094C70.4833 230.347 70.7006 230.682 70.8626 231.099C71.0245 231.517 71.1055 232.031 71.1055 232.642V233.068H66.06V232.199H70.0827C70.0827 231.83 70.0089 231.5 69.8612 231.21C69.7163 230.92 69.5089 230.692 69.239 230.524C68.9719 230.357 68.6566 230.273 68.293 230.273C67.8924 230.273 67.5458 230.372 67.2532 230.571C66.9634 230.767 66.7404 231.023 66.5842 231.338C66.4279 231.653 66.3498 231.991 66.3498 232.352V232.932C66.3498 233.426 66.435 233.845 66.6055 234.189C66.7788 234.53 67.0188 234.79 67.3256 234.969C67.6325 235.145 67.989 235.233 68.3952 235.233C68.6594 235.233 68.8981 235.196 69.1112 235.122C69.3271 235.045 69.5131 234.932 69.6694 234.781C69.8256 234.628 69.9464 234.437 70.0316 234.21L71.0032 234.483C70.9009 234.812 70.729 235.102 70.4876 235.352C70.2461 235.599 69.9478 235.793 69.5927 235.932C69.2376 236.068 68.8384 236.136 68.3952 236.136ZM73.641 232.062V236H72.6353V229.455H73.6069V230.477H73.6921C73.8455 230.145 74.0785 229.878 74.391 229.676C74.7035 229.472 75.1069 229.369 75.6012 229.369C76.0444 229.369 76.4322 229.46 76.7646 229.642C77.0969 229.821 77.3555 230.094 77.5401 230.46C77.7248 230.824 77.8171 231.284 77.8171 231.841V236H76.8114V231.909C76.8114 231.395 76.6779 230.994 76.4109 230.707C76.1438 230.418 75.7773 230.273 75.3114 230.273C74.9904 230.273 74.7035 230.342 74.4506 230.482C74.2006 230.621 74.0032 230.824 73.8583 231.091C73.7134 231.358 73.641 231.682 73.641 232.062ZM82.5014 229.455V230.307H79.1094V229.455H82.5014ZM80.098 227.886H81.1037V234.125C81.1037 234.409 81.1449 234.622 81.2273 234.764C81.3125 234.903 81.4205 234.997 81.5511 235.045C81.6847 235.091 81.8253 235.114 81.973 235.114C82.0838 235.114 82.1747 235.108 82.2457 235.097C82.3168 235.082 82.3736 235.071 82.4162 235.062L82.6207 235.966C82.5526 235.991 82.4574 236.017 82.3352 236.043C82.2131 236.071 82.0582 236.085 81.8707 236.085C81.5866 236.085 81.3082 236.024 81.0355 235.902C80.7656 235.78 80.5412 235.594 80.3622 235.344C80.1861 235.094 80.098 234.778 80.098 234.398V227.886ZM86.6882 236.136C86.0575 236.136 85.5135 235.997 85.0561 235.719C84.6016 235.438 84.2507 235.045 84.0036 234.543C83.7592 234.037 83.6371 233.449 83.6371 232.778C83.6371 232.108 83.7592 231.517 84.0036 231.006C84.2507 230.491 84.5945 230.091 85.0348 229.804C85.478 229.514 85.995 229.369 86.5859 229.369C86.9268 229.369 87.2635 229.426 87.5959 229.54C87.9283 229.653 88.2308 229.838 88.5036 230.094C88.7763 230.347 88.9936 230.682 89.1555 231.099C89.3175 231.517 89.3984 232.031 89.3984 232.642V233.068H84.353V232.199H88.3757C88.3757 231.83 88.3018 231.5 88.1541 231.21C88.0092 230.92 87.8018 230.692 87.532 230.524C87.2649 230.357 86.9496 230.273 86.5859 230.273C86.1854 230.273 85.8388 230.372 85.5462 230.571C85.2564 230.767 85.0334 231.023 84.8771 231.338C84.7209 231.653 84.6428 231.991 84.6428 232.352V232.932C84.6428 233.426 84.728 233.845 84.8984 234.189C85.0717 234.53 85.3118 234.79 85.6186 234.969C85.9254 235.145 86.282 235.233 86.6882 235.233C86.9524 235.233 87.1911 235.196 87.4041 235.122C87.62 235.045 87.8061 234.932 87.9624 234.781C88.1186 234.628 88.2393 234.437 88.3246 234.21L89.2962 234.483C89.1939 234.812 89.022 235.102 88.7805 235.352C88.5391 235.599 88.2408 235.793 87.8857 235.932C87.5305 236.068 87.1314 236.136 86.6882 236.136ZM90.9283 236V229.455H91.8999V230.443H91.968C92.0874 230.119 92.3033 229.857 92.6158 229.655C92.9283 229.453 93.2805 229.352 93.6726 229.352C93.7464 229.352 93.8388 229.354 93.9496 229.357C94.0604 229.359 94.1442 229.364 94.201 229.369V230.392C94.1669 230.384 94.0888 230.371 93.9666 230.354C93.8473 230.334 93.7209 230.324 93.5874 230.324C93.2692 230.324 92.9851 230.391 92.7351 230.524C92.4879 230.655 92.2919 230.837 92.147 231.07C92.005 231.3 91.9339 231.562 91.9339 231.858V236H90.9283ZM101.427 236.136C100.836 236.136 100.318 235.996 99.8718 235.714C99.4286 235.433 99.082 235.04 98.832 234.534C98.5849 234.028 98.4613 233.437 98.4613 232.761C98.4613 232.08 98.5849 231.484 98.832 230.976C99.082 230.467 99.4286 230.072 99.8718 229.791C100.318 229.51 100.836 229.369 101.427 229.369C102.018 229.369 102.535 229.51 102.978 229.791C103.424 230.072 103.771 230.467 104.018 230.976C104.268 231.484 104.393 232.08 104.393 232.761C104.393 233.437 104.268 234.028 104.018 234.534C103.771 235.04 103.424 235.433 102.978 235.714C102.535 235.996 102.018 236.136 101.427 236.136ZM101.427 235.233C101.876 235.233 102.245 235.118 102.535 234.888C102.825 234.658 103.039 234.355 103.179 233.98C103.318 233.605 103.387 233.199 103.387 232.761C103.387 232.324 103.318 231.916 103.179 231.538C103.039 231.161 102.825 230.855 102.535 230.622C102.245 230.389 101.876 230.273 101.427 230.273C100.978 230.273 100.609 230.389 100.319 230.622C100.029 230.855 99.815 231.161 99.6758 231.538C99.5366 231.916 99.467 232.324 99.467 232.761C99.467 233.199 99.5366 233.605 99.6758 233.98C99.815 234.355 100.029 234.658 100.319 234.888C100.609 235.118 100.978 235.233 101.427 235.233ZM108.843 229.455V230.307H105.315V229.455H108.843ZM106.371 236V228.551C106.371 228.176 106.46 227.864 106.636 227.614C106.812 227.364 107.04 227.176 107.322 227.051C107.603 226.926 107.9 226.864 108.212 226.864C108.46 226.864 108.661 226.884 108.817 226.923C108.974 226.963 109.09 227 109.167 227.034L108.877 227.903C108.826 227.886 108.755 227.865 108.664 227.839C108.576 227.814 108.46 227.801 108.315 227.801C107.982 227.801 107.742 227.885 107.594 228.053C107.45 228.22 107.377 228.466 107.377 228.79V236H106.371ZM113.764 227.273H115.025L117.991 234.517H118.093L121.059 227.273H122.321V236H121.332V229.369H121.247L118.52 236H117.565L114.838 229.369H114.752V236H113.764V227.273ZM126.229 236.153C125.815 236.153 125.438 236.075 125.1 235.919C124.762 235.76 124.494 235.531 124.295 235.233C124.096 234.932 123.996 234.568 123.996 234.142C123.996 233.767 124.07 233.463 124.218 233.23C124.366 232.994 124.563 232.81 124.81 232.676C125.058 232.543 125.33 232.443 125.629 232.378C125.93 232.31 126.232 232.256 126.536 232.216C126.934 232.165 127.256 232.126 127.504 232.101C127.754 232.072 127.935 232.026 128.049 231.96C128.165 231.895 128.224 231.781 128.224 231.619V231.585C128.224 231.165 128.109 230.838 127.879 230.605C127.651 230.372 127.306 230.256 126.843 230.256C126.363 230.256 125.987 230.361 125.714 230.571C125.441 230.781 125.249 231.006 125.138 231.244L124.184 230.903C124.354 230.506 124.582 230.196 124.866 229.974C125.153 229.75 125.465 229.594 125.803 229.506C126.144 229.415 126.479 229.369 126.809 229.369C127.019 229.369 127.261 229.395 127.533 229.446C127.809 229.494 128.075 229.595 128.33 229.749C128.589 229.902 128.803 230.134 128.974 230.443C129.144 230.753 129.229 231.168 129.229 231.688V236H128.224V235.114H128.173C128.104 235.256 127.991 235.408 127.832 235.57C127.673 235.732 127.461 235.869 127.197 235.983C126.933 236.097 126.61 236.153 126.229 236.153ZM126.383 235.25C126.781 235.25 127.116 235.172 127.388 235.016C127.664 234.859 127.871 234.658 128.011 234.411C128.153 234.163 128.224 233.903 128.224 233.631V232.71C128.181 232.761 128.087 232.808 127.942 232.851C127.8 232.891 127.636 232.926 127.448 232.957C127.263 232.986 127.083 233.011 126.907 233.034C126.734 233.054 126.593 233.071 126.485 233.085C126.224 233.119 125.979 233.175 125.752 233.251C125.528 233.325 125.346 233.437 125.207 233.588C125.07 233.736 125.002 233.937 125.002 234.193C125.002 234.543 125.131 234.807 125.39 234.986C125.651 235.162 125.982 235.25 126.383 235.25ZM135.701 230.92L134.798 231.176C134.741 231.026 134.657 230.879 134.547 230.737C134.439 230.592 134.291 230.473 134.103 230.379C133.916 230.286 133.676 230.239 133.383 230.239C132.983 230.239 132.649 230.331 132.382 230.516C132.118 230.697 131.985 230.929 131.985 231.21C131.985 231.46 132.076 231.658 132.258 231.803C132.44 231.947 132.724 232.068 133.11 232.165L134.082 232.403C134.667 232.545 135.103 232.763 135.39 233.055C135.677 233.345 135.821 233.719 135.821 234.176C135.821 234.551 135.713 234.886 135.497 235.182C135.284 235.477 134.985 235.71 134.602 235.881C134.218 236.051 133.772 236.136 133.264 236.136C132.596 236.136 132.044 235.991 131.606 235.702C131.169 235.412 130.892 234.989 130.775 234.432L131.73 234.193C131.821 234.545 131.993 234.81 132.245 234.986C132.501 235.162 132.835 235.25 133.247 235.25C133.716 235.25 134.088 235.151 134.363 234.952C134.642 234.75 134.781 234.509 134.781 234.227C134.781 234 134.701 233.81 134.542 233.656C134.383 233.5 134.139 233.384 133.809 233.307L132.718 233.051C132.119 232.909 131.679 232.689 131.397 232.391C131.119 232.089 130.98 231.713 130.98 231.261C130.98 230.892 131.083 230.565 131.291 230.281C131.501 229.997 131.787 229.774 132.147 229.612C132.511 229.45 132.923 229.369 133.383 229.369C134.031 229.369 134.539 229.511 134.909 229.795C135.281 230.08 135.545 230.455 135.701 230.92ZM141.971 230.92L141.067 231.176C141.011 231.026 140.927 230.879 140.816 230.737C140.708 230.592 140.56 230.473 140.373 230.379C140.185 230.286 139.945 230.239 139.653 230.239C139.252 230.239 138.918 230.331 138.651 230.516C138.387 230.697 138.255 230.929 138.255 231.21C138.255 231.46 138.346 231.658 138.528 231.803C138.71 231.947 138.994 232.068 139.38 232.165L140.352 232.403C140.937 232.545 141.373 232.763 141.66 233.055C141.947 233.345 142.09 233.719 142.09 234.176C142.09 234.551 141.982 234.886 141.766 235.182C141.553 235.477 141.255 235.71 140.871 235.881C140.488 236.051 140.042 236.136 139.533 236.136C138.866 236.136 138.313 235.991 137.876 235.702C137.438 235.412 137.161 234.989 137.045 234.432L137.999 234.193C138.09 234.545 138.262 234.81 138.515 234.986C138.771 235.162 139.104 235.25 139.516 235.25C139.985 235.25 140.357 235.151 140.633 234.952C140.911 234.75 141.05 234.509 141.05 234.227C141.05 234 140.971 233.81 140.812 233.656C140.653 233.5 140.408 233.384 140.079 233.307L138.988 233.051C138.388 232.909 137.948 232.689 137.667 232.391C137.388 232.089 137.249 231.713 137.249 231.261C137.249 230.892 137.353 230.565 137.56 230.281C137.771 229.997 138.056 229.774 138.417 229.612C138.781 229.45 139.192 229.369 139.653 229.369C140.3 229.369 140.809 229.511 141.178 229.795C141.55 230.08 141.815 230.455 141.971 230.92ZM147.337 231.636C147.337 230.562 147.476 229.575 147.755 228.675C148.036 227.771 148.436 226.94 148.956 226.182H149.843C149.638 226.463 149.446 226.81 149.267 227.222C149.091 227.631 148.936 228.081 148.803 228.572C148.669 229.061 148.564 229.567 148.488 230.089C148.414 230.612 148.377 231.128 148.377 231.636C148.377 232.312 148.442 232.999 148.573 233.695C148.703 234.391 148.88 235.037 149.101 235.634C149.323 236.23 149.57 236.716 149.843 237.091H148.956C148.436 236.332 148.036 235.503 147.755 234.602C147.476 233.699 147.337 232.71 147.337 231.636ZM158.486 230H157.429C157.366 229.696 157.257 229.429 157.101 229.199C156.947 228.969 156.76 228.776 156.538 228.619C156.32 228.46 156.077 228.341 155.81 228.261C155.543 228.182 155.264 228.142 154.974 228.142C154.446 228.142 153.967 228.276 153.538 228.543C153.112 228.81 152.773 229.203 152.52 229.723C152.27 230.243 152.145 230.881 152.145 231.636C152.145 232.392 152.27 233.03 152.52 233.55C152.773 234.07 153.112 234.463 153.538 234.73C153.967 234.997 154.446 235.131 154.974 235.131C155.264 235.131 155.543 235.091 155.81 235.011C156.077 234.932 156.32 234.814 156.538 234.658C156.76 234.499 156.947 234.304 157.101 234.074C157.257 233.841 157.366 233.574 157.429 233.273H158.486C158.406 233.719 158.261 234.118 158.051 234.47C157.841 234.822 157.58 235.122 157.267 235.369C156.955 235.614 156.604 235.8 156.214 235.928C155.828 236.055 155.415 236.119 154.974 236.119C154.23 236.119 153.568 235.938 152.989 235.574C152.409 235.21 151.953 234.693 151.621 234.023C151.288 233.352 151.122 232.557 151.122 231.636C151.122 230.716 151.288 229.92 151.621 229.25C151.953 228.58 152.409 228.062 152.989 227.699C153.568 227.335 154.23 227.153 154.974 227.153C155.415 227.153 155.828 227.217 156.214 227.345C156.604 227.473 156.955 227.661 157.267 227.908C157.58 228.152 157.841 228.45 158.051 228.803C158.261 229.152 158.406 229.551 158.486 230ZM162.716 236.136C162.125 236.136 161.607 235.996 161.161 235.714C160.718 235.433 160.371 235.04 160.121 234.534C159.874 234.028 159.75 233.437 159.75 232.761C159.75 232.08 159.874 231.484 160.121 230.976C160.371 230.467 160.718 230.072 161.161 229.791C161.607 229.51 162.125 229.369 162.716 229.369C163.307 229.369 163.824 229.51 164.267 229.791C164.713 230.072 165.06 230.467 165.307 230.976C165.557 231.484 165.682 232.08 165.682 232.761C165.682 233.437 165.557 234.028 165.307 234.534C165.06 235.04 164.713 235.433 164.267 235.714C163.824 235.996 163.307 236.136 162.716 236.136ZM162.716 235.233C163.165 235.233 163.534 235.118 163.824 234.888C164.114 234.658 164.328 234.355 164.468 233.98C164.607 233.605 164.676 233.199 164.676 232.761C164.676 232.324 164.607 231.916 164.468 231.538C164.328 231.161 164.114 230.855 163.824 230.622C163.534 230.389 163.165 230.273 162.716 230.273C162.267 230.273 161.898 230.389 161.608 230.622C161.319 230.855 161.104 231.161 160.965 231.538C160.826 231.916 160.756 232.324 160.756 232.761C160.756 233.199 160.826 233.605 160.965 233.98C161.104 234.355 161.319 234.658 161.608 234.888C161.898 235.118 162.267 235.233 162.716 235.233ZM167.354 227.273H168.615L171.581 234.517H171.683L174.649 227.273H175.911V236H174.922V229.369H174.837L172.109 236H171.155L168.428 229.369H168.342V236H167.354V227.273ZM180.041 231.636C180.041 232.71 179.9 233.699 179.619 234.602C179.341 235.503 178.941 236.332 178.422 237.091H177.535C177.74 236.81 177.93 236.463 178.106 236.051C178.285 235.642 178.441 235.193 178.575 234.705C178.708 234.213 178.812 233.706 178.886 233.183C178.963 232.658 179.001 232.142 179.001 231.636C179.001 230.96 178.936 230.274 178.805 229.578C178.674 228.882 178.498 228.236 178.277 227.639C178.055 227.043 177.808 226.557 177.535 226.182H178.422C178.941 226.94 179.341 227.771 179.619 228.675C179.9 229.575 180.041 230.562 180.041 231.636Z" fill="white"/>
<path d="M446.164 112.75L37.9556 76.353C84.6101 150.852 128.124 177.331 241.105 193.4L437.412 210.903L446.164 112.75Z" stroke="#5B3D1B" stroke-width="3"/>
<mask id="mask0_2200_373" style="mask-type:alpha" maskUnits="userSpaceOnUse" x="296" y="167" width="24" height="24">
<circle cx="308" cy="179" r="12" fill="#6E78DD"/>
</mask>
<g mask="url(#mask0_2200_373)">
<rect x="296" y="167" width="12" height="12" fill="#5D6BFF"/>
</g>
<mask id="mask1_2200_373" style="mask-type:alpha" maskUnits="userSpaceOnUse" x="296" y="167" width="24" height="24">
<ellipse cx="308" cy="179" rx="12" ry="12" transform="rotate(-90 308 179)" fill="white"/>
</mask>
<g mask="url(#mask1_2200_373)">
<rect x="296" y="191" width="12" height="12" transform="rotate(-90 296 191)" fill="white"/>
</g>
<mask id="mask2_2200_373" style="mask-type:alpha" maskUnits="userSpaceOnUse" x="296" y="167" width="24" height="24">
<ellipse cx="308" cy="179" rx="12" ry="12" transform="rotate(90 308 179)" fill="white"/>
</mask>
<g mask="url(#mask2_2200_373)">
<rect x="320" y="167" width="12" height="12" transform="rotate(90 320 167)" fill="white"/>
</g>
<mask id="mask3_2200_373" style="mask-type:alpha" maskUnits="userSpaceOnUse" x="296" y="167" width="24" height="24">
<circle cx="308" cy="179" r="12" transform="rotate(-180 308 179)" fill="#6E78DD"/>
</mask>
<g mask="url(#mask3_2200_373)">
<rect x="320" y="191" width="12" height="12" transform="rotate(-180 320 191)" fill="#5D6BFF"/>
</g>
<mask id="mask4_2200_373" style="mask-type:alpha" maskUnits="userSpaceOnUse" x="257" y="167" width="24" height="24">
<circle cx="269" cy="179" r="12" fill="#6E78DD"/>
</mask>
<g mask="url(#mask4_2200_373)">
<rect x="257" y="167" width="12" height="12" fill="#E11B1B"/>
</g>
<mask id="mask5_2200_373" style="mask-type:alpha" maskUnits="userSpaceOnUse" x="257" y="167" width="24" height="24">
<ellipse cx="269" cy="179" rx="12" ry="12" transform="rotate(-90 269 179)" fill="white"/>
</mask>
<g mask="url(#mask5_2200_373)">
<rect x="257" y="191" width="12" height="12" transform="rotate(-90 257 191)" fill="white"/>
</g>
<mask id="mask6_2200_373" style="mask-type:alpha" maskUnits="userSpaceOnUse" x="257" y="167" width="24" height="24">
<ellipse cx="269" cy="179" rx="12" ry="12" transform="rotate(90 269 179)" fill="white"/>
</mask>
<g mask="url(#mask6_2200_373)">
<rect x="281" y="167" width="12" height="12" transform="rotate(90 281 167)" fill="white"/>
</g>
<mask id="mask7_2200_373" style="mask-type:alpha" maskUnits="userSpaceOnUse" x="257" y="167" width="24" height="24">
<circle cx="269" cy="179" r="12" transform="rotate(-180 269 179)" fill="#6E78DD"/>
</mask>
<g mask="url(#mask7_2200_373)">
<rect x="281" y="191" width="12" height="12" transform="rotate(-180 281 191)" fill="#E11B1B"/>
</g>
<mask id="mask8_2200_373" style="mask-type:alpha" maskUnits="userSpaceOnUse" x="252" y="132" width="24" height="24">
<circle cx="264" cy="144" r="12" fill="#6E78DD"/>
</mask>
<g mask="url(#mask8_2200_373)">
<rect x="252" y="132" width="12" height="12" fill="#E18F1B"/>
</g>
<mask id="mask9_2200_373" style="mask-type:alpha" maskUnits="userSpaceOnUse" x="252" y="132" width="24" height="24">
<ellipse cx="264" cy="144" rx="12" ry="12" transform="rotate(-90 264 144)" fill="white"/>
</mask>
<g mask="url(#mask9_2200_373)">
<rect x="252" y="156" width="12" height="12" transform="rotate(-90 252 156)" fill="white"/>
</g>
<mask id="mask10_2200_373" style="mask-type:alpha" maskUnits="userSpaceOnUse" x="252" y="132" width="24" height="24">
<ellipse cx="264" cy="144" rx="12" ry="12" transform="rotate(90 264 144)" fill="white"/>
</mask>
<g mask="url(#mask10_2200_373)">
<rect x="276" y="132" width="12" height="12" transform="rotate(90 276 132)" fill="white"/>
</g>
<mask id="mask11_2200_373" style="mask-type:alpha" maskUnits="userSpaceOnUse" x="252" y="132" width="24" height="24">
<circle cx="264" cy="144" r="12" transform="rotate(-180 264 144)" fill="#6E78DD"/>
</mask>
<g mask="url(#mask11_2200_373)">
<rect x="276" y="156" width="12" height="12" transform="rotate(-180 276 156)" fill="#E18F1B"/>
</g>
<path d="M253.967 191.254C254.107 190.719 253.788 190.173 253.254 190.033L244.548 187.751C244.013 187.611 243.467 187.93 243.327 188.464C243.187 188.999 243.506 189.545 244.041 189.685L251.779 191.714L249.751 199.452C249.611 199.987 249.93 200.533 250.464 200.673C250.999 200.813 251.545 200.494 251.685 199.959L253.967 191.254ZM188 229L188.505 229.863L253.505 191.863L253 191L252.495 190.137L187.495 228.137L188 229Z" fill="white" fill-opacity="0.5"/>
<path d="M301.787 194.023C302.326 193.905 302.859 194.247 302.977 194.787L304.896 203.58C305.013 204.12 304.671 204.652 304.132 204.77C303.592 204.888 303.059 204.546 302.941 204.006L301.236 196.19L293.42 197.896C292.88 198.013 292.348 197.671 292.23 197.132C292.112 196.592 292.454 196.059 292.994 195.941L301.787 194.023ZM259 262L258.158 261.46L301.158 194.46L302 195L302.842 195.54L259.842 262.54L259 262Z" fill="white" fill-opacity="0.5"/>
<path d="M97.0568 41V32.2727H98.1136V40.0625H102.17V41H97.0568ZM103.67 41V34.4545H104.676V41H103.67ZM104.182 33.3636C103.986 33.3636 103.817 33.2969 103.675 33.1634C103.536 33.0298 103.466 32.8693 103.466 32.6818C103.466 32.4943 103.536 32.3338 103.675 32.2003C103.817 32.0668 103.986 32 104.182 32C104.378 32 104.545 32.0668 104.685 32.2003C104.827 32.3338 104.898 32.4943 104.898 32.6818C104.898 32.8693 104.827 33.0298 104.685 33.1634C104.545 33.2969 104.378 33.3636 104.182 33.3636ZM110.984 43.4545V39.9943H110.899C110.825 40.1136 110.72 40.2642 110.583 40.446C110.447 40.625 110.252 40.7855 110 40.9276C109.747 41.0668 109.41 41.1364 108.99 41.1364C108.444 41.1364 107.963 40.9986 107.545 40.723C107.127 40.4446 106.801 40.0526 106.565 39.5469C106.329 39.0384 106.211 38.4375 106.211 37.7443C106.211 37.0568 106.329 36.4602 106.565 35.9545C106.801 35.4489 107.129 35.0582 107.549 34.7827C107.97 34.5071 108.456 34.3693 109.007 34.3693C109.433 34.3693 109.77 34.4403 110.017 34.5824C110.267 34.7216 110.457 34.8807 110.588 35.0597C110.721 35.2358 110.825 35.3807 110.899 35.4943H111.018V34.4545H111.99V43.4545H110.984ZM109.126 40.233C109.529 40.233 109.87 40.1278 110.149 39.9176C110.427 39.7045 110.639 39.4105 110.784 39.0355C110.929 38.6577 111.001 38.2216 111.001 37.7273C111.001 37.2386 110.93 36.8111 110.788 36.4446C110.646 36.0753 110.436 35.7884 110.157 35.5838C109.879 35.3764 109.535 35.2727 109.126 35.2727C108.7 35.2727 108.345 35.3821 108.061 35.6009C107.779 35.8168 107.568 36.1108 107.426 36.483C107.287 36.8523 107.217 37.267 107.217 37.7273C107.217 38.1932 107.288 38.6165 107.43 38.9972C107.575 39.375 107.788 39.6761 108.069 39.9006C108.353 40.1222 108.706 40.233 109.126 40.233ZM117.956 38.3239V34.4545H118.961V41H117.956V39.892H117.887C117.734 40.2244 117.495 40.5071 117.172 40.7401C116.848 40.9702 116.439 41.0852 115.944 41.0852C115.535 41.0852 115.172 40.9957 114.853 40.8168C114.535 40.6349 114.285 40.3622 114.103 39.9986C113.922 39.6321 113.831 39.1705 113.831 38.6136V34.4545H114.836V38.5455C114.836 39.0227 114.97 39.4034 115.237 39.6875C115.507 39.9716 115.85 40.1136 116.268 40.1136C116.518 40.1136 116.772 40.0497 117.031 39.9219C117.292 39.794 117.511 39.598 117.687 39.3338C117.866 39.0696 117.956 38.733 117.956 38.3239ZM120.803 41V34.4545H121.809V41H120.803ZM121.315 33.3636C121.119 33.3636 120.95 33.2969 120.808 33.1634C120.668 33.0298 120.599 32.8693 120.599 32.6818C120.599 32.4943 120.668 32.3338 120.808 32.2003C120.95 32.0668 121.119 32 121.315 32C121.511 32 121.678 32.0668 121.817 32.2003C121.96 32.3338 122.031 32.4943 122.031 32.6818C122.031 32.8693 121.96 33.0298 121.817 33.1634C121.678 33.2969 121.511 33.3636 121.315 33.3636ZM126.123 41.1364C125.577 41.1364 125.096 40.9986 124.678 40.723C124.26 40.4446 123.934 40.0526 123.698 39.5469C123.462 39.0384 123.344 38.4375 123.344 37.7443C123.344 37.0568 123.462 36.4602 123.698 35.9545C123.934 35.4489 124.262 35.0582 124.682 34.7827C125.103 34.5071 125.588 34.3693 126.14 34.3693C126.566 34.3693 126.902 34.4403 127.15 34.5824C127.4 34.7216 127.59 34.8807 127.721 35.0597C127.854 35.2358 127.958 35.3807 128.032 35.4943H128.117V32.2727H129.123V41H128.151V39.9943H128.032C127.958 40.1136 127.853 40.2642 127.716 40.446C127.58 40.625 127.385 40.7855 127.132 40.9276C126.88 41.0668 126.543 41.1364 126.123 41.1364ZM126.259 40.233C126.662 40.233 127.003 40.1278 127.282 39.9176C127.56 39.7045 127.772 39.4105 127.917 39.0355C128.061 38.6577 128.134 38.2216 128.134 37.7273C128.134 37.2386 128.063 36.8111 127.921 36.4446C127.779 36.0753 127.569 35.7884 127.29 35.5838C127.012 35.3764 126.668 35.2727 126.259 35.2727C125.833 35.2727 125.478 35.3821 125.194 35.6009C124.912 35.8168 124.701 36.1108 124.559 36.483C124.419 36.8523 124.35 37.267 124.35 37.7273C124.35 38.1932 124.421 38.6165 124.563 38.9972C124.708 39.375 124.921 39.6761 125.202 39.9006C125.486 40.1222 125.838 40.233 126.259 40.233ZM139.388 34.4545C139.337 34.0227 139.13 33.6875 138.766 33.4489C138.402 33.2102 137.956 33.0909 137.428 33.0909C137.042 33.0909 136.703 33.1534 136.414 33.2784C136.127 33.4034 135.902 33.5753 135.74 33.794C135.581 34.0128 135.502 34.2614 135.502 34.5398C135.502 34.7727 135.557 34.973 135.668 35.1406C135.782 35.3054 135.926 35.4432 136.103 35.554C136.279 35.6619 136.463 35.7514 136.657 35.8224C136.85 35.8906 137.027 35.946 137.189 35.9886L138.076 36.2273C138.303 36.2869 138.556 36.3693 138.834 36.4744C139.115 36.5795 139.384 36.723 139.64 36.9048C139.898 37.0838 140.111 37.3139 140.279 37.5952C140.446 37.8764 140.53 38.2216 140.53 38.6307C140.53 39.1023 140.407 39.5284 140.159 39.9091C139.915 40.2898 139.557 40.5923 139.086 40.8168C138.617 41.0412 138.047 41.1534 137.377 41.1534C136.752 41.1534 136.211 41.0526 135.753 40.8509C135.299 40.6491 134.941 40.3679 134.679 40.0071C134.421 39.6463 134.275 39.2273 134.24 38.75H135.331C135.36 39.0795 135.471 39.3523 135.664 39.5682C135.86 39.7812 136.107 39.9403 136.405 40.0455C136.706 40.1477 137.03 40.1989 137.377 40.1989C137.78 40.1989 138.142 40.1335 138.463 40.0028C138.784 39.8693 139.039 39.6847 139.226 39.4489C139.414 39.2102 139.507 38.9318 139.507 38.6136C139.507 38.3239 139.426 38.0881 139.265 37.9062C139.103 37.7244 138.89 37.5767 138.625 37.4631C138.361 37.3494 138.076 37.25 137.769 37.1648L136.695 36.858C136.013 36.6619 135.473 36.3821 135.076 36.0185C134.678 35.6548 134.479 35.179 134.479 34.5909C134.479 34.1023 134.611 33.6761 134.875 33.3125C135.142 32.946 135.5 32.6619 135.949 32.4602C136.401 32.2557 136.905 32.1534 137.462 32.1534C138.025 32.1534 138.525 32.2543 138.962 32.456C139.4 32.6548 139.746 32.9276 140.002 33.2741C140.26 33.6207 140.397 34.0142 140.411 34.4545H139.388ZM144.058 41.1534C143.643 41.1534 143.266 41.0753 142.928 40.919C142.59 40.7599 142.322 40.5312 142.123 40.233C141.924 39.9318 141.825 39.5682 141.825 39.142C141.825 38.767 141.898 38.4631 142.046 38.2301C142.194 37.9943 142.391 37.8097 142.638 37.6761C142.886 37.5426 143.158 37.4432 143.457 37.3778C143.758 37.3097 144.06 37.2557 144.364 37.2159C144.762 37.1648 145.085 37.1264 145.332 37.1009C145.582 37.0724 145.763 37.0256 145.877 36.9602C145.994 36.8949 146.052 36.7812 146.052 36.6193V36.5852C146.052 36.1648 145.937 35.8381 145.707 35.6051C145.479 35.3722 145.134 35.2557 144.671 35.2557C144.191 35.2557 143.815 35.3608 143.542 35.571C143.269 35.7812 143.077 36.0057 142.967 36.2443L142.012 35.9034C142.183 35.5057 142.41 35.196 142.694 34.9744C142.981 34.75 143.293 34.5937 143.631 34.5057C143.972 34.4148 144.308 34.3693 144.637 34.3693C144.847 34.3693 145.089 34.3949 145.362 34.446C145.637 34.4943 145.903 34.5952 146.158 34.7486C146.417 34.902 146.631 35.1335 146.802 35.4432C146.972 35.7528 147.058 36.1676 147.058 36.6875V41H146.052V40.1136H146.001C145.933 40.2557 145.819 40.4077 145.66 40.5696C145.501 40.7315 145.289 40.8693 145.025 40.983C144.761 41.0966 144.438 41.1534 144.058 41.1534ZM144.211 40.25C144.609 40.25 144.944 40.1719 145.217 40.0156C145.492 39.8594 145.7 39.6577 145.839 39.4105C145.981 39.1634 146.052 38.9034 146.052 38.6307V37.7102C146.009 37.7614 145.915 37.8082 145.771 37.8509C145.629 37.8906 145.464 37.9261 145.276 37.9574C145.092 37.9858 144.911 38.0114 144.735 38.0341C144.562 38.054 144.421 38.071 144.313 38.0852C144.052 38.1193 143.808 38.1747 143.58 38.2514C143.356 38.3253 143.174 38.4375 143.035 38.5881C142.898 38.7358 142.83 38.9375 142.83 39.1932C142.83 39.5426 142.96 39.8068 143.218 39.9858C143.479 40.1619 143.81 40.25 144.211 40.25ZM148.893 41V34.4545H149.865V35.4773H149.95C150.086 35.1278 150.306 34.8565 150.61 34.6634C150.914 34.4673 151.279 34.3693 151.706 34.3693C152.137 34.3693 152.497 34.4673 152.784 34.6634C153.074 34.8565 153.299 35.1278 153.461 35.4773H153.529C153.697 35.1392 153.949 34.8707 154.284 34.6719C154.619 34.4702 155.021 34.3693 155.49 34.3693C156.075 34.3693 156.554 34.5526 156.926 34.919C157.298 35.2827 157.484 35.8494 157.484 36.6193V41H156.478V36.6193C156.478 36.1364 156.346 35.7912 156.082 35.5838C155.818 35.3764 155.507 35.2727 155.149 35.2727C154.689 35.2727 154.332 35.4119 154.079 35.6903C153.826 35.9659 153.7 36.3153 153.7 36.7386V41H152.677V36.517C152.677 36.1449 152.556 35.8452 152.315 35.6179C152.074 35.3878 151.762 35.2727 151.382 35.2727C151.12 35.2727 150.876 35.3423 150.649 35.4815C150.424 35.6207 150.243 35.8139 150.103 36.0611C149.967 36.3054 149.899 36.5881 149.899 36.9091V41H148.893ZM159.323 43.4545V34.4545H160.294V35.4943H160.414C160.488 35.3807 160.59 35.2358 160.721 35.0597C160.854 34.8807 161.044 34.7216 161.292 34.5824C161.542 34.4403 161.88 34.3693 162.306 34.3693C162.857 34.3693 163.343 34.5071 163.763 34.7827C164.184 35.0582 164.512 35.4489 164.748 35.9545C164.983 36.4602 165.101 37.0568 165.101 37.7443C165.101 38.4375 164.983 39.0384 164.748 39.5469C164.512 40.0526 164.185 40.4446 163.767 40.723C163.35 40.9986 162.868 41.1364 162.323 41.1364C161.902 41.1364 161.566 41.0668 161.313 40.9276C161.06 40.7855 160.865 40.625 160.729 40.446C160.593 40.2642 160.488 40.1136 160.414 39.9943H160.328V43.4545H159.323ZM160.311 37.7273C160.311 38.2216 160.384 38.6577 160.529 39.0355C160.674 39.4105 160.885 39.7045 161.164 39.9176C161.442 40.1278 161.783 40.233 162.186 40.233C162.607 40.233 162.958 40.1222 163.239 39.9006C163.523 39.6761 163.736 39.375 163.878 38.9972C164.023 38.6165 164.096 38.1932 164.096 37.7273C164.096 37.267 164.025 36.8523 163.882 36.483C163.743 36.1108 163.532 35.8168 163.248 35.6009C162.966 35.3821 162.613 35.2727 162.186 35.2727C161.777 35.2727 161.434 35.3764 161.155 35.5838C160.877 35.7884 160.667 36.0753 160.525 36.4446C160.382 36.8111 160.311 37.2386 160.311 37.7273ZM167.641 32.2727V41H166.635V32.2727H167.641ZM172.227 41.1364C171.597 41.1364 171.053 40.9972 170.595 40.7188C170.141 40.4375 169.79 40.0455 169.543 39.5426C169.298 39.0369 169.176 38.4489 169.176 37.7784C169.176 37.108 169.298 36.517 169.543 36.0057C169.79 35.4915 170.134 35.0909 170.574 34.804C171.017 34.5142 171.534 34.3693 172.125 34.3693C172.466 34.3693 172.803 34.4261 173.135 34.5398C173.467 34.6534 173.77 34.8381 174.043 35.0938C174.315 35.3466 174.533 35.6818 174.695 36.0994C174.857 36.517 174.938 37.0312 174.938 37.642V38.0682H169.892V37.1989H173.915C173.915 36.8295 173.841 36.5 173.693 36.2102C173.548 35.9205 173.341 35.6918 173.071 35.5241C172.804 35.3565 172.489 35.2727 172.125 35.2727C171.724 35.2727 171.378 35.3722 171.085 35.571C170.795 35.767 170.572 36.0227 170.416 36.3381C170.26 36.6534 170.182 36.9915 170.182 37.3523V37.9318C170.182 38.4261 170.267 38.8452 170.438 39.1889C170.611 39.5298 170.851 39.7898 171.158 39.9688C171.464 40.1449 171.821 40.233 172.227 40.233C172.491 40.233 172.73 40.196 172.943 40.1222C173.159 40.0455 173.345 39.9318 173.501 39.7812C173.658 39.6278 173.778 39.4375 173.864 39.2102L174.835 39.483C174.733 39.8125 174.561 40.1023 174.32 40.3523C174.078 40.5994 173.78 40.7926 173.425 40.9318C173.07 41.0682 172.67 41.1364 172.227 41.1364ZM179.979 41V32.2727H182.928C183.612 32.2727 184.172 32.3963 184.607 32.6435C185.044 32.8878 185.368 33.2188 185.578 33.6364C185.788 34.054 185.893 34.5199 185.893 35.0341C185.893 35.5483 185.788 36.0156 185.578 36.4361C185.371 36.8565 185.05 37.1918 184.615 37.4418C184.18 37.6889 183.624 37.8125 182.945 37.8125H180.831V36.875H182.911C183.379 36.875 183.756 36.794 184.04 36.6321C184.324 36.4702 184.53 36.2514 184.658 35.9759C184.788 35.6974 184.854 35.3835 184.854 35.0341C184.854 34.6847 184.788 34.3722 184.658 34.0966C184.53 33.821 184.322 33.6051 184.036 33.4489C183.749 33.2898 183.368 33.2102 182.893 33.2102H181.036V41H179.979ZM190.048 41.1364C189.457 41.1364 188.939 40.9957 188.493 40.7145C188.05 40.4332 187.703 40.0398 187.453 39.5341C187.206 39.0284 187.082 38.4375 187.082 37.7614C187.082 37.0795 187.206 36.4844 187.453 35.9759C187.703 35.4673 188.05 35.0724 188.493 34.7912C188.939 34.5099 189.457 34.3693 190.048 34.3693C190.639 34.3693 191.156 34.5099 191.599 34.7912C192.045 35.0724 192.392 35.4673 192.639 35.9759C192.889 36.4844 193.014 37.0795 193.014 37.7614C193.014 38.4375 192.889 39.0284 192.639 39.5341C192.392 40.0398 192.045 40.4332 191.599 40.7145C191.156 40.9957 190.639 41.1364 190.048 41.1364ZM190.048 40.233C190.497 40.233 190.866 40.1179 191.156 39.8878C191.446 39.6577 191.661 39.3551 191.8 38.9801C191.939 38.6051 192.009 38.1989 192.009 37.7614C192.009 37.3239 191.939 36.9162 191.8 36.5384C191.661 36.1605 191.446 35.8551 191.156 35.6222C190.866 35.3892 190.497 35.2727 190.048 35.2727C189.599 35.2727 189.23 35.3892 188.94 35.6222C188.651 35.8551 188.436 36.1605 188.297 36.5384C188.158 36.9162 188.088 37.3239 188.088 37.7614C188.088 38.1989 188.158 38.6051 188.297 38.9801C188.436 39.3551 188.651 39.6577 188.94 39.8878C189.23 40.1179 189.599 40.233 190.048 40.233ZM194.549 41V34.4545H195.555V41H194.549ZM195.061 33.3636C194.865 33.3636 194.696 33.2969 194.554 33.1634C194.414 33.0298 194.345 32.8693 194.345 32.6818C194.345 32.4943 194.414 32.3338 194.554 32.2003C194.696 32.0668 194.865 32 195.061 32C195.257 32 195.424 32.0668 195.564 32.2003C195.706 32.3338 195.777 32.4943 195.777 32.6818C195.777 32.8693 195.706 33.0298 195.564 33.1634C195.424 33.2969 195.257 33.3636 195.061 33.3636ZM198.403 37.0625V41H197.397V34.4545H198.369V35.4773H198.454C198.607 35.1449 198.84 34.8778 199.153 34.6761C199.465 34.4716 199.869 34.3693 200.363 34.3693C200.806 34.3693 201.194 34.4602 201.526 34.642C201.859 34.821 202.117 35.0938 202.302 35.4602C202.487 35.8239 202.579 36.2841 202.579 36.8409V41H201.573V36.9091C201.573 36.3949 201.44 35.9943 201.173 35.7074C200.906 35.4176 200.539 35.2727 200.073 35.2727C199.752 35.2727 199.465 35.3423 199.212 35.4815C198.962 35.6207 198.765 35.8239 198.62 36.0909C198.475 36.358 198.403 36.6818 198.403 37.0625ZM207.263 34.4545V35.3068H203.871V34.4545H207.263ZM204.86 32.8864H205.865V39.125C205.865 39.4091 205.907 39.6222 205.989 39.7642C206.074 39.9034 206.182 39.9972 206.313 40.0455C206.446 40.0909 206.587 40.1136 206.735 40.1136C206.846 40.1136 206.936 40.108 207.007 40.0966C207.078 40.0824 207.135 40.071 207.178 40.0625L207.382 40.9659C207.314 40.9915 207.219 41.017 207.097 41.0426C206.975 41.071 206.82 41.0852 206.632 41.0852C206.348 41.0852 206.07 41.0241 205.797 40.902C205.527 40.7798 205.303 40.5938 205.124 40.3438C204.948 40.0938 204.86 39.7784 204.86 39.3977V32.8864ZM213.295 35.9205L212.392 36.1761C212.335 36.0256 212.251 35.8793 212.14 35.7372C212.032 35.5923 211.885 35.473 211.697 35.3793C211.51 35.2855 211.27 35.2386 210.977 35.2386C210.576 35.2386 210.243 35.331 209.975 35.5156C209.711 35.6974 209.579 35.929 209.579 36.2102C209.579 36.4602 209.67 36.6577 209.852 36.8026C210.034 36.9474 210.318 37.0682 210.704 37.1648L211.676 37.4034C212.261 37.5455 212.697 37.7628 212.984 38.0554C213.271 38.3452 213.414 38.7187 213.414 39.1761C213.414 39.5511 213.306 39.8864 213.091 40.1818C212.877 40.4773 212.579 40.7102 212.196 40.8807C211.812 41.0511 211.366 41.1364 210.858 41.1364C210.19 41.1364 209.637 40.9915 209.2 40.7017C208.762 40.4119 208.485 39.9886 208.369 39.4318L209.324 39.1932C209.414 39.5455 209.586 39.8097 209.839 39.9858C210.095 40.1619 210.429 40.25 210.841 40.25C211.309 40.25 211.681 40.1506 211.957 39.9517C212.235 39.75 212.375 39.5085 212.375 39.2273C212.375 39 212.295 38.8097 212.136 38.6562C211.977 38.5 211.733 38.3835 211.403 38.3068L210.312 38.0511C209.713 37.9091 209.272 37.6889 208.991 37.3906C208.713 37.0895 208.574 36.7131 208.574 36.2614C208.574 35.892 208.677 35.5653 208.885 35.2812C209.095 34.9972 209.38 34.7741 209.741 34.6122C210.105 34.4503 210.517 34.3693 210.977 34.3693C211.625 34.3693 212.133 34.5114 212.502 34.7955C212.875 35.0795 213.139 35.4545 213.295 35.9205Z" fill="black"/>
<path d="M282.057 36.2727H283.318L286.284 43.517H286.386L289.352 36.2727H290.614V45H289.625V38.3693H289.54L286.812 45H285.858L283.131 38.3693H283.045V45H282.057V36.2727ZM295.341 45.1364C294.71 45.1364 294.166 44.9972 293.708 44.7188C293.254 44.4375 292.903 44.0455 292.656 43.5426C292.412 43.0369 292.289 42.4489 292.289 41.7784C292.289 41.108 292.412 40.517 292.656 40.0057C292.903 39.4915 293.247 39.0909 293.687 38.804C294.13 38.5142 294.647 38.3693 295.238 38.3693C295.579 38.3693 295.916 38.4261 296.248 38.5398C296.581 38.6534 296.883 38.8381 297.156 39.0938C297.429 39.3466 297.646 39.6818 297.808 40.0994C297.97 40.517 298.051 41.0312 298.051 41.642V42.0682H293.005V41.1989H297.028C297.028 40.8295 296.954 40.5 296.806 40.2102C296.662 39.9205 296.454 39.6918 296.184 39.5241C295.917 39.3565 295.602 39.2727 295.238 39.2727C294.838 39.2727 294.491 39.3722 294.199 39.571C293.909 39.767 293.686 40.0227 293.529 40.3381C293.373 40.6534 293.295 40.9915 293.295 41.3523V41.9318C293.295 42.4261 293.38 42.8452 293.551 43.1889C293.724 43.5298 293.964 43.7898 294.271 43.9688C294.578 44.1449 294.934 44.233 295.341 44.233C295.605 44.233 295.843 44.196 296.056 44.1222C296.272 44.0455 296.458 43.9318 296.615 43.7812C296.771 43.6278 296.892 43.4375 296.977 43.2102L297.949 43.483C297.846 43.8125 297.674 44.1023 297.433 44.3523C297.191 44.5994 296.893 44.7926 296.538 44.9318C296.183 45.0682 295.784 45.1364 295.341 45.1364ZM304.217 39.9205L303.314 40.1761C303.257 40.0256 303.173 39.8793 303.062 39.7372C302.954 39.5923 302.806 39.473 302.619 39.3793C302.431 39.2855 302.191 39.2386 301.899 39.2386C301.498 39.2386 301.164 39.331 300.897 39.5156C300.633 39.6974 300.501 39.929 300.501 40.2102C300.501 40.4602 300.592 40.6577 300.774 40.8026C300.956 40.9474 301.24 41.0682 301.626 41.1648L302.598 41.4034C303.183 41.5455 303.619 41.7628 303.906 42.0554C304.193 42.3452 304.336 42.7187 304.336 43.1761C304.336 43.5511 304.228 43.8864 304.012 44.1818C303.799 44.4773 303.501 44.7102 303.118 44.8807C302.734 45.0511 302.288 45.1364 301.779 45.1364C301.112 45.1364 300.559 44.9915 300.122 44.7017C299.684 44.4119 299.407 43.9886 299.291 43.4318L300.245 43.1932C300.336 43.5455 300.508 43.8097 300.761 43.9858C301.017 44.1619 301.35 44.25 301.762 44.25C302.231 44.25 302.603 44.1506 302.879 43.9517C303.157 43.75 303.297 43.5085 303.297 43.2273C303.297 43 303.217 42.8097 303.058 42.6562C302.899 42.5 302.654 42.3835 302.325 42.3068L301.234 42.0511C300.635 41.9091 300.194 41.6889 299.913 41.3906C299.635 41.0895 299.495 40.7131 299.495 40.2614C299.495 39.892 299.599 39.5653 299.806 39.2812C300.017 38.9972 300.302 38.7741 300.663 38.6122C301.027 38.4503 301.439 38.3693 301.899 38.3693C302.547 38.3693 303.055 38.5114 303.424 38.7955C303.797 39.0795 304.061 39.4545 304.217 39.9205ZM306.856 41.0625V45H305.85V36.2727H306.856V39.4773H306.941C307.094 39.1392 307.325 38.8707 307.631 38.6719C307.941 38.4702 308.353 38.3693 308.867 38.3693C309.313 38.3693 309.704 38.4588 310.039 38.6378C310.374 38.8139 310.634 39.0852 310.819 39.4517C311.006 39.8153 311.1 40.2784 311.1 40.8409V45H310.094V40.9091C310.094 40.3892 309.96 39.9872 309.69 39.7031C309.423 39.4162 309.052 39.2727 308.577 39.2727C308.248 39.2727 307.952 39.3423 307.691 39.4815C307.433 39.6207 307.228 39.8239 307.077 40.0909C306.93 40.358 306.856 40.6818 306.856 41.0625ZM323.474 39H322.417C322.355 38.696 322.245 38.429 322.089 38.1989C321.936 37.9688 321.748 37.7756 321.527 37.6193C321.308 37.4602 321.065 37.3409 320.798 37.2614C320.531 37.1818 320.252 37.142 319.963 37.142C319.434 37.142 318.956 37.2756 318.527 37.5426C318.1 37.8097 317.761 38.2031 317.508 38.723C317.258 39.2429 317.133 39.8807 317.133 40.6364C317.133 41.392 317.258 42.0298 317.508 42.5497C317.761 43.0696 318.1 43.4631 318.527 43.7301C318.956 43.9972 319.434 44.1307 319.963 44.1307C320.252 44.1307 320.531 44.0909 320.798 44.0114C321.065 43.9318 321.308 43.8139 321.527 43.6577C321.748 43.4986 321.936 43.304 322.089 43.0739C322.245 42.8409 322.355 42.5739 322.417 42.2727H323.474C323.395 42.7187 323.25 43.1179 323.039 43.4702C322.829 43.8224 322.568 44.1222 322.255 44.3693C321.943 44.6136 321.592 44.7997 321.203 44.9276C320.816 45.0554 320.403 45.1193 319.963 45.1193C319.218 45.1193 318.556 44.9375 317.977 44.5739C317.397 44.2102 316.941 43.6932 316.609 43.0227C316.277 42.3523 316.11 41.5568 316.11 40.6364C316.11 39.7159 316.277 38.9205 316.609 38.25C316.941 37.5795 317.397 37.0625 317.977 36.6989C318.556 36.3352 319.218 36.1534 319.963 36.1534C320.403 36.1534 320.816 36.2173 321.203 36.3452C321.592 36.473 321.943 36.6605 322.255 36.9077C322.568 37.152 322.829 37.4503 323.039 37.8026C323.25 38.152 323.395 38.5511 323.474 39ZM327.79 45.1364C327.159 45.1364 326.615 44.9972 326.158 44.7188C325.703 44.4375 325.352 44.0455 325.105 43.5426C324.861 43.0369 324.739 42.4489 324.739 41.7784C324.739 41.108 324.861 40.517 325.105 40.0057C325.352 39.4915 325.696 39.0909 326.136 38.804C326.58 38.5142 327.097 38.3693 327.688 38.3693C328.028 38.3693 328.365 38.4261 328.697 38.5398C329.03 38.6534 329.332 38.8381 329.605 39.0938C329.878 39.3466 330.095 39.6818 330.257 40.0994C330.419 40.517 330.5 41.0312 330.5 41.642V42.0682H325.455V41.1989H329.477C329.477 40.8295 329.403 40.5 329.256 40.2102C329.111 39.9205 328.903 39.6918 328.634 39.5241C328.366 39.3565 328.051 39.2727 327.688 39.2727C327.287 39.2727 326.94 39.3722 326.648 39.571C326.358 39.767 326.135 40.0227 325.979 40.3381C325.822 40.6534 325.744 40.9915 325.744 41.3523V41.9318C325.744 42.4261 325.83 42.8452 326 43.1889C326.173 43.5298 326.413 43.7898 326.72 43.9688C327.027 44.1449 327.384 44.233 327.79 44.233C328.054 44.233 328.293 44.196 328.506 44.1222C328.722 44.0455 328.908 43.9318 329.064 43.7812C329.22 43.6278 329.341 43.4375 329.426 43.2102L330.398 43.483C330.295 43.8125 330.124 44.1023 329.882 44.3523C329.641 44.5994 329.342 44.7926 328.987 44.9318C328.632 45.0682 328.233 45.1364 327.79 45.1364ZM333.036 41.0625V45H332.03V38.4545H333.001V39.4773H333.087C333.24 39.1449 333.473 38.8778 333.786 38.6761C334.098 38.4716 334.501 38.3693 334.996 38.3693C335.439 38.3693 335.827 38.4602 336.159 38.642C336.491 38.821 336.75 39.0938 336.935 39.4602C337.119 39.8239 337.212 40.2841 337.212 40.8409V45H336.206V40.9091C336.206 40.3949 336.072 39.9943 335.805 39.7074C335.538 39.4176 335.172 39.2727 334.706 39.2727C334.385 39.2727 334.098 39.3423 333.845 39.4815C333.595 39.6207 333.398 39.8239 333.253 40.0909C333.108 40.358 333.036 40.6818 333.036 41.0625ZM341.896 38.4545V39.3068H338.504V38.4545H341.896ZM339.493 36.8864H340.498V43.125C340.498 43.4091 340.539 43.6222 340.622 43.7642C340.707 43.9034 340.815 43.9972 340.946 44.0455C341.079 44.0909 341.22 44.1136 341.368 44.1136C341.478 44.1136 341.569 44.108 341.64 44.0966C341.711 44.0824 341.768 44.071 341.811 44.0625L342.015 44.9659C341.947 44.9915 341.852 45.017 341.73 45.0426C341.608 45.071 341.453 45.0852 341.265 45.0852C340.981 45.0852 340.703 45.0241 340.43 44.902C340.16 44.7798 339.936 44.5938 339.757 44.3438C339.581 44.0938 339.493 43.7784 339.493 43.3977V36.8864ZM343.409 45V38.4545H344.38V39.4432H344.449C344.568 39.1193 344.784 38.8565 345.096 38.6548C345.409 38.4531 345.761 38.3523 346.153 38.3523C346.227 38.3523 346.319 38.3537 346.43 38.3565C346.541 38.3594 346.625 38.3636 346.681 38.3693V39.392C346.647 39.3835 346.569 39.3707 346.447 39.3537C346.328 39.3338 346.201 39.3239 346.068 39.3239C345.75 39.3239 345.466 39.3906 345.216 39.5241C344.968 39.6548 344.772 39.8366 344.627 40.0696C344.485 40.2997 344.414 40.5625 344.414 40.858V45H343.409ZM350.333 45.1364C349.743 45.1364 349.224 44.9957 348.778 44.7145C348.335 44.4332 347.988 44.0398 347.738 43.5341C347.491 43.0284 347.368 42.4375 347.368 41.7614C347.368 41.0795 347.491 40.4844 347.738 39.9759C347.988 39.4673 348.335 39.0724 348.778 38.7912C349.224 38.5099 349.743 38.3693 350.333 38.3693C350.924 38.3693 351.441 38.5099 351.885 38.7912C352.331 39.0724 352.677 39.4673 352.924 39.9759C353.174 40.4844 353.299 41.0795 353.299 41.7614C353.299 42.4375 353.174 43.0284 352.924 43.5341C352.677 44.0398 352.331 44.4332 351.885 44.7145C351.441 44.9957 350.924 45.1364 350.333 45.1364ZM350.333 44.233C350.782 44.233 351.152 44.1179 351.441 43.8878C351.731 43.6577 351.946 43.3551 352.085 42.9801C352.224 42.6051 352.294 42.1989 352.294 41.7614C352.294 41.3239 352.224 40.9162 352.085 40.5384C351.946 40.1605 351.731 39.8551 351.441 39.6222C351.152 39.3892 350.782 39.2727 350.333 39.2727C349.885 39.2727 349.515 39.3892 349.225 39.6222C348.936 39.8551 348.721 40.1605 348.582 40.5384C348.443 40.9162 348.373 41.3239 348.373 41.7614C348.373 42.1989 348.443 42.6051 348.582 42.9801C348.721 43.3551 348.936 43.6577 349.225 43.8878C349.515 44.1179 349.885 44.233 350.333 44.233ZM354.835 45V38.4545H355.84V45H354.835ZM355.346 37.3636C355.15 37.3636 354.981 37.2969 354.839 37.1634C354.7 37.0298 354.63 36.8693 354.63 36.6818C354.63 36.4943 354.7 36.3338 354.839 36.2003C354.981 36.0668 355.15 36 355.346 36C355.542 36 355.71 36.0668 355.849 36.2003C355.991 36.3338 356.062 36.4943 356.062 36.6818C356.062 36.8693 355.991 37.0298 355.849 37.1634C355.71 37.2969 355.542 37.3636 355.346 37.3636ZM360.154 45.1364C359.608 45.1364 359.127 44.9986 358.709 44.723C358.292 44.4446 357.965 44.0526 357.729 43.5469C357.493 43.0384 357.375 42.4375 357.375 41.7443C357.375 41.0568 357.493 40.4602 357.729 39.9545C357.965 39.4489 358.293 39.0582 358.713 38.7827C359.134 38.5071 359.62 38.3693 360.171 38.3693C360.597 38.3693 360.934 38.4403 361.181 38.5824C361.431 38.7216 361.621 38.8807 361.752 39.0597C361.885 39.2358 361.989 39.3807 362.063 39.4943H362.148V36.2727H363.154V45H362.182V43.9943H362.063C361.989 44.1136 361.884 44.2642 361.748 44.446C361.611 44.625 361.417 44.7855 361.164 44.9276C360.911 45.0668 360.574 45.1364 360.154 45.1364ZM360.29 44.233C360.694 44.233 361.034 44.1278 361.313 43.9176C361.591 43.7045 361.803 43.4105 361.948 43.0355C362.093 42.6577 362.165 42.2216 362.165 41.7273C362.165 41.2386 362.094 40.8111 361.952 40.4446C361.81 40.0753 361.6 39.7884 361.321 39.5838C361.043 39.3764 360.699 39.2727 360.29 39.2727C359.864 39.2727 359.509 39.3821 359.225 39.6009C358.944 39.8168 358.732 40.1108 358.59 40.483C358.451 40.8523 358.381 41.267 358.381 41.7273C358.381 42.1932 358.452 42.6165 358.594 42.9972C358.739 43.375 358.952 43.6761 359.233 43.9006C359.517 44.1222 359.87 44.233 360.29 44.233Z" fill="black"/>
<path d="M202.743 129.966C203.277 130.108 203.825 129.79 203.966 129.257L206.277 120.558C206.419 120.025 206.101 119.477 205.567 119.335C205.033 119.193 204.486 119.511 204.344 120.045L202.29 127.777L194.558 125.723C194.025 125.581 193.477 125.899 193.335 126.433C193.193 126.967 193.511 127.514 194.045 127.656L202.743 129.966ZM156 48L155.135 48.5019L202.135 129.502L203 129L203.865 128.498L156.865 47.4981L156 48Z" fill="white" fill-opacity="0.5"/>
<path d="M268.337 125.941C267.818 126.128 267.245 125.857 267.059 125.337L264.022 116.865C263.835 116.346 264.105 115.773 264.625 115.587C265.145 115.4 265.718 115.671 265.904 116.19L268.604 123.721L276.135 121.022C276.654 120.835 277.227 121.105 277.413 121.625C277.6 122.145 277.329 122.718 276.81 122.904L268.337 125.941ZM302 53L302.904 53.427L268.904 125.427L268 125L267.096 124.573L301.096 52.573L302 53Z" fill="white" fill-opacity="0.5"/>
<path d="M109.392 125.92C108.884 126.136 108.296 125.9 108.08 125.392L104.553 117.112C104.337 116.604 104.573 116.016 105.081 115.8C105.589 115.583 106.177 115.82 106.393 116.328L109.528 123.688L116.888 120.553C117.396 120.337 117.984 120.573 118.2 121.081C118.417 121.589 118.18 122.177 117.672 122.393L109.392 125.92ZM140 48L140.928 48.3735L109.928 125.373L109 125L108.072 124.627L139.072 47.6265L140 48Z" fill="white" fill-opacity="0.5"/>
<path d="M391.667 175C391.667 177.946 394.054 180.333 397 180.333C399.946 180.333 402.333 177.946 402.333 175C402.333 172.054 399.946 169.667 397 169.667C394.054 169.667 391.667 172.054 391.667 175ZM423 236L423.92 235.608L397.92 174.608L397 175L396.08 175.392L422.08 236.392L423 236Z" fill="white" fill-opacity="0.5"/>
<path d="M381.995 136V152" stroke="#1BFF8D" stroke-width="4"/>
<path d="M390 143.995L374 143.995" stroke="#1BFF8D" stroke-width="4"/>
<path d="M102.995 124V140" stroke="#1BFF8D" stroke-width="4"/>
<path d="M111 131.995L95 131.995" stroke="#1BFF8D" stroke-width="4"/>
<path d="M311.995 147V163" stroke="#1BFF8D" stroke-width="4"/>
<path d="M320 154.995L304 154.995" stroke="#1BFF8D" stroke-width="4"/>
<path d="M443.995 127V143" stroke="#1BFF8D" stroke-width="4"/>
<path d="M452 134.995L436 134.995" stroke="#1BFF8D" stroke-width="4"/>
<path d="M211.995 132V148" stroke="#1BFF8D" stroke-width="4"/>
<path d="M220 139.995L204 139.995" stroke="#1BFF8D" stroke-width="4"/>
</svg>
