<svg width="300" height="312" viewBox="0 0 300 312" fill="none" xmlns="http://www.w3.org/2000/svg">
<rect width="300" height="312" fill="#BDBDBD"/>
<path d="M72 124.846L0 154.487V287H300V133.564L240 117L147 137.923L72 124.846Z" fill="#7888B1"/>
<rect width="300" height="26" transform="translate(0 286)" fill="#756341"/>
<path d="M31.0568 278V269.273H36.2898V270.21H32.1136V273.159H35.8977V274.097H32.1136V278H31.0568ZM37.6183 280V274.764H39.5359C39.9075 274.764 40.2151 274.825 40.4589 274.948C40.7026 275.069 40.885 275.233 41.006 275.441C41.1271 275.647 41.1876 275.88 41.1876 276.139C41.1876 276.357 41.1475 276.541 41.0674 276.691C40.9873 276.84 40.8799 276.959 40.7452 277.049C40.6123 277.138 40.4657 277.203 40.3055 277.244V277.295C40.4793 277.303 40.6489 277.36 40.8143 277.464C40.9813 277.566 41.1194 277.712 41.2285 277.901C41.3376 278.09 41.3921 278.32 41.3921 278.591C41.3921 278.859 41.329 279.099 41.2029 279.312C41.0785 279.524 40.8859 279.691 40.6251 279.816C40.3643 279.939 40.031 280 39.6254 280H37.6183ZM38.4083 279.322H39.5487C39.9271 279.322 40.1981 279.249 40.3617 279.103C40.5254 278.956 40.6072 278.773 40.6072 278.553C40.6072 278.387 40.5654 278.236 40.4819 278.098C40.3984 277.96 40.279 277.85 40.1239 277.768C39.9705 277.686 39.7881 277.645 39.5768 277.645H38.4083V279.322ZM38.4083 277.029H39.4668C39.6441 277.029 39.8035 276.995 39.945 276.927C40.0881 276.859 40.2015 276.763 40.285 276.64C40.3702 276.516 40.4129 276.369 40.4129 276.201C40.4129 275.984 40.337 275.803 40.1853 275.656C40.0336 275.509 39.8009 275.436 39.4873 275.436H38.4083V277.029ZM46.6745 273.79V272.869H51.9245V273.79H46.6745ZM46.6745 276.312V275.392H51.9245V276.312H46.6745ZM61.3005 273.168V274.105H57.4823V273.168H61.3005ZM69.1723 272C69.0786 271.713 68.955 271.456 68.8016 271.229C68.651 270.999 68.4706 270.803 68.2604 270.641C68.053 270.479 67.8172 270.355 67.553 270.27C67.2888 270.185 66.999 270.142 66.6837 270.142C66.1666 270.142 65.6965 270.276 65.2732 270.543C64.8499 270.81 64.5132 271.203 64.2632 271.723C64.0132 272.243 63.8882 272.881 63.8882 273.636C63.8882 274.392 64.0147 275.03 64.2675 275.55C64.5203 276.07 64.8627 276.463 65.2945 276.73C65.7263 276.997 66.2121 277.131 66.7519 277.131C67.2519 277.131 67.6922 277.024 68.0729 276.811C68.4564 276.595 68.7547 276.291 68.9678 275.899C69.1837 275.504 69.2916 275.04 69.2916 274.506L69.6155 274.574H66.9905V273.636H70.3144V274.574C70.3144 275.293 70.161 275.918 69.8541 276.449C69.5502 276.98 69.1297 277.392 68.5928 277.685C68.0587 277.974 67.445 278.119 66.7519 278.119C65.9791 278.119 65.3002 277.938 64.7149 277.574C64.1325 277.21 63.678 276.693 63.3513 276.023C63.0274 275.352 62.8655 274.557 62.8655 273.636C62.8655 272.946 62.9578 272.325 63.1425 271.774C63.33 271.22 63.5942 270.749 63.9351 270.359C64.276 269.97 64.6794 269.672 65.1453 269.464C65.6112 269.257 66.124 269.153 66.6837 269.153C67.1439 269.153 67.5729 269.223 67.9706 269.362C68.3712 269.499 68.7277 269.693 69.0402 269.946C69.3556 270.196 69.6183 270.496 69.8286 270.845C70.0388 271.192 70.1837 271.577 70.2632 272H69.1723ZM77.0335 274.182L77.1017 272.307L75.5164 273.312L75.1073 272.597L76.7778 271.727L75.1073 270.858L75.5164 270.142L77.1017 271.148L77.0335 269.273H77.8517L77.7835 271.148L79.3687 270.142L79.7778 270.858L78.1073 271.727L79.7778 272.597L79.3687 273.312L77.7835 272.307L77.8517 274.182H77.0335ZM84.8744 278V269.273H90.1073V270.21H85.9312V273.159H89.7153V274.097H85.9312V278H84.8744ZM91.3745 280V276.073H92.1083V276.712H92.1568C92.2387 276.495 92.3725 276.327 92.5583 276.206C92.7441 276.083 92.9665 276.022 93.2256 276.022C93.4881 276.022 93.708 276.083 93.8852 276.206C94.0642 276.328 94.1963 276.497 94.2816 276.712H94.3225C94.4162 276.502 94.5654 276.335 94.7699 276.211C94.9745 276.085 95.2182 276.022 95.5012 276.022C95.8574 276.022 96.148 276.133 96.373 276.357C96.5997 276.58 96.7131 276.916 96.7131 277.366V280H95.9486V277.438C95.9486 277.172 95.8762 276.98 95.7313 276.86C95.5864 276.741 95.4134 276.681 95.2122 276.681C94.9634 276.681 94.7699 276.758 94.6318 276.911C94.4938 277.063 94.4247 277.258 94.4247 277.497V280H93.6628V277.389C93.6628 277.176 93.5963 277.005 93.4634 276.876C93.3304 276.746 93.1574 276.681 92.9443 276.681C92.7995 276.681 92.6656 276.72 92.5429 276.796C92.4219 276.871 92.3239 276.976 92.2489 277.111C92.1756 277.245 92.1389 277.401 92.1389 277.579V280H91.3745ZM99.0966 280.087C98.8478 280.087 98.6228 280.041 98.4216 279.949C98.2205 279.855 98.0611 279.72 97.9435 279.542C97.8276 279.365 97.7696 279.148 97.7696 278.89C97.7696 278.669 97.8123 278.486 97.8975 278.343C97.9827 278.2 98.0978 278.087 98.2427 278.003C98.3875 277.92 98.5495 277.857 98.7284 277.814C98.9074 277.771 99.0898 277.739 99.2756 277.717C99.5108 277.689 99.7017 277.667 99.8483 277.65C99.9949 277.632 100.101 277.602 100.168 277.561C100.234 277.52 100.268 277.453 100.268 277.361V277.343C100.268 277.12 100.205 276.947 100.078 276.824C99.954 276.702 99.7682 276.64 99.5211 276.64C99.2637 276.64 99.0608 276.697 98.9125 276.812C98.7659 276.924 98.6645 277.049 98.6083 277.187L97.8898 277.024C97.975 276.785 98.0995 276.593 98.2631 276.446C98.4284 276.298 98.6185 276.19 98.8333 276.124C99.0481 276.056 99.2739 276.022 99.5108 276.022C99.6677 276.022 99.8338 276.04 100.009 276.078C100.187 276.114 100.352 276.18 100.505 276.277C100.661 276.374 100.788 276.513 100.886 276.694C100.985 276.873 101.035 277.106 101.035 277.392V280H100.288V279.463H100.257C100.208 279.562 100.134 279.659 100.035 279.755C99.9361 279.85 99.8091 279.929 99.654 279.992C99.4989 280.055 99.3131 280.087 99.0966 280.087ZM99.2628 279.473C99.4742 279.473 99.6549 279.432 99.8049 279.348C99.9566 279.264 100.072 279.155 100.15 279.021C100.23 278.884 100.27 278.739 100.27 278.584V278.077C100.243 278.105 100.19 278.13 100.112 278.154C100.035 278.176 99.9472 278.196 99.8483 278.213C99.7495 278.228 99.6532 278.243 99.5594 278.256C99.4657 278.268 99.3873 278.278 99.3242 278.287C99.1759 278.306 99.0404 278.337 98.9177 278.382C98.7966 278.426 98.6995 278.49 98.6262 278.573C98.5546 278.655 98.5188 278.764 98.5188 278.901C98.5188 279.09 98.5887 279.233 98.7284 279.33C98.8682 279.426 99.0463 279.473 99.2628 279.473ZM102.872 276.073L103.739 277.602L104.614 276.073H105.45L104.225 278.036L105.46 280H104.624L103.739 278.532L102.857 280H102.018L103.241 278.036L102.034 276.073H102.872Z" fill="black"/>
<path d="M230.057 155V146.273H235.29V147.21H231.114V150.159H234.898V151.097H231.114V155H230.057ZM236.618 157V151.764H238.536C238.907 151.764 239.215 151.825 239.459 151.948C239.703 152.069 239.885 152.233 240.006 152.441C240.127 152.647 240.188 152.88 240.188 153.139C240.188 153.357 240.148 153.541 240.067 153.691C239.987 153.84 239.88 153.959 239.745 154.049C239.612 154.138 239.466 154.203 239.305 154.244V154.295C239.479 154.303 239.649 154.36 239.814 154.464C239.981 154.566 240.119 154.712 240.228 154.901C240.338 155.09 240.392 155.32 240.392 155.591C240.392 155.859 240.329 156.099 240.203 156.312C240.078 156.524 239.886 156.691 239.625 156.816C239.364 156.939 239.031 157 238.625 157H236.618ZM237.408 156.322H238.549C238.927 156.322 239.198 156.249 239.362 156.103C239.525 155.956 239.607 155.773 239.607 155.553C239.607 155.387 239.565 155.236 239.482 155.098C239.398 154.96 239.279 154.85 239.124 154.768C238.971 154.686 238.788 154.645 238.577 154.645H237.408V156.322ZM237.408 154.029H238.467C238.644 154.029 238.803 153.995 238.945 153.927C239.088 153.859 239.201 153.763 239.285 153.64C239.37 153.516 239.413 153.369 239.413 153.201C239.413 152.984 239.337 152.803 239.185 152.656C239.034 152.509 238.801 152.436 238.487 152.436H237.408V154.029ZM245.674 149.835V148.915H250.924V149.835H245.674ZM245.674 152.358V151.438H250.924V152.358H245.674ZM259.38 155.119C258.738 155.119 258.191 154.945 257.739 154.595C257.288 154.243 256.943 153.733 256.704 153.065C256.465 152.395 256.346 151.585 256.346 150.636C256.346 149.693 256.465 148.888 256.704 148.22C256.945 147.55 257.292 147.038 257.744 146.686C258.198 146.331 258.744 146.153 259.38 146.153C260.016 146.153 260.56 146.331 261.012 146.686C261.467 147.038 261.813 147.55 262.052 148.22C262.293 148.888 262.414 149.693 262.414 150.636C262.414 151.585 262.295 152.395 262.056 153.065C261.818 153.733 261.472 154.243 261.021 154.595C260.569 154.945 260.022 155.119 259.38 155.119ZM259.38 154.182C260.016 154.182 260.511 153.875 260.863 153.261C261.215 152.648 261.391 151.773 261.391 150.636C261.391 149.881 261.31 149.237 261.149 148.706C260.989 148.175 260.759 147.77 260.458 147.491C260.16 147.213 259.801 147.074 259.38 147.074C258.749 147.074 258.256 147.385 257.901 148.007C257.546 148.626 257.369 149.503 257.369 150.636C257.369 151.392 257.448 152.034 257.607 152.562C257.766 153.091 257.995 153.493 258.293 153.768C258.595 154.044 258.957 154.182 259.38 154.182Z" fill="black"/>
<path d="M93.0568 85V76.2727H98.2898V77.2102H94.1136V80.1591H97.8977V81.0966H94.1136V85H93.0568ZM99.6183 87V81.7636H101.536C101.907 81.7636 102.215 81.825 102.459 81.9477C102.703 82.0687 102.885 82.2332 103.006 82.4412C103.127 82.6474 103.188 82.8801 103.188 83.1392C103.188 83.3574 103.148 83.5415 103.067 83.6915C102.987 83.8398 102.88 83.9591 102.745 84.0494C102.612 84.1381 102.466 84.2028 102.305 84.2437V84.2949C102.479 84.3034 102.649 84.3597 102.814 84.4636C102.981 84.5659 103.119 84.7116 103.228 84.9009C103.338 85.0901 103.392 85.3202 103.392 85.5912C103.392 85.8588 103.329 86.0991 103.203 86.3122C103.078 86.5236 102.886 86.6915 102.625 86.8159C102.364 86.9386 102.031 87 101.625 87H99.6183ZM100.408 86.3224H101.549C101.927 86.3224 102.198 86.2491 102.362 86.1026C102.525 85.956 102.607 85.7727 102.607 85.5528C102.607 85.3875 102.565 85.2358 102.482 85.0977C102.398 84.9597 102.279 84.8497 102.124 84.7679C101.971 84.6861 101.788 84.6452 101.577 84.6452H100.408V86.3224ZM100.408 84.029H101.467C101.644 84.029 101.803 83.9949 101.945 83.9267C102.088 83.8585 102.201 83.7631 102.285 83.6403C102.37 83.5159 102.413 83.3693 102.413 83.2006C102.413 82.9841 102.337 82.8026 102.185 82.656C102.034 82.5094 101.801 82.4361 101.487 82.4361H100.408V84.029ZM108.674 80.7898V79.8693H113.924V80.7898H108.674ZM108.674 83.3125V82.392H113.924V83.3125H108.674ZM123.301 80.1676V81.1051H119.482V80.1676H123.301ZM131.172 79C131.079 78.7131 130.955 78.456 130.802 78.2287C130.651 77.9986 130.471 77.8026 130.26 77.6406C130.053 77.4787 129.817 77.3551 129.553 77.2699C129.289 77.1847 128.999 77.142 128.684 77.142C128.167 77.142 127.696 77.2756 127.273 77.5426C126.85 77.8097 126.513 78.2031 126.263 78.723C126.013 79.2429 125.888 79.8807 125.888 80.6364C125.888 81.392 126.015 82.0298 126.267 82.5497C126.52 83.0696 126.863 83.4631 127.294 83.7301C127.726 83.9972 128.212 84.1307 128.752 84.1307C129.252 84.1307 129.692 84.0241 130.073 83.8111C130.456 83.5952 130.755 83.2912 130.968 82.8991C131.184 82.5043 131.292 82.0398 131.292 81.5057L131.616 81.5739H128.991V80.6364H132.314V81.5739C132.314 82.2926 132.161 82.9176 131.854 83.4489C131.55 83.9801 131.13 84.392 130.593 84.6847C130.059 84.9744 129.445 85.1193 128.752 85.1193C127.979 85.1193 127.3 84.9375 126.715 84.5739C126.133 84.2102 125.678 83.6932 125.351 83.0227C125.027 82.3523 124.866 81.5568 124.866 80.6364C124.866 79.946 124.958 79.3253 125.142 78.7741C125.33 78.2202 125.594 77.7486 125.935 77.3594C126.276 76.9702 126.679 76.6719 127.145 76.4645C127.611 76.2571 128.124 76.1534 128.684 76.1534C129.144 76.1534 129.573 76.223 129.971 76.3622C130.371 76.4986 130.728 76.6932 131.04 76.946C131.356 77.196 131.618 77.4957 131.829 77.8452C132.039 78.1918 132.184 78.5767 132.263 79H131.172ZM139.033 81.1818L139.102 79.3068L137.516 80.3125L137.107 79.5966L138.778 78.7273L137.107 77.858L137.516 77.142L139.102 78.1477L139.033 76.2727H139.852L139.783 78.1477L141.369 77.142L141.778 77.858L140.107 78.7273L141.778 79.5966L141.369 80.3125L139.783 79.3068L139.852 81.1818H139.033ZM146.874 85V76.2727H152.107V77.2102H147.931V80.1591H151.715V81.0966H147.931V85H146.874ZM153.374 87V83.0727H154.108V83.7119H154.157C154.239 83.4955 154.372 83.3267 154.558 83.2057C154.744 83.083 154.966 83.0216 155.226 83.0216C155.488 83.0216 155.708 83.083 155.885 83.2057C156.064 83.3284 156.196 83.4972 156.282 83.7119H156.322C156.416 83.5023 156.565 83.3352 156.77 83.2108C156.974 83.0847 157.218 83.0216 157.501 83.0216C157.857 83.0216 158.148 83.1332 158.373 83.3565C158.6 83.5798 158.713 83.9165 158.713 84.3665V87H157.949V84.4381C157.949 84.1722 157.876 83.9795 157.731 83.8602C157.586 83.7409 157.413 83.6812 157.212 83.6812C156.963 83.6812 156.77 83.758 156.632 83.9114C156.494 84.0631 156.425 84.2582 156.425 84.4969V87H155.663V84.3895C155.663 84.1764 155.596 84.0051 155.463 83.8756C155.33 83.746 155.157 83.6812 154.944 83.6812C154.799 83.6812 154.666 83.7196 154.543 83.7963C154.422 83.8713 154.324 83.9761 154.249 84.1108C154.176 84.2455 154.139 84.4014 154.139 84.5787V87H153.374ZM161.097 87.0869C160.848 87.0869 160.623 87.0409 160.422 86.9489C160.22 86.8551 160.061 86.7196 159.944 86.5423C159.828 86.3651 159.77 86.1477 159.77 85.8903C159.77 85.6687 159.812 85.4864 159.897 85.3432C159.983 85.2 160.098 85.0866 160.243 85.0031C160.388 84.9196 160.549 84.8565 160.728 84.8139C160.907 84.7713 161.09 84.7389 161.276 84.7168C161.511 84.6895 161.702 84.6673 161.848 84.6503C161.995 84.6315 162.101 84.6017 162.168 84.5608C162.234 84.5199 162.268 84.4534 162.268 84.3614V84.3435C162.268 84.1202 162.205 83.9472 162.078 83.8244C161.954 83.7017 161.768 83.6403 161.521 83.6403C161.264 83.6403 161.061 83.6974 160.913 83.8116C160.766 83.9241 160.665 84.0494 160.608 84.1875L159.89 84.0239C159.975 83.7852 160.099 83.5926 160.263 83.446C160.428 83.2977 160.619 83.1903 160.833 83.1239C161.048 83.0557 161.274 83.0216 161.511 83.0216C161.668 83.0216 161.834 83.0403 162.009 83.0778C162.187 83.1136 162.352 83.1801 162.505 83.2773C162.661 83.3744 162.788 83.5134 162.886 83.694C162.985 83.873 163.035 84.1057 163.035 84.392V87H162.288V86.4631H162.257C162.208 86.5619 162.134 86.6591 162.035 86.7545C161.936 86.85 161.809 86.9293 161.654 86.9923C161.499 87.0554 161.313 87.0869 161.097 87.0869ZM161.263 86.4733C161.474 86.4733 161.655 86.4315 161.805 86.348C161.957 86.2645 162.072 86.1554 162.15 86.0207C162.23 85.8844 162.27 85.7386 162.27 85.5835V85.0773C162.243 85.1045 162.19 85.1301 162.112 85.154C162.035 85.1761 161.947 85.1957 161.848 85.2128C161.749 85.2281 161.653 85.2426 161.559 85.2562C161.466 85.2682 161.387 85.2784 161.324 85.2869C161.176 85.3057 161.04 85.3372 160.918 85.3815C160.797 85.4259 160.699 85.4898 160.626 85.5733C160.555 85.6551 160.519 85.7642 160.519 85.9006C160.519 86.0898 160.589 86.233 160.728 86.3301C160.868 86.4256 161.046 86.4733 161.263 86.4733ZM164.872 83.0727L165.739 84.6017L166.614 83.0727H167.45L166.225 85.0364L167.46 87H166.624L165.739 85.5324L164.857 87H164.018L165.241 85.0364L164.034 83.0727H164.872ZM171.942 75.8636L169.13 86.3125H168.209L171.022 75.8636H171.942ZM178.044 78.4545C177.992 78.0227 177.785 77.6875 177.421 77.4489C177.058 77.2102 176.612 77.0909 176.083 77.0909C175.697 77.0909 175.359 77.1534 175.069 77.2784C174.782 77.4034 174.558 77.5753 174.396 77.794C174.237 78.0128 174.157 78.2614 174.157 78.5398C174.157 78.7727 174.213 78.973 174.323 79.1406C174.437 79.3054 174.582 79.4432 174.758 79.554C174.934 79.6619 175.119 79.7514 175.312 79.8224C175.505 79.8906 175.683 79.946 175.845 79.9886L176.731 80.2273C176.958 80.2869 177.211 80.3693 177.49 80.4744C177.771 80.5795 178.039 80.723 178.295 80.9048C178.553 81.0838 178.767 81.3139 178.934 81.5952C179.102 81.8764 179.186 82.2216 179.186 82.6307C179.186 83.1023 179.062 83.5284 178.815 83.9091C178.571 84.2898 178.213 84.5923 177.741 84.8168C177.272 85.0412 176.703 85.1534 176.032 85.1534C175.407 85.1534 174.866 85.0526 174.409 84.8509C173.954 84.6491 173.596 84.3679 173.335 84.0071C173.076 83.6463 172.93 83.2273 172.896 82.75H173.987C174.015 83.0795 174.126 83.3523 174.319 83.5682C174.515 83.7812 174.762 83.9403 175.061 84.0455C175.362 84.1477 175.686 84.1989 176.032 84.1989C176.436 84.1989 176.798 84.1335 177.119 84.0028C177.44 83.8693 177.694 83.6847 177.882 83.4489C178.069 83.2102 178.163 82.9318 178.163 82.6136C178.163 82.3239 178.082 82.0881 177.92 81.9062C177.758 81.7244 177.545 81.5767 177.281 81.4631C177.017 81.3494 176.731 81.25 176.424 81.1648L175.35 80.858C174.669 80.6619 174.129 80.3821 173.731 80.0185C173.333 79.6548 173.134 79.179 173.134 78.5909C173.134 78.1023 173.267 77.6761 173.531 77.3125C173.798 76.946 174.156 76.6619 174.605 76.4602C175.056 76.2557 175.561 76.1534 176.117 76.1534C176.68 76.1534 177.18 76.2543 177.617 76.456C178.055 76.6548 178.401 76.9276 178.657 77.2741C178.916 77.6207 179.052 78.0142 179.066 78.4545H178.044ZM180.38 87V83.0727H181.119V83.6966H181.16C181.232 83.4852 181.358 83.319 181.538 83.198C181.721 83.0753 181.927 83.0139 182.157 83.0139C182.205 83.0139 182.261 83.0156 182.326 83.019C182.392 83.0224 182.444 83.0267 182.482 83.0318V83.7631C182.451 83.7545 182.397 83.7452 182.318 83.7349C182.24 83.723 182.162 83.717 182.083 83.717C181.902 83.717 181.741 83.7554 181.6 83.8321C181.46 83.9071 181.349 84.0119 181.267 84.1466C181.186 84.2795 181.145 84.4312 181.145 84.6017V87H180.38ZM184.467 87.0869C184.218 87.0869 183.993 87.0409 183.792 86.9489C183.591 86.8551 183.432 86.7196 183.314 86.5423C183.198 86.3651 183.14 86.1477 183.14 85.8903C183.14 85.6687 183.183 85.4864 183.268 85.3432C183.353 85.2 183.468 85.0866 183.613 85.0031C183.758 84.9196 183.92 84.8565 184.099 84.8139C184.278 84.7713 184.46 84.7389 184.646 84.7168C184.881 84.6895 185.072 84.6673 185.219 84.6503C185.366 84.6315 185.472 84.6017 185.539 84.5608C185.605 84.5199 185.638 84.4534 185.638 84.3614V84.3435C185.638 84.1202 185.575 83.9472 185.449 83.8244C185.325 83.7017 185.139 83.6403 184.892 83.6403C184.634 83.6403 184.431 83.6974 184.283 83.8116C184.137 83.9241 184.035 84.0494 183.979 84.1875L183.26 84.0239C183.346 83.7852 183.47 83.5926 183.634 83.446C183.799 83.2977 183.989 83.1903 184.204 83.1239C184.419 83.0557 184.645 83.0216 184.881 83.0216C185.038 83.0216 185.205 83.0403 185.38 83.0778C185.557 83.1136 185.723 83.1801 185.876 83.2773C186.031 83.3744 186.158 83.5134 186.257 83.694C186.356 83.873 186.405 84.1057 186.405 84.392V87H185.659V86.4631H185.628C185.579 86.5619 185.505 86.6591 185.406 86.7545C185.307 86.85 185.18 86.9293 185.025 86.9923C184.87 87.0554 184.684 87.0869 184.467 87.0869ZM184.633 86.4733C184.845 86.4733 185.026 86.4315 185.176 86.348C185.327 86.2645 185.442 86.1554 185.521 86.0207C185.601 85.8844 185.641 85.7386 185.641 85.5835V85.0773C185.614 85.1045 185.561 85.1301 185.482 85.154C185.406 85.1761 185.318 85.1957 185.219 85.2128C185.12 85.2281 185.024 85.2426 184.93 85.2562C184.836 85.2682 184.758 85.2784 184.695 85.2869C184.547 85.3057 184.411 85.3372 184.288 85.3815C184.167 85.4259 184.07 85.4898 183.997 85.5733C183.925 85.6551 183.889 85.7642 183.889 85.9006C183.889 86.0898 183.959 86.233 184.099 86.3301C184.239 86.4256 184.417 86.4733 184.633 86.4733ZM189.473 83.0727V83.6864H187.328V83.0727H189.473ZM187.903 82.1318H188.667V85.8469C188.667 85.9952 188.69 86.1068 188.734 86.1818C188.778 86.2551 188.835 86.3054 188.905 86.3327C188.977 86.3582 189.054 86.371 189.138 86.371C189.199 86.371 189.253 86.3668 189.299 86.3582C189.345 86.3497 189.381 86.3429 189.406 86.3378L189.544 86.9693C189.5 86.9864 189.437 87.0034 189.355 87.0205C189.273 87.0392 189.171 87.0494 189.048 87.0511C188.847 87.0545 188.66 87.0188 188.486 86.9437C188.312 86.8687 188.171 86.7528 188.064 86.596C187.957 86.4392 187.903 86.2423 187.903 86.0054V82.1318ZM190.535 87V83.0727H191.299V87H190.535ZM190.921 82.4668C190.788 82.4668 190.673 82.4224 190.578 82.3338C190.484 82.2435 190.437 82.1361 190.437 82.0116C190.437 81.8855 190.484 81.7781 190.578 81.6895C190.673 81.5991 190.788 81.554 190.921 81.554C191.054 81.554 191.167 81.5991 191.261 81.6895C191.356 81.7781 191.404 81.8855 191.404 82.0116C191.404 82.1361 191.356 82.2435 191.261 82.3338C191.167 82.4224 191.054 82.4668 190.921 82.4668ZM194.198 87.0793C193.83 87.0793 193.508 86.9949 193.234 86.8261C192.959 86.6574 192.746 86.4213 192.595 86.1179C192.443 85.8145 192.367 85.4599 192.367 85.0543C192.367 84.6469 192.443 84.2906 192.595 83.9855C192.746 83.6804 192.959 83.4435 193.234 83.2747C193.508 83.106 193.83 83.0216 194.198 83.0216C194.566 83.0216 194.887 83.106 195.162 83.2747C195.436 83.4435 195.649 83.6804 195.801 83.9855C195.953 84.2906 196.028 84.6469 196.028 85.0543C196.028 85.4599 195.953 85.8145 195.801 86.1179C195.649 86.4213 195.436 86.6574 195.162 86.8261C194.887 86.9949 194.566 87.0793 194.198 87.0793ZM194.2 86.4375C194.439 86.4375 194.637 86.3744 194.793 86.2483C194.95 86.1222 195.066 85.9543 195.141 85.7446C195.218 85.5349 195.256 85.304 195.256 85.0517C195.256 84.8011 195.218 84.571 195.141 84.3614C195.066 84.15 194.95 83.9804 194.793 83.8526C194.637 83.7247 194.439 83.6608 194.2 83.6608C193.96 83.6608 193.761 83.7247 193.602 83.8526C193.445 83.9804 193.328 84.15 193.252 84.3614C193.177 84.571 193.139 84.8011 193.139 85.0517C193.139 85.304 193.177 85.5349 193.252 85.7446C193.328 85.9543 193.445 86.1222 193.602 86.2483C193.761 86.3744 193.96 86.4375 194.2 86.4375Z" fill="black"/>
<circle cx="247.102" cy="34.6691" r="13.8764" fill="white"/>
<path d="M256.204 51.8218H237.816C236.976 51.8218 236.173 52.1642 235.592 52.7699L220.15 68.8553C218.965 70.0896 219.011 72.0526 220.253 73.2294L223.107 75.9332C224.335 77.0961 226.27 77.0536 227.445 75.8378L231.201 71.9526C233.128 69.9592 236.502 71.3233 236.502 74.0958V81.138C236.502 81.3797 236.473 81.6206 236.417 81.8556L229.659 110.102C229.28 111.685 230.196 113.289 231.751 113.767L235.801 115.014C237.527 115.544 239.337 114.486 239.721 112.723L243.692 94.4998C244.387 91.3073 248.919 91.2472 249.699 94.4202L254.228 112.845C254.65 114.56 256.423 115.572 258.114 115.061L262.417 113.762C263.987 113.288 264.912 111.668 264.521 110.075L257.598 81.8639C257.539 81.6234 257.509 81.3766 257.509 81.129V73.6642C257.509 70.9531 260.756 69.5615 262.719 71.4313L267.409 75.8972C268.645 77.0752 270.604 77.0233 271.777 75.7815L274.177 73.2403C275.31 72.0403 275.298 70.1607 274.149 68.976L258.418 52.7584C257.837 52.1597 257.038 51.8218 256.204 51.8218Z" fill="white"/>
<path d="M247.293 31.5854V37.7527" stroke="#756341" stroke-width="1.54182"/>
<path d="M250.378 34.6672L244.211 34.6672" stroke="#756341" stroke-width="1.54182"/>
<path d="M247.293 66.6618V72.8291" stroke="#756341" stroke-width="1.54182"/>
<path d="M250.378 69.7435L244.211 69.7435" stroke="#756341" stroke-width="1.54182"/>
<path d="M247.293 102.509V108.676" stroke="#756341" stroke-width="1.54182"/>
<path d="M250.378 105.591L244.211 105.591" stroke="#756341" stroke-width="1.54182"/>
<path d="M259.393 13.361L224.523 25.0518L231.798 32.8943L258.107 24.0737L259.393 13.361Z" fill="white"/>
<ellipse cx="242.806" cy="23.1283" rx="12.6285" ry="7.53277" transform="rotate(-18.5346 242.806 23.1283)" fill="white"/>
<circle cx="58.1018" cy="180.669" r="13.8764" fill="white"/>
<path d="M67.2042 197.822H48.8161C47.9765 197.822 47.1731 198.164 46.5916 198.77L31.1497 214.855C29.9648 216.09 30.0113 218.053 31.2534 219.229L34.1075 221.933C35.335 223.096 37.2701 223.054 38.4454 221.838L42.2011 217.953C44.128 215.959 47.5018 217.323 47.5018 220.096V227.138C47.5018 227.38 47.4734 227.621 47.4172 227.856L40.6587 256.102C40.2802 257.685 41.1959 259.289 42.7509 259.767L46.8015 261.014C48.5267 261.544 50.337 260.486 50.7213 258.723L54.6917 240.5C55.3873 237.307 59.9191 237.247 60.6991 240.42L65.2281 258.845C65.6497 260.56 67.423 261.572 69.1138 261.061L73.4173 259.762C74.9874 259.288 75.9118 257.668 75.5209 256.075L68.5979 227.864C68.5389 227.623 68.5091 227.377 68.5091 227.129V219.664C68.5091 216.953 71.7561 215.562 73.7194 217.431L78.4086 221.897C79.6455 223.075 81.6043 223.023 82.7771 221.781L85.1771 219.24C86.3104 218.04 86.2979 216.161 85.1486 214.976L69.4176 198.758C68.8369 198.16 68.0383 197.822 67.2042 197.822Z" fill="white"/>
<path d="M58.2926 177.585V183.753" stroke="#00E9FA" stroke-width="1.54182"/>
<path d="M61.3782 180.667L55.2109 180.667" stroke="#00E9FA" stroke-width="1.54182"/>
<path d="M58.2926 212.662V218.829" stroke="#00E9FA" stroke-width="1.54182"/>
<path d="M61.3782 215.744L55.2109 215.744" stroke="#00E9FA" stroke-width="1.54182"/>
<path d="M58.2926 248.509V254.676" stroke="#00E9FA" stroke-width="1.54182"/>
<path d="M61.3782 251.591L55.2109 251.591" stroke="#00E9FA" stroke-width="1.54182"/>
<path d="M70.3933 159.361L35.5232 171.052L42.798 178.894L69.1072 170.074L70.3933 159.361Z" fill="white"/>
<ellipse cx="53.8057" cy="169.128" rx="12.6285" ry="7.53277" transform="rotate(-18.5346 53.8057 169.128)" fill="white"/>
<circle cx="142.102" cy="125.669" r="13.8764" fill="white"/>
<path d="M151.204 142.822H132.816C131.976 142.822 131.173 143.164 130.592 143.77L115.15 159.855C113.965 161.09 114.011 163.053 115.253 164.229L118.107 166.933C119.335 168.096 121.27 168.054 122.445 166.838L126.201 162.953C128.128 160.959 131.502 162.323 131.502 165.096V172.138C131.502 172.38 131.473 172.621 131.417 172.856L124.659 201.102C124.28 202.685 125.196 204.289 126.751 204.767L130.801 206.014C132.527 206.544 134.337 205.486 134.721 203.723L138.692 185.5C139.387 182.307 143.919 182.247 144.699 185.42L149.228 203.845C149.65 205.56 151.423 206.572 153.114 206.061L157.417 204.762C158.987 204.288 159.912 202.668 159.521 201.075L152.598 172.864C152.539 172.623 152.509 172.377 152.509 172.129V164.664C152.509 161.953 155.756 160.562 157.719 162.431L162.409 166.897C163.645 168.075 165.604 168.023 166.777 166.781L169.177 164.24C170.31 163.04 170.298 161.161 169.149 159.976L153.418 143.758C152.837 143.16 152.038 142.822 151.204 142.822Z" fill="white"/>
<path d="M142.293 122.585V128.753" stroke="#756341" stroke-width="1.54182"/>
<path d="M145.378 125.667L139.211 125.667" stroke="#756341" stroke-width="1.54182"/>
<path d="M142.293 157.662V163.829" stroke="#00E9FA" stroke-width="1.54182"/>
<path d="M145.378 160.744L139.211 160.744" stroke="#00E9FA" stroke-width="1.54182"/>
<path d="M142.293 193.509V199.676" stroke="#00E9FA" stroke-width="1.54182"/>
<path d="M145.378 196.591L139.211 196.591" stroke="#00E9FA" stroke-width="1.54182"/>
<path d="M154.393 104.361L119.523 116.052L126.798 123.894L153.107 115.074L154.393 104.361Z" fill="white"/>
<ellipse cx="137.806" cy="114.128" rx="12.6285" ry="7.53277" transform="rotate(-18.5346 137.806 114.128)" fill="white"/>
<path d="M23.8295 16.4545C23.7784 16.0227 23.571 15.6875 23.2074 15.4489C22.8438 15.2102 22.3977 15.0909 21.8693 15.0909C21.483 15.0909 21.1449 15.1534 20.8551 15.2784C20.5682 15.4034 20.3438 15.5753 20.1818 15.794C20.0227 16.0128 19.9432 16.2614 19.9432 16.5398C19.9432 16.7727 19.9986 16.973 20.1094 17.1406C20.223 17.3054 20.3679 17.4432 20.544 17.554C20.7202 17.6619 20.9048 17.7514 21.098 17.8224C21.2912 17.8906 21.4688 17.946 21.6307 17.9886L22.517 18.2273C22.7443 18.2869 22.9972 18.3693 23.2756 18.4744C23.5568 18.5795 23.8253 18.723 24.081 18.9048C24.3395 19.0838 24.5526 19.3139 24.7202 19.5952C24.8878 19.8764 24.9716 20.2216 24.9716 20.6307C24.9716 21.1023 24.848 21.5284 24.6009 21.9091C24.3565 22.2898 23.9986 22.5923 23.527 22.8168C23.0582 23.0412 22.4886 23.1534 21.8182 23.1534C21.1932 23.1534 20.652 23.0526 20.1946 22.8509C19.7401 22.6491 19.3821 22.3679 19.1207 22.0071C18.8622 21.6463 18.7159 21.2273 18.6818 20.75H19.7727C19.8011 21.0795 19.9119 21.3523 20.1051 21.5682C20.3011 21.7812 20.5483 21.9403 20.8466 22.0455C21.1477 22.1477 21.4716 22.1989 21.8182 22.1989C22.2216 22.1989 22.5838 22.1335 22.9048 22.0028C23.2259 21.8693 23.4801 21.6847 23.6676 21.4489C23.8551 21.2102 23.9489 20.9318 23.9489 20.6136C23.9489 20.3239 23.8679 20.0881 23.706 19.9062C23.544 19.7244 23.331 19.5767 23.0668 19.4631C22.8026 19.3494 22.517 19.25 22.2102 19.1648L21.1364 18.858C20.4545 18.6619 19.9148 18.3821 19.517 18.0185C19.1193 17.6548 18.9205 17.179 18.9205 16.5909C18.9205 16.1023 19.0526 15.6761 19.3168 15.3125C19.5838 14.946 19.9418 14.6619 20.3906 14.4602C20.8423 14.2557 21.3466 14.1534 21.9034 14.1534C22.4659 14.1534 22.9659 14.2543 23.4034 14.456C23.8409 14.6548 24.1875 14.9276 24.4432 15.2741C24.7017 15.6207 24.8381 16.0142 24.8523 16.4545H23.8295ZM26.2148 24.5V20.1364H27.1012V20.8693H27.1353C27.2205 20.6136 27.3654 20.419 27.57 20.2855C27.7745 20.152 28.0046 20.0852 28.2603 20.0852C28.3796 20.0852 28.4833 20.098 28.5714 20.1236C28.6623 20.1463 28.7461 20.179 28.8228 20.2216L28.5501 20.9716C28.4904 20.946 28.4237 20.9261 28.3498 20.9119C28.2759 20.8949 28.2006 20.8864 28.1239 20.8864C27.8427 20.8864 27.604 20.9815 27.408 21.1719C27.2148 21.3622 27.1183 21.6023 27.1183 21.892V24.5H26.2148ZM30.6829 24.5852C30.4215 24.5852 30.1829 24.5355 29.967 24.4361C29.7539 24.3395 29.5835 24.1946 29.4556 24.0014C29.3306 23.8111 29.2681 23.5739 29.2681 23.2898C29.2681 23.0767 29.3065 22.8935 29.3832 22.7401C29.4627 22.5838 29.5749 22.4545 29.7198 22.3523C29.8675 22.25 30.0408 22.169 30.2397 22.1094C30.4414 22.0469 30.663 22.0028 30.9045 21.9773C31.1772 21.9489 31.3931 21.9233 31.5522 21.9006C31.7113 21.8778 31.8249 21.8423 31.8931 21.794C31.9613 21.7457 31.9954 21.6705 31.9954 21.5682V21.5C31.9954 21.2699 31.9229 21.0909 31.7781 20.9631C31.6332 20.8324 31.4329 20.767 31.1772 20.767C30.9386 20.767 30.7383 20.821 30.5763 20.929C30.4144 21.0369 30.3079 21.1761 30.2567 21.3466L29.4045 21.2443C29.4982 20.8949 29.6999 20.6151 30.0096 20.4048C30.3221 20.1918 30.717 20.0852 31.1942 20.0852C31.4954 20.0852 31.7766 20.1364 32.038 20.2386C32.2994 20.3381 32.511 20.4943 32.6729 20.7074C32.8349 20.9176 32.9158 21.1875 32.9158 21.517V24.5H32.0465V23.8352H32.0124C31.9102 24.0398 31.7482 24.2159 31.5266 24.3636C31.305 24.5114 31.0238 24.5852 30.6829 24.5852ZM30.9215 23.9375C31.1317 23.9375 31.3192 23.8906 31.484 23.7969C31.6488 23.7031 31.7781 23.5753 31.8718 23.4134C31.9656 23.2514 32.0124 23.0682 32.0124 22.8636V22.3352C31.967 22.3693 31.8874 22.4034 31.7738 22.4375C31.663 22.4688 31.5408 22.4972 31.4073 22.5227C31.2766 22.5455 31.1602 22.5625 31.0579 22.5739C30.7255 22.6165 30.4883 22.6946 30.3462 22.8082C30.207 22.9219 30.1374 23.0767 30.1374 23.2727C30.1374 23.4773 30.2127 23.6392 30.3633 23.7585C30.5138 23.8778 30.6999 23.9375 30.9215 23.9375ZM36.065 20.1364V20.8352H33.6957V20.1364H36.065ZM34.3093 19.0966H35.2127V23.2727C35.2127 23.4688 35.2638 23.6051 35.3661 23.6818C35.4712 23.7614 35.5962 23.8011 35.7411 23.8011C35.8008 23.8011 35.8533 23.7969 35.8988 23.7884C35.9442 23.7827 35.9883 23.7756 36.0309 23.767L36.1843 24.4659C36.1161 24.483 36.0394 24.5014 35.9542 24.5213C35.869 24.5412 35.7582 24.5511 35.6218 24.5511C35.2383 24.5597 34.9229 24.4688 34.6758 24.2784C34.4315 24.0881 34.3093 23.7926 34.3093 23.392V19.0966ZM37.0483 24.5V20.1364H37.9517V24.5H37.0483ZM37.5085 19.5398C37.3636 19.5398 37.2386 19.4886 37.1335 19.3864C37.0313 19.2841 36.9801 19.1648 36.9801 19.0284C36.9801 18.892 37.0313 18.7727 37.1335 18.6705C37.2386 18.5682 37.3636 18.517 37.5085 18.517C37.6449 18.517 37.7642 18.5682 37.8665 18.6705C37.9688 18.7727 38.0199 18.892 38.0199 19.0284C38.0199 19.1733 37.9688 19.2955 37.8665 19.3949C37.7642 19.4915 37.6449 19.5398 37.5085 19.5398ZM40.9229 24.5852C40.5138 24.5852 40.1559 24.4901 39.8491 24.2997C39.5423 24.1094 39.3036 23.8452 39.1332 23.5071C38.9627 23.169 38.8775 22.7784 38.8775 22.3352C38.8775 21.892 38.9627 21.5014 39.1332 21.1634C39.3036 20.8253 39.5423 20.5611 39.8491 20.3707C40.1559 20.1804 40.5138 20.0852 40.9229 20.0852C41.332 20.0852 41.69 20.1804 41.9968 20.3707C42.3036 20.5611 42.5423 20.8253 42.7127 21.1634C42.8832 21.5014 42.9684 21.892 42.9684 22.3352C42.9684 22.7784 42.8832 23.169 42.7127 23.5071C42.5423 23.8452 42.3036 24.1094 41.9968 24.2997C41.69 24.4901 41.332 24.5852 40.9229 24.5852ZM40.9229 23.8693C41.1559 23.8693 41.3562 23.8011 41.5238 23.6648C41.6914 23.5313 41.8207 23.348 41.9116 23.1151C42.0025 22.8849 42.0479 22.625 42.0479 22.3352C42.0479 22.0398 42.0025 21.7756 41.9116 21.5426C41.8207 21.3068 41.6914 21.1222 41.5238 20.9886C41.3562 20.8523 41.1559 20.7841 40.9229 20.7841C40.69 20.7841 40.4897 20.8523 40.3221 20.9886C40.1545 21.1222 40.0252 21.3068 39.9343 21.5426C39.8434 21.7756 39.7979 22.0398 39.7979 22.3352C39.7979 22.625 39.8434 22.8849 39.9343 23.1151C40.0252 23.348 40.1545 23.5313 40.3221 23.6648C40.4897 23.8011 40.69 23.8693 40.9229 23.8693ZM47.6197 23V16.4545H48.6254V23H47.6197ZM48.131 15.3636C47.935 15.3636 47.766 15.2969 47.6239 15.1634C47.4847 15.0298 47.4151 14.8693 47.4151 14.6818C47.4151 14.4943 47.4847 14.3338 47.6239 14.2003C47.766 14.0668 47.935 14 48.131 14C48.3271 14 48.4947 14.0668 48.6339 14.2003C48.7759 14.3338 48.8469 14.4943 48.8469 14.6818C48.8469 14.8693 48.7759 15.0298 48.6339 15.1634C48.4947 15.2969 48.3271 15.3636 48.131 15.3636ZM55.1037 17.9205L54.2003 18.1761C54.1435 18.0256 54.0597 17.8793 53.9489 17.7372C53.8409 17.5923 53.6932 17.473 53.5057 17.3793C53.3182 17.2855 53.0781 17.2386 52.7855 17.2386C52.3849 17.2386 52.0511 17.331 51.7841 17.5156C51.5199 17.6974 51.3878 17.929 51.3878 18.2102C51.3878 18.4602 51.4787 18.6577 51.6605 18.8026C51.8423 18.9474 52.1264 19.0682 52.5128 19.1648L53.4844 19.4034C54.0696 19.5455 54.5057 19.7628 54.7926 20.0554C55.0795 20.3452 55.223 20.7187 55.223 21.1761C55.223 21.5511 55.1151 21.8864 54.8991 22.1818C54.6861 22.4773 54.3878 22.7102 54.0043 22.8807C53.6207 23.0511 53.1747 23.1364 52.6662 23.1364C51.9986 23.1364 51.446 22.9915 51.0085 22.7017C50.571 22.4119 50.294 21.9886 50.1776 21.4318L51.1321 21.1932C51.223 21.5455 51.3949 21.8097 51.6477 21.9858C51.9034 22.1619 52.2372 22.25 52.6491 22.25C53.1179 22.25 53.4901 22.1506 53.7656 21.9517C54.044 21.75 54.1832 21.5085 54.1832 21.2273C54.1832 21 54.1037 20.8097 53.9446 20.6562C53.7855 20.5 53.5412 20.3835 53.2116 20.3068L52.1207 20.0511C51.5213 19.9091 51.081 19.6889 50.7997 19.3906C50.5213 19.0895 50.3821 18.7131 50.3821 18.2614C50.3821 17.892 50.4858 17.5653 50.6932 17.2812C50.9034 16.9972 51.1889 16.7741 51.5497 16.6122C51.9134 16.4503 52.3253 16.3693 52.7855 16.3693C53.4332 16.3693 53.9418 16.5114 54.3111 16.7955C54.6832 17.0795 54.9474 17.4545 55.1037 17.9205ZM62.9585 16.4545V17.3068H59.5664V16.4545H62.9585ZM60.555 14.8864H61.5607V21.125C61.5607 21.4091 61.6019 21.6222 61.6843 21.7642C61.7695 21.9034 61.8775 21.9972 62.0082 22.0455C62.1417 22.0909 62.2823 22.1136 62.43 22.1136C62.5408 22.1136 62.6317 22.108 62.7028 22.0966C62.7738 22.0824 62.8306 22.071 62.8732 22.0625L63.0778 22.9659C63.0096 22.9915 62.9144 23.017 62.7923 23.0426C62.6701 23.071 62.5153 23.0852 62.3278 23.0852C62.0437 23.0852 61.7653 23.0241 61.4925 22.902C61.2227 22.7798 60.9982 22.5938 60.8192 22.3438C60.6431 22.0938 60.555 21.7784 60.555 21.3977V14.8864ZM65.6175 19.0625V23H64.6119V14.2727H65.6175V17.4773H65.7028C65.8562 17.1392 66.0863 16.8707 66.3931 16.6719C66.7028 16.4702 67.1147 16.3693 67.6289 16.3693C68.0749 16.3693 68.4656 16.4588 68.8008 16.6378C69.136 16.8139 69.396 17.0852 69.5806 17.4517C69.7681 17.8153 69.8619 18.2784 69.8619 18.8409V23H68.8562V18.9091C68.8562 18.3892 68.7212 17.9872 68.4513 17.7031C68.1843 17.4162 67.8136 17.2727 67.3391 17.2727C67.0096 17.2727 66.7141 17.3423 66.4528 17.4815C66.1942 17.6207 65.9897 17.8239 65.8391 18.0909C65.6914 18.358 65.6175 18.6818 65.6175 19.0625ZM74.446 23.1364C73.8153 23.1364 73.2713 22.9972 72.8139 22.7188C72.3594 22.4375 72.0085 22.0455 71.7614 21.5426C71.517 21.0369 71.3949 20.4489 71.3949 19.7784C71.3949 19.108 71.517 18.517 71.7614 18.0057C72.0085 17.4915 72.3523 17.0909 72.7926 16.804C73.2358 16.5142 73.7528 16.3693 74.3438 16.3693C74.6847 16.3693 75.0213 16.4261 75.3537 16.5398C75.6861 16.6534 75.9886 16.8381 76.2614 17.0938C76.5341 17.3466 76.7514 17.6818 76.9134 18.0994C77.0753 18.517 77.1562 19.0312 77.1562 19.642V20.0682H72.1108V19.1989H76.1335C76.1335 18.8295 76.0597 18.5 75.9119 18.2102C75.767 17.9205 75.5597 17.6918 75.2898 17.5241C75.0227 17.3565 74.7074 17.2727 74.3438 17.2727C73.9432 17.2727 73.5966 17.3722 73.304 17.571C73.0142 17.767 72.7912 18.0227 72.6349 18.3381C72.4787 18.6534 72.4006 18.9915 72.4006 19.3523V19.9318C72.4006 20.4261 72.4858 20.8452 72.6562 21.1889C72.8295 21.5298 73.0696 21.7898 73.3764 21.9688C73.6832 22.1449 74.0398 22.233 74.446 22.233C74.7102 22.233 74.9489 22.196 75.1619 22.1222C75.3778 22.0455 75.5639 21.9318 75.7202 21.7812C75.8764 21.6278 75.9972 21.4375 76.0824 21.2102L77.054 21.483C76.9517 21.8125 76.7798 22.1023 76.5384 22.3523C76.2969 22.5994 75.9986 22.7926 75.6435 22.9318C75.2884 23.0682 74.8892 23.1364 74.446 23.1364ZM23.5568 32.9205L22.6534 33.1761C22.5966 33.0256 22.5128 32.8793 22.402 32.7372C22.294 32.5923 22.1463 32.473 21.9588 32.3793C21.7713 32.2855 21.5312 32.2386 21.2386 32.2386C20.8381 32.2386 20.5043 32.331 20.2372 32.5156C19.973 32.6974 19.8409 32.929 19.8409 33.2102C19.8409 33.4602 19.9318 33.6577 20.1136 33.8026C20.2955 33.9474 20.5795 34.0682 20.9659 34.1648L21.9375 34.4034C22.5227 34.5455 22.9588 34.7628 23.2457 35.0554C23.5327 35.3452 23.6761 35.7187 23.6761 36.1761C23.6761 36.5511 23.5682 36.8864 23.3523 37.1818C23.1392 37.4773 22.8409 37.7102 22.4574 37.8807C22.0739 38.0511 21.6278 38.1364 21.1193 38.1364C20.4517 38.1364 19.8991 37.9915 19.4616 37.7017C19.0241 37.4119 18.7472 36.9886 18.6307 36.4318L19.5852 36.1932C19.6761 36.5455 19.848 36.8097 20.1009 36.9858C20.3565 37.1619 20.6903 37.25 21.1023 37.25C21.571 37.25 21.9432 37.1506 22.2188 36.9517C22.4972 36.75 22.6364 36.5085 22.6364 36.2273C22.6364 36 22.5568 35.8097 22.3977 35.6562C22.2386 35.5 21.9943 35.3835 21.6648 35.3068L20.5739 35.0511C19.9744 34.9091 19.5341 34.6889 19.2528 34.3906C18.9744 34.0895 18.8352 33.7131 18.8352 33.2614C18.8352 32.892 18.9389 32.5653 19.1463 32.2812C19.3565 31.9972 19.642 31.7741 20.0028 31.6122C20.3665 31.4503 20.7784 31.3693 21.2386 31.3693C21.8864 31.3693 22.3949 31.5114 22.7642 31.7955C23.1364 32.0795 23.4006 32.4545 23.5568 32.9205ZM29.315 35.3239V31.4545H30.3207V38H29.315V36.892H29.2468C29.0934 37.2244 28.8548 37.5071 28.5309 37.7401C28.207 37.9702 27.7979 38.0852 27.3036 38.0852C26.8945 38.0852 26.5309 37.9957 26.2127 37.8168C25.8945 37.6349 25.6445 37.3622 25.4627 36.9986C25.2809 36.6321 25.19 36.1705 25.19 35.6136V31.4545H26.1957V35.5455C26.1957 36.0227 26.3292 36.4034 26.5962 36.6875C26.8661 36.9716 27.2099 37.1136 27.6275 37.1136C27.8775 37.1136 28.1317 37.0497 28.3903 36.9219C28.6516 36.794 28.8704 36.598 29.0465 36.3338C29.2255 36.0696 29.315 35.733 29.315 35.3239ZM32.299 38V29.2727H33.3047V32.4943H33.3899C33.4638 32.3807 33.5661 32.2358 33.6967 32.0597C33.8303 31.8807 34.0206 31.7216 34.2678 31.5824C34.5178 31.4403 34.8558 31.3693 35.282 31.3693C35.8331 31.3693 36.3189 31.5071 36.7393 31.7827C37.1598 32.0582 37.4879 32.4489 37.7237 32.9545C37.9595 33.4602 38.0774 34.0568 38.0774 34.7443C38.0774 35.4375 37.9595 36.0384 37.7237 36.5469C37.4879 37.0526 37.1612 37.4446 36.7436 37.723C36.326 37.9986 35.8445 38.1364 35.299 38.1364C34.8786 38.1364 34.5419 38.0668 34.2891 37.9276C34.0362 37.7855 33.8416 37.625 33.7053 37.446C33.5689 37.2642 33.4638 37.1136 33.3899 36.9943H33.2706V38H32.299ZM33.2876 34.7273C33.2876 35.2216 33.3601 35.6577 33.505 36.0355C33.6499 36.4105 33.8615 36.7045 34.1399 36.9176C34.4183 37.1278 34.7592 37.233 35.1626 37.233C35.5831 37.233 35.9339 37.1222 36.2152 36.9006C36.4993 36.6761 36.7124 36.375 36.8544 35.9972C36.9993 35.6165 37.0717 35.1932 37.0717 34.7273C37.0717 34.267 37.0007 33.8523 36.8587 33.483C36.7195 33.1108 36.5078 32.8168 36.2237 32.6009C35.9425 32.3821 35.5888 32.2727 35.1626 32.2727C34.7536 32.2727 34.4098 32.3764 34.1314 32.5838C33.853 32.7884 33.6428 33.0753 33.5007 33.4446C33.3587 33.8111 33.2876 34.2386 33.2876 34.7273ZM39.6158 38V31.4545H40.5874V32.4773H40.6726C40.8089 32.1278 41.0291 31.8565 41.3331 31.6634C41.6371 31.4673 42.0021 31.3693 42.4283 31.3693C42.8601 31.3693 43.2195 31.4673 43.5064 31.6634C43.7962 31.8565 44.022 32.1278 44.1839 32.4773H44.2521C44.4197 32.1392 44.6712 31.8707 45.0064 31.6719C45.3416 31.4702 45.7436 31.3693 46.2124 31.3693C46.7976 31.3693 47.2763 31.5526 47.6484 31.919C48.0206 32.2827 48.2067 32.8494 48.2067 33.6193V38H47.201V33.6193C47.201 33.1364 47.0689 32.7912 46.8047 32.5838C46.5405 32.3764 46.2294 32.2727 45.8714 32.2727C45.4112 32.2727 45.0547 32.4119 44.8018 32.6903C44.549 32.9659 44.4226 33.3153 44.4226 33.7386V38H43.3999V33.517C43.3999 33.1449 43.2791 32.8452 43.0376 32.6179C42.7962 32.3878 42.4851 32.2727 42.1044 32.2727C41.843 32.2727 41.5987 32.3423 41.3714 32.4815C41.147 32.6207 40.9652 32.8139 40.826 33.0611C40.6896 33.3054 40.6214 33.5881 40.6214 33.9091V38H39.6158ZM52.7898 38.1364C52.1591 38.1364 51.6151 37.9972 51.1577 37.7188C50.7031 37.4375 50.3523 37.0455 50.1051 36.5426C49.8608 36.0369 49.7386 35.4489 49.7386 34.7784C49.7386 34.108 49.8608 33.517 50.1051 33.0057C50.3523 32.4915 50.696 32.0909 51.1364 31.804C51.5795 31.5142 52.0966 31.3693 52.6875 31.3693C53.0284 31.3693 53.3651 31.4261 53.6974 31.5398C54.0298 31.6534 54.3324 31.8381 54.6051 32.0938C54.8778 32.3466 55.0952 32.6818 55.2571 33.0994C55.419 33.517 55.5 34.0312 55.5 34.642V35.0682H50.4545V34.1989H54.4773C54.4773 33.8295 54.4034 33.5 54.2557 33.2102C54.1108 32.9205 53.9034 32.6918 53.6335 32.5241C53.3665 32.3565 53.0511 32.2727 52.6875 32.2727C52.2869 32.2727 51.9403 32.3722 51.6477 32.571C51.358 32.767 51.1349 33.0227 50.9787 33.3381C50.8224 33.6534 50.7443 33.9915 50.7443 34.3523V34.9318C50.7443 35.4261 50.8295 35.8452 51 36.1889C51.1733 36.5298 51.4134 36.7898 51.7202 36.9688C52.027 37.1449 52.3835 37.233 52.7898 37.233C53.054 37.233 53.2926 37.196 53.5057 37.1222C53.7216 37.0455 53.9077 36.9318 54.0639 36.7812C54.2202 36.6278 54.3409 36.4375 54.4261 36.2102L55.3977 36.483C55.2955 36.8125 55.1236 37.1023 54.8821 37.3523C54.6406 37.5994 54.3423 37.7926 53.9872 37.9318C53.6321 38.0682 53.233 38.1364 52.7898 38.1364ZM57.0298 38V31.4545H58.0014V32.4432H58.0696C58.1889 32.1193 58.4048 31.8565 58.7173 31.6548C59.0298 31.4531 59.3821 31.3523 59.7741 31.3523C59.848 31.3523 59.9403 31.3537 60.0511 31.3565C60.1619 31.3594 60.2457 31.3636 60.3026 31.3693V32.392C60.2685 32.3835 60.1903 32.3707 60.0682 32.3537C59.9489 32.3338 59.8224 32.3239 59.6889 32.3239C59.3707 32.3239 59.0866 32.3906 58.8366 32.5241C58.5895 32.6548 58.3935 32.8366 58.2486 33.0696C58.1065 33.2997 58.0355 33.5625 58.0355 33.858V38H57.0298ZM63.9375 40.5909C63.4517 40.5909 63.0341 40.5284 62.6847 40.4034C62.3352 40.2812 62.044 40.1193 61.8111 39.9176C61.581 39.7188 61.3977 39.5057 61.2614 39.2784L62.0625 38.7159C62.1534 38.8352 62.2685 38.9716 62.4077 39.125C62.5469 39.2812 62.7372 39.4162 62.9787 39.5298C63.223 39.6463 63.5426 39.7045 63.9375 39.7045C64.4659 39.7045 64.902 39.5767 65.2457 39.321C65.5895 39.0653 65.7614 38.6648 65.7614 38.1193V36.7898H65.6761C65.6023 36.9091 65.4972 37.0568 65.3608 37.233C65.2273 37.4062 65.0341 37.5611 64.7812 37.6974C64.5312 37.831 64.1932 37.8977 63.767 37.8977C63.2386 37.8977 62.7642 37.7727 62.3438 37.5227C61.9261 37.2727 61.5952 36.9091 61.3509 36.4318C61.1094 35.9545 60.9886 35.375 60.9886 34.6932C60.9886 34.0227 61.1065 33.4389 61.3423 32.9418C61.5781 32.4418 61.9063 32.0554 62.3267 31.7827C62.7472 31.5071 63.233 31.3693 63.7841 31.3693C64.2102 31.3693 64.5483 31.4403 64.7983 31.5824C65.0511 31.7216 65.2443 31.8807 65.3778 32.0597C65.5142 32.2358 65.6193 32.3807 65.6932 32.4943H65.7955V31.4545H66.767V38.1875C66.767 38.75 66.6392 39.2074 66.3835 39.5597C66.1307 39.9148 65.7898 40.1747 65.3608 40.3395C64.9347 40.5071 64.4602 40.5909 63.9375 40.5909ZM63.9034 36.9943C64.3068 36.9943 64.6477 36.902 64.9261 36.7173C65.2045 36.5327 65.4162 36.267 65.5611 35.9205C65.706 35.5739 65.7784 35.1591 65.7784 34.6761C65.7784 34.2045 65.7074 33.7884 65.5653 33.4276C65.4233 33.0668 65.2131 32.7841 64.9347 32.5795C64.6563 32.375 64.3125 32.2727 63.9034 32.2727C63.4773 32.2727 63.1222 32.3807 62.8381 32.5966C62.5568 32.8125 62.3452 33.1023 62.2031 33.4659C62.0639 33.8295 61.9943 34.233 61.9943 34.6761C61.9943 35.1307 62.0653 35.5327 62.2074 35.8821C62.3523 36.2287 62.5653 36.5014 62.8466 36.7003C63.1307 36.8963 63.483 36.9943 63.9034 36.9943ZM71.3523 38.1364C70.7216 38.1364 70.1776 37.9972 69.7202 37.7188C69.2656 37.4375 68.9148 37.0455 68.6676 36.5426C68.4233 36.0369 68.3011 35.4489 68.3011 34.7784C68.3011 34.108 68.4233 33.517 68.6676 33.0057C68.9148 32.4915 69.2585 32.0909 69.6989 31.804C70.142 31.5142 70.6591 31.3693 71.25 31.3693C71.5909 31.3693 71.9276 31.4261 72.2599 31.5398C72.5923 31.6534 72.8949 31.8381 73.1676 32.0938C73.4403 32.3466 73.6577 32.6818 73.8196 33.0994C73.9815 33.517 74.0625 34.0312 74.0625 34.642V35.0682H69.017V34.1989H73.0398C73.0398 33.8295 72.9659 33.5 72.8182 33.2102C72.6733 32.9205 72.4659 32.6918 72.196 32.5241C71.929 32.3565 71.6136 32.2727 71.25 32.2727C70.8494 32.2727 70.5028 32.3722 70.2102 32.571C69.9205 32.767 69.6974 33.0227 69.5412 33.3381C69.3849 33.6534 69.3068 33.9915 69.3068 34.3523V34.9318C69.3068 35.4261 69.392 35.8452 69.5625 36.1889C69.7358 36.5298 69.9759 36.7898 70.2827 36.9688C70.5895 37.1449 70.946 37.233 71.3523 37.233C71.6165 37.233 71.8551 37.196 72.0682 37.1222C72.2841 37.0455 72.4702 36.9318 72.6264 36.7812C72.7827 36.6278 72.9034 36.4375 72.9886 36.2102L73.9602 36.483C73.858 36.8125 73.6861 37.1023 73.4446 37.3523C73.2031 37.5994 72.9048 37.7926 72.5497 37.9318C72.1946 38.0682 71.7955 38.1364 71.3523 38.1364ZM78.0639 38.1364C77.5185 38.1364 77.0369 37.9986 76.6193 37.723C76.2017 37.4446 75.875 37.0526 75.6392 36.5469C75.4034 36.0384 75.2855 35.4375 75.2855 34.7443C75.2855 34.0568 75.4034 33.4602 75.6392 32.9545C75.875 32.4489 76.2031 32.0582 76.6236 31.7827C77.044 31.5071 77.5298 31.3693 78.081 31.3693C78.5071 31.3693 78.8438 31.4403 79.0909 31.5824C79.3409 31.7216 79.5313 31.8807 79.6619 32.0597C79.7955 32.2358 79.8991 32.3807 79.973 32.4943H80.0582V29.2727H81.0639V38H80.0923V36.9943H79.973C79.8991 37.1136 79.794 37.2642 79.6577 37.446C79.5213 37.625 79.3267 37.7855 79.0739 37.9276C78.821 38.0668 78.4844 38.1364 78.0639 38.1364ZM78.2003 37.233C78.6037 37.233 78.9446 37.1278 79.223 36.9176C79.5014 36.7045 79.7131 36.4105 79.858 36.0355C80.0028 35.6577 80.0753 35.2216 80.0753 34.7273C80.0753 34.2386 80.0043 33.8111 79.8622 33.4446C79.7202 33.0753 79.5099 32.7884 79.2315 32.5838C78.9531 32.3764 78.6094 32.2727 78.2003 32.2727C77.7741 32.2727 77.419 32.3821 77.1349 32.6009C76.8537 32.8168 76.642 33.1108 76.5 33.483C76.3608 33.8523 76.2912 34.267 76.2912 34.7273C76.2912 35.1932 76.3622 35.6165 76.5043 35.9972C76.6491 36.375 76.8622 36.6761 77.1435 36.9006C77.4276 37.1222 77.7798 37.233 78.2003 37.233ZM86.4205 38V31.4545H87.392V32.4432H87.4602C87.5795 32.1193 87.7955 31.8565 88.108 31.6548C88.4205 31.4531 88.7727 31.3523 89.1648 31.3523C89.2386 31.3523 89.331 31.3537 89.4418 31.3565C89.5526 31.3594 89.6364 31.3636 89.6932 31.3693V32.392C89.6591 32.3835 89.581 32.3707 89.4588 32.3537C89.3395 32.3338 89.2131 32.3239 89.0795 32.3239C88.7614 32.3239 88.4773 32.3906 88.2273 32.5241C87.9801 32.6548 87.7841 32.8366 87.6392 33.0696C87.4972 33.2997 87.4261 33.5625 87.4261 33.858V38H86.4205ZM92.8114 38.1534C92.3967 38.1534 92.0202 38.0753 91.6822 37.919C91.3441 37.7599 91.0756 37.5312 90.8768 37.233C90.6779 36.9318 90.5785 36.5682 90.5785 36.142C90.5785 35.767 90.6523 35.4631 90.8001 35.2301C90.9478 34.9943 91.1452 34.8097 91.3924 34.6761C91.6396 34.5426 91.9123 34.4432 92.2106 34.3778C92.5117 34.3097 92.8143 34.2557 93.1183 34.2159C93.516 34.1648 93.8384 34.1264 94.0856 34.1009C94.3356 34.0724 94.5174 34.0256 94.631 33.9602C94.7475 33.8949 94.8058 33.7812 94.8058 33.6193V33.5852C94.8058 33.1648 94.6907 32.8381 94.4606 32.6051C94.2333 32.3722 93.8881 32.2557 93.4251 32.2557C92.945 32.2557 92.5685 32.3608 92.2958 32.571C92.0231 32.7812 91.8313 33.0057 91.7205 33.2443L90.766 32.9034C90.9364 32.5057 91.1637 32.196 91.4478 31.9744C91.7347 31.75 92.0472 31.5937 92.3853 31.5057C92.7262 31.4148 93.0614 31.3693 93.391 31.3693C93.6012 31.3693 93.8427 31.3949 94.1154 31.446C94.391 31.4943 94.6566 31.5952 94.9123 31.7486C95.1708 31.902 95.3853 32.1335 95.5558 32.4432C95.7262 32.7528 95.8114 33.1676 95.8114 33.6875V38H94.8058V37.1136H94.7546C94.6864 37.2557 94.5728 37.4077 94.4137 37.5696C94.2546 37.7315 94.043 37.8693 93.7788 37.983C93.5146 38.0966 93.1921 38.1534 92.8114 38.1534ZM92.9648 37.25C93.3626 37.25 93.6978 37.1719 93.9705 37.0156C94.2461 36.8594 94.4535 36.6577 94.5927 36.4105C94.7347 36.1634 94.8058 35.9034 94.8058 35.6307V34.7102C94.7631 34.7614 94.6694 34.8082 94.5245 34.8509C94.3825 34.8906 94.2177 34.9261 94.0302 34.9574C93.8455 34.9858 93.6651 35.0114 93.489 35.0341C93.3157 35.054 93.1751 35.071 93.0671 35.0852C92.8058 35.1193 92.5614 35.1747 92.3342 35.2514C92.1097 35.3253 91.9279 35.4375 91.7887 35.5881C91.6523 35.7358 91.5842 35.9375 91.5842 36.1932C91.5842 36.5426 91.7134 36.8068 91.9719 36.9858C92.2333 37.1619 92.5643 37.25 92.9648 37.25ZM100.494 31.4545V32.3068H97.1016V31.4545H100.494ZM98.0902 29.8864H99.0959V36.125C99.0959 36.4091 99.1371 36.6222 99.2195 36.7642C99.3047 36.9034 99.4126 36.9972 99.5433 37.0455C99.6768 37.0909 99.8175 37.1136 99.9652 37.1136C100.076 37.1136 100.167 37.108 100.238 37.0966C100.309 37.0824 100.366 37.071 100.408 37.0625L100.613 37.9659C100.545 37.9915 100.45 38.017 100.327 38.0426C100.205 38.071 100.05 38.0852 99.8629 38.0852C99.5788 38.0852 99.3004 38.0241 99.0277 37.902C98.7578 37.7798 98.5334 37.5938 98.3544 37.3438C98.1783 37.0938 98.0902 36.7784 98.0902 36.3977V29.8864ZM102.006 38V31.4545H103.012V38H102.006ZM102.518 30.3636C102.322 30.3636 102.153 30.2969 102.011 30.1634C101.871 30.0298 101.802 29.8693 101.802 29.6818C101.802 29.4943 101.871 29.3338 102.011 29.2003C102.153 29.0668 102.322 29 102.518 29C102.714 29 102.881 29.0668 103.021 29.2003C103.163 29.3338 103.234 29.4943 103.234 29.6818C103.234 29.8693 103.163 30.0298 103.021 30.1634C102.881 30.2969 102.714 30.3636 102.518 30.3636ZM107.513 38.1364C106.922 38.1364 106.404 37.9957 105.958 37.7145C105.515 37.4332 105.168 37.0398 104.918 36.5341C104.671 36.0284 104.547 35.4375 104.547 34.7614C104.547 34.0795 104.671 33.4844 104.918 32.9759C105.168 32.4673 105.515 32.0724 105.958 31.7912C106.404 31.5099 106.922 31.3693 107.513 31.3693C108.104 31.3693 108.621 31.5099 109.064 31.7912C109.51 32.0724 109.857 32.4673 110.104 32.9759C110.354 33.4844 110.479 34.0795 110.479 34.7614C110.479 35.4375 110.354 36.0284 110.104 36.5341C109.857 37.0398 109.51 37.4332 109.064 37.7145C108.621 37.9957 108.104 38.1364 107.513 38.1364ZM107.513 37.233C107.962 37.233 108.331 37.1179 108.621 36.8878C108.911 36.6577 109.125 36.3551 109.265 35.9801C109.404 35.6051 109.473 35.1989 109.473 34.7614C109.473 34.3239 109.404 33.9162 109.265 33.5384C109.125 33.1605 108.911 32.8551 108.621 32.6222C108.331 32.3892 107.962 32.2727 107.513 32.2727C107.064 32.2727 106.695 32.3892 106.405 32.6222C106.115 32.8551 105.901 33.1605 105.762 33.5384C105.623 33.9162 105.553 34.3239 105.553 34.7614C105.553 35.1989 105.623 35.6051 105.762 35.9801C105.901 36.3551 106.115 36.6577 106.405 36.8878C106.695 37.1179 107.064 37.233 107.513 37.233ZM118.304 31.4545V32.3068H114.776V31.4545H118.304ZM115.832 38V30.5511C115.832 30.1761 115.92 29.8636 116.097 29.6136C116.273 29.3636 116.501 29.1761 116.783 29.0511C117.064 28.9261 117.361 28.8636 117.673 28.8636C117.92 28.8636 118.122 28.8835 118.278 28.9233C118.435 28.9631 118.551 29 118.628 29.0341L118.338 29.9034C118.287 29.8864 118.216 29.8651 118.125 29.8395C118.037 29.8139 117.92 29.8011 117.776 29.8011C117.443 29.8011 117.203 29.8849 117.055 30.0526C116.911 30.2202 116.838 30.4659 116.838 30.7898V38H115.832ZM122.103 38.1364C121.512 38.1364 120.994 37.9957 120.548 37.7145C120.104 37.4332 119.758 37.0398 119.508 36.5341C119.261 36.0284 119.137 35.4375 119.137 34.7614C119.137 34.0795 119.261 33.4844 119.508 32.9759C119.758 32.4673 120.104 32.0724 120.548 31.7912C120.994 31.5099 121.512 31.3693 122.103 31.3693C122.694 31.3693 123.211 31.5099 123.654 31.7912C124.1 32.0724 124.447 32.4673 124.694 32.9759C124.944 33.4844 125.069 34.0795 125.069 34.7614C125.069 35.4375 124.944 36.0284 124.694 36.5341C124.447 37.0398 124.1 37.4332 123.654 37.7145C123.211 37.9957 122.694 38.1364 122.103 38.1364ZM122.103 37.233C122.552 37.233 122.921 37.1179 123.211 36.8878C123.501 36.6577 123.715 36.3551 123.854 35.9801C123.994 35.6051 124.063 35.1989 124.063 34.7614C124.063 34.3239 123.994 33.9162 123.854 33.5384C123.715 33.1605 123.501 32.8551 123.211 32.6222C122.921 32.3892 122.552 32.2727 122.103 32.2727C121.654 32.2727 121.285 32.3892 120.995 32.6222C120.705 32.8551 120.491 33.1605 120.352 33.5384C120.212 33.9162 120.143 34.3239 120.143 34.7614C120.143 35.1989 120.212 35.6051 120.352 35.9801C120.491 36.3551 120.705 36.6577 120.995 36.8878C121.285 37.1179 121.654 37.233 122.103 37.233ZM126.604 38V31.4545H127.576V32.4432H127.644C127.763 32.1193 127.979 31.8565 128.292 31.6548C128.604 31.4531 128.956 31.3523 129.348 31.3523C129.422 31.3523 129.515 31.3537 129.625 31.3565C129.736 31.3594 129.82 31.3636 129.877 31.3693V32.392C129.843 32.3835 129.765 32.3707 129.642 32.3537C129.523 32.3338 129.397 32.3239 129.263 32.3239C128.945 32.3239 128.661 32.3906 128.411 32.5241C128.164 32.6548 127.968 32.8366 127.823 33.0696C127.681 33.2997 127.61 33.5625 127.61 33.858V38H126.604ZM21.767 46.4545V47.3068H18.375V46.4545H21.767ZM19.3636 44.8864H20.3693V51.125C20.3693 51.4091 20.4105 51.6222 20.4929 51.7642C20.5781 51.9034 20.6861 51.9972 20.8168 52.0455C20.9503 52.0909 21.0909 52.1136 21.2386 52.1136C21.3494 52.1136 21.4403 52.108 21.5114 52.0966C21.5824 52.0824 21.6392 52.071 21.6818 52.0625L21.8864 52.9659C21.8182 52.9915 21.723 53.017 21.6009 53.0426C21.4787 53.071 21.3239 53.0852 21.1364 53.0852C20.8523 53.0852 20.5739 53.0241 20.3011 52.902C20.0313 52.7798 19.8068 52.5938 19.6278 52.3438C19.4517 52.0938 19.3636 51.7784 19.3636 51.3977V44.8864ZM24.4261 49.0625V53H23.4205V44.2727H24.4261V47.4773H24.5114C24.6648 47.1392 24.8949 46.8707 25.2017 46.6719C25.5114 46.4702 25.9233 46.3693 26.4375 46.3693C26.8835 46.3693 27.2741 46.4588 27.6094 46.6378C27.9446 46.8139 28.2045 47.0852 28.3892 47.4517C28.5767 47.8153 28.6705 48.2784 28.6705 48.8409V53H27.6648V48.9091C27.6648 48.3892 27.5298 47.9872 27.2599 47.7031C26.9929 47.4162 26.6222 47.2727 26.1477 47.2727C25.8182 47.2727 25.5227 47.3423 25.2614 47.4815C25.0028 47.6207 24.7983 47.8239 24.6477 48.0909C24.5 48.358 24.4261 48.6818 24.4261 49.0625ZM33.2546 53.1364C32.6239 53.1364 32.0799 52.9972 31.6225 52.7188C31.168 52.4375 30.8171 52.0455 30.57 51.5426C30.3256 51.0369 30.2035 50.4489 30.2035 49.7784C30.2035 49.108 30.3256 48.517 30.57 48.0057C30.8171 47.4915 31.1609 47.0909 31.6012 46.804C32.0444 46.5142 32.5614 46.3693 33.1523 46.3693C33.4933 46.3693 33.8299 46.4261 34.1623 46.5398C34.4947 46.6534 34.7972 46.8381 35.07 47.0938C35.3427 47.3466 35.56 47.6818 35.7219 48.0994C35.8839 48.517 35.9648 49.0312 35.9648 49.642V50.0682H30.9194V49.1989H34.9421C34.9421 48.8295 34.8683 48.5 34.7205 48.2102C34.5756 47.9205 34.3683 47.6918 34.0984 47.5241C33.8313 47.3565 33.516 47.2727 33.1523 47.2727C32.7518 47.2727 32.4052 47.3722 32.1126 47.571C31.8228 47.767 31.5998 48.0227 31.4435 48.3381C31.2873 48.6534 31.2092 48.9915 31.2092 49.3523V49.9318C31.2092 50.4261 31.2944 50.8452 31.4648 51.1889C31.6381 51.5298 31.8782 51.7898 32.185 51.9688C32.4918 52.1449 32.8484 52.233 33.2546 52.233C33.5188 52.233 33.7575 52.196 33.9705 52.1222C34.1864 52.0455 34.3725 51.9318 34.5288 51.7812C34.685 51.6278 34.8058 51.4375 34.891 51.2102L35.8626 51.483C35.7603 51.8125 35.5884 52.1023 35.3469 52.3523C35.1055 52.5994 34.8072 52.7926 34.4521 52.9318C34.0969 53.0682 33.6978 53.1364 33.2546 53.1364ZM40.8697 55.4545V46.4545H41.8413V47.4943H41.9606C42.0344 47.3807 42.1367 47.2358 42.2674 47.0597C42.4009 46.8807 42.5913 46.7216 42.8384 46.5824C43.0884 46.4403 43.4265 46.3693 43.8526 46.3693C44.4038 46.3693 44.8896 46.5071 45.31 46.7827C45.7305 47.0582 46.0586 47.4489 46.2944 47.9545C46.5302 48.4602 46.6481 49.0568 46.6481 49.7443C46.6481 50.4375 46.5302 51.0384 46.2944 51.5469C46.0586 52.0526 45.7319 52.4446 45.3143 52.723C44.8967 52.9986 44.4151 53.1364 43.8697 53.1364C43.4492 53.1364 43.1126 53.0668 42.8597 52.9276C42.6069 52.7855 42.4123 52.625 42.2759 52.446C42.1396 52.2642 42.0344 52.1136 41.9606 51.9943H41.8754V55.4545H40.8697ZM41.8583 49.7273C41.8583 50.2216 41.9308 50.6577 42.0756 51.0355C42.2205 51.4105 42.4322 51.7045 42.7106 51.9176C42.989 52.1278 43.3299 52.233 43.7333 52.233C44.1538 52.233 44.5046 52.1222 44.7859 51.9006C45.07 51.6761 45.283 51.375 45.4251 50.9972C45.57 50.6165 45.6424 50.1932 45.6424 49.7273C45.6424 49.267 45.5714 48.8523 45.4293 48.483C45.2901 48.1108 45.0785 47.8168 44.7944 47.6009C44.5131 47.3821 44.1594 47.2727 43.7333 47.2727C43.3242 47.2727 42.9805 47.3764 42.7021 47.5838C42.4237 47.7884 42.2134 48.0753 42.0714 48.4446C41.9293 48.8111 41.8583 49.2386 41.8583 49.7273ZM48.1822 53V46.4545H49.1538V47.4432H49.2219C49.3413 47.1193 49.5572 46.8565 49.8697 46.6548C50.1822 46.4531 50.5344 46.3523 50.9265 46.3523C51.0004 46.3523 51.0927 46.3537 51.2035 46.3565C51.3143 46.3594 51.3981 46.3636 51.4549 46.3693V47.392C51.4208 47.3835 51.3427 47.3707 51.2205 47.3537C51.1012 47.3338 50.9748 47.3239 50.8413 47.3239C50.5231 47.3239 50.239 47.3906 49.989 47.5241C49.7418 47.6548 49.5458 47.8366 49.4009 48.0696C49.2589 48.2997 49.1879 48.5625 49.1879 48.858V53H48.1822ZM55.1069 53.1364C54.516 53.1364 53.9975 52.9957 53.5515 52.7145C53.1083 52.4332 52.7617 52.0398 52.5117 51.5341C52.2646 51.0284 52.141 50.4375 52.141 49.7614C52.141 49.0795 52.2646 48.4844 52.5117 47.9759C52.7617 47.4673 53.1083 47.0724 53.5515 46.7912C53.9975 46.5099 54.516 46.3693 55.1069 46.3693C55.6978 46.3693 56.2148 46.5099 56.658 46.7912C57.104 47.0724 57.4506 47.4673 57.6978 47.9759C57.9478 48.4844 58.0728 49.0795 58.0728 49.7614C58.0728 50.4375 57.9478 51.0284 57.6978 51.5341C57.4506 52.0398 57.104 52.4332 56.658 52.7145C56.2148 52.9957 55.6978 53.1364 55.1069 53.1364ZM55.1069 52.233C55.5558 52.233 55.9251 52.1179 56.2148 51.8878C56.5046 51.6577 56.7191 51.3551 56.8583 50.9801C56.9975 50.6051 57.0671 50.1989 57.0671 49.7614C57.0671 49.3239 56.9975 48.9162 56.8583 48.5384C56.7191 48.1605 56.5046 47.8551 56.2148 47.6222C55.9251 47.3892 55.5558 47.2727 55.1069 47.2727C54.658 47.2727 54.2887 47.3892 53.9989 47.6222C53.7092 47.8551 53.4947 48.1605 53.3555 48.5384C53.2163 48.9162 53.1467 49.3239 53.1467 49.7614C53.1467 50.1989 53.2163 50.6051 53.3555 50.9801C53.4947 51.3551 53.7092 51.6577 53.9989 51.8878C54.2887 52.1179 54.658 52.233 55.1069 52.233ZM59.7443 53V44.2727H60.75V47.4943H60.8352C60.9091 47.3807 61.0114 47.2358 61.142 47.0597C61.2756 46.8807 61.4659 46.7216 61.7131 46.5824C61.9631 46.4403 62.3011 46.3693 62.7273 46.3693C63.2784 46.3693 63.7642 46.5071 64.1847 46.7827C64.6051 47.0582 64.9332 47.4489 65.169 47.9545C65.4048 48.4602 65.5227 49.0568 65.5227 49.7443C65.5227 50.4375 65.4048 51.0384 65.169 51.5469C64.9332 52.0526 64.6065 52.4446 64.1889 52.723C63.7713 52.9986 63.2898 53.1364 62.7443 53.1364C62.3239 53.1364 61.9872 53.0668 61.7344 52.9276C61.4815 52.7855 61.2869 52.625 61.1506 52.446C61.0142 52.2642 60.9091 52.1136 60.8352 51.9943H60.7159V53H59.7443ZM60.733 49.7273C60.733 50.2216 60.8054 50.6577 60.9503 51.0355C61.0952 51.4105 61.3068 51.7045 61.5852 51.9176C61.8636 52.1278 62.2045 52.233 62.608 52.233C63.0284 52.233 63.3793 52.1222 63.6605 51.9006C63.9446 51.6761 64.1577 51.375 64.2997 50.9972C64.4446 50.6165 64.517 50.1932 64.517 49.7273C64.517 49.267 64.446 48.8523 64.304 48.483C64.1648 48.1108 63.9531 47.8168 63.669 47.6009C63.3878 47.3821 63.0341 47.2727 62.608 47.2727C62.1989 47.2727 61.8551 47.3764 61.5767 47.5838C61.2983 47.7884 61.0881 48.0753 60.946 48.4446C60.804 48.8111 60.733 49.2386 60.733 49.7273ZM69.8054 53.1364C69.1747 53.1364 68.6307 52.9972 68.1733 52.7188C67.7188 52.4375 67.3679 52.0455 67.1207 51.5426C66.8764 51.0369 66.7543 50.4489 66.7543 49.7784C66.7543 49.108 66.8764 48.517 67.1207 48.0057C67.3679 47.4915 67.7116 47.0909 68.152 46.804C68.5952 46.5142 69.1122 46.3693 69.7031 46.3693C70.044 46.3693 70.3807 46.4261 70.7131 46.5398C71.0455 46.6534 71.348 46.8381 71.6207 47.0938C71.8935 47.3466 72.1108 47.6818 72.2727 48.0994C72.4347 48.517 72.5156 49.0312 72.5156 49.642V50.0682H67.4702V49.1989H71.4929C71.4929 48.8295 71.419 48.5 71.2713 48.2102C71.1264 47.9205 70.919 47.6918 70.6491 47.5241C70.3821 47.3565 70.0668 47.2727 69.7031 47.2727C69.3026 47.2727 68.956 47.3722 68.6634 47.571C68.3736 47.767 68.1506 48.0227 67.9943 48.3381C67.8381 48.6534 67.7599 48.9915 67.7599 49.3523V49.9318C67.7599 50.4261 67.8452 50.8452 68.0156 51.1889C68.1889 51.5298 68.429 51.7898 68.7358 51.9688C69.0426 52.1449 69.3991 52.233 69.8054 52.233C70.0696 52.233 70.3082 52.196 70.5213 52.1222C70.7372 52.0455 70.9233 51.9318 71.0795 51.7812C71.2358 51.6278 71.3565 51.4375 71.4418 51.2102L72.4134 51.483C72.3111 51.8125 72.1392 52.1023 71.8977 52.3523C71.6563 52.5994 71.358 52.7926 71.0028 52.9318C70.6477 53.0682 70.2486 53.1364 69.8054 53.1364ZM82.0568 47.9205L81.1534 48.1761C81.0966 48.0256 81.0128 47.8793 80.902 47.7372C80.794 47.5923 80.6463 47.473 80.4588 47.3793C80.2713 47.2855 80.0312 47.2386 79.7386 47.2386C79.3381 47.2386 79.0043 47.331 78.7372 47.5156C78.473 47.6974 78.3409 47.929 78.3409 48.2102C78.3409 48.4602 78.4318 48.6577 78.6136 48.8026C78.7955 48.9474 79.0795 49.0682 79.4659 49.1648L80.4375 49.4034C81.0227 49.5455 81.4588 49.7628 81.7457 50.0554C82.0327 50.3452 82.1761 50.7187 82.1761 51.1761C82.1761 51.5511 82.0682 51.8864 81.8523 52.1818C81.6392 52.4773 81.3409 52.7102 80.9574 52.8807C80.5739 53.0511 80.1278 53.1364 79.6193 53.1364C78.9517 53.1364 78.3991 52.9915 77.9616 52.7017C77.5241 52.4119 77.2472 51.9886 77.1307 51.4318L78.0852 51.1932C78.1761 51.5455 78.348 51.8097 78.6009 51.9858C78.8565 52.1619 79.1903 52.25 79.6023 52.25C80.071 52.25 80.4432 52.1506 80.7188 51.9517C80.9972 51.75 81.1364 51.5085 81.1364 51.2273C81.1364 51 81.0568 50.8097 80.8977 50.6562C80.7386 50.5 80.4943 50.3835 80.1648 50.3068L79.0739 50.0511C78.4744 49.9091 78.0341 49.6889 77.7528 49.3906C77.4744 49.0895 77.3352 48.7131 77.3352 48.2614C77.3352 47.892 77.4389 47.5653 77.6463 47.2812C77.8565 46.9972 78.142 46.7741 78.5028 46.6122C78.8665 46.4503 79.2784 46.3693 79.7386 46.3693C80.3864 46.3693 80.8949 46.5114 81.2642 46.7955C81.6364 47.0795 81.9006 47.4545 82.0568 47.9205ZM86.4343 53.1364C85.8036 53.1364 85.2596 52.9972 84.8022 52.7188C84.3477 52.4375 83.9968 52.0455 83.7496 51.5426C83.5053 51.0369 83.3832 50.4489 83.3832 49.7784C83.3832 49.108 83.5053 48.517 83.7496 48.0057C83.9968 47.4915 84.3406 47.0909 84.7809 46.804C85.2241 46.5142 85.7411 46.3693 86.332 46.3693C86.6729 46.3693 87.0096 46.4261 87.342 46.5398C87.6744 46.6534 87.9769 46.8381 88.2496 47.0938C88.5224 47.3466 88.7397 47.6818 88.9016 48.0994C89.0636 48.517 89.1445 49.0312 89.1445 49.642V50.0682H84.0991V49.1989H88.1218C88.1218 48.8295 88.0479 48.5 87.9002 48.2102C87.7553 47.9205 87.5479 47.6918 87.2781 47.5241C87.011 47.3565 86.6957 47.2727 86.332 47.2727C85.9315 47.2727 85.5849 47.3722 85.2923 47.571C85.0025 47.767 84.7795 48.0227 84.6232 48.3381C84.467 48.6534 84.3888 48.9915 84.3888 49.3523V49.9318C84.3888 50.4261 84.4741 50.8452 84.6445 51.1889C84.8178 51.5298 85.0579 51.7898 85.3647 51.9688C85.6715 52.1449 86.0281 52.233 86.4343 52.233C86.6985 52.233 86.9371 52.196 87.1502 52.1222C87.3661 52.0455 87.5522 51.9318 87.7085 51.7812C87.8647 51.6278 87.9854 51.4375 88.0707 51.2102L89.0423 51.483C88.94 51.8125 88.7681 52.1023 88.5266 52.3523C88.2852 52.5994 87.9869 52.7926 87.6317 52.9318C87.2766 53.0682 86.8775 53.1364 86.4343 53.1364ZM93.521 46.4545V47.3068H90.1289V46.4545H93.521ZM91.1175 44.8864H92.1232V51.125C92.1232 51.4091 92.1644 51.6222 92.2468 51.7642C92.332 51.9034 92.44 51.9972 92.5707 52.0455C92.7042 52.0909 92.8448 52.1136 92.9925 52.1136C93.1033 52.1136 93.1942 52.108 93.2653 52.0966C93.3363 52.0824 93.3931 52.071 93.4357 52.0625L93.6403 52.9659C93.5721 52.9915 93.4769 53.017 93.3548 53.0426C93.2326 53.071 93.0778 53.0852 92.8903 53.0852C92.6062 53.0852 92.3278 53.0241 92.055 52.902C91.7852 52.7798 91.5607 52.5938 91.3817 52.3438C91.2056 52.0938 91.1175 51.7784 91.1175 51.3977V44.8864ZM95.7667 53.0682C95.5565 53.0682 95.3761 52.9929 95.2255 52.8423C95.0749 52.6918 94.9996 52.5114 94.9996 52.3011C94.9996 52.0909 95.0749 51.9105 95.2255 51.7599C95.3761 51.6094 95.5565 51.5341 95.7667 51.5341C95.9769 51.5341 96.1573 51.6094 96.3079 51.7599C96.4585 51.9105 96.5337 52.0909 96.5337 52.3011C96.5337 52.4403 96.4982 52.5682 96.4272 52.6847C96.359 52.8011 96.2667 52.8949 96.1502 52.9659C96.0366 53.0341 95.9087 53.0682 95.7667 53.0682Z" fill="black"/>
</svg>
