<svg width="300" height="312" viewBox="0 0 300 312" fill="none" xmlns="http://www.w3.org/2000/svg">
<g clip-path="url(#clip0_2201_499)">
<rect width="300" height="312" fill="#BDBDBD"/>
<circle cx="149.5" cy="62" r="36" fill="white"/>
<path d="M72 193.5L0 210.5V286.5H300V198.5L240 189L147 201L72 193.5Z" fill="#7888B1"/>
<path d="M173.115 106.5H125.41C123.231 106.5 121.147 107.388 119.639 108.96L79.577 150.691C76.5029 153.893 76.6237 158.986 79.8462 162.038L87.2506 169.053C90.4352 172.07 95.4555 171.96 98.5044 168.806L108.248 158.726C113.247 153.555 122 157.093 122 164.286V182.556C122 183.183 121.926 183.808 121.78 184.418L104.247 257.7C103.265 261.805 105.64 265.966 109.674 267.208L120.183 270.441C124.659 271.818 129.356 269.073 130.352 264.498L140.653 217.221C142.457 208.939 154.215 208.783 156.238 217.015L167.988 264.815C169.082 269.265 173.682 271.888 178.069 270.564L189.234 267.194C193.307 265.964 195.705 261.761 194.691 257.628L176.731 184.439C176.577 183.815 176.5 183.175 176.5 182.533V163.167C176.5 156.133 184.924 152.523 190.017 157.374L202.183 168.96C205.392 172.016 210.473 171.881 213.516 168.66L219.742 162.067C222.683 158.954 222.65 154.077 219.669 151.004L178.857 108.93C177.35 107.377 175.279 106.5 173.115 106.5Z" fill="white"/>
<path d="M149.995 54V70" stroke="#00E9FA" stroke-width="4"/>
<path d="M158 61.995L142 61.995" stroke="#00E9FA" stroke-width="4"/>
<path d="M149.995 145V161" stroke="#00E9FA" stroke-width="4"/>
<path d="M158 152.995L142 152.995" stroke="#00E9FA" stroke-width="4"/>
<path d="M149.995 238V254" stroke="#00E9FA" stroke-width="4"/>
<path d="M158 245.995L142 245.995" stroke="#00E9FA" stroke-width="4"/>
<rect width="300" height="26" transform="translate(0 286)" fill="#756341"/>
<path d="M19.8295 241.455C19.7784 241.023 19.571 240.688 19.2074 240.449C18.8438 240.21 18.3977 240.091 17.8693 240.091C17.483 240.091 17.1449 240.153 16.8551 240.278C16.5682 240.403 16.3438 240.575 16.1818 240.794C16.0227 241.013 15.9432 241.261 15.9432 241.54C15.9432 241.773 15.9986 241.973 16.1094 242.141C16.223 242.305 16.3679 242.443 16.544 242.554C16.7202 242.662 16.9048 242.751 17.098 242.822C17.2912 242.891 17.4688 242.946 17.6307 242.989L18.517 243.227C18.7443 243.287 18.9972 243.369 19.2756 243.474C19.5568 243.58 19.8253 243.723 20.081 243.905C20.3395 244.084 20.5526 244.314 20.7202 244.595C20.8878 244.876 20.9716 245.222 20.9716 245.631C20.9716 246.102 20.848 246.528 20.6009 246.909C20.3565 247.29 19.9986 247.592 19.527 247.817C19.0582 248.041 18.4886 248.153 17.8182 248.153C17.1932 248.153 16.652 248.053 16.1946 247.851C15.7401 247.649 15.3821 247.368 15.1207 247.007C14.8622 246.646 14.7159 246.227 14.6818 245.75H15.7727C15.8011 246.08 15.9119 246.352 16.1051 246.568C16.3011 246.781 16.5483 246.94 16.8466 247.045C17.1477 247.148 17.4716 247.199 17.8182 247.199C18.2216 247.199 18.5838 247.134 18.9048 247.003C19.2259 246.869 19.4801 246.685 19.6676 246.449C19.8551 246.21 19.9489 245.932 19.9489 245.614C19.9489 245.324 19.8679 245.088 19.706 244.906C19.544 244.724 19.331 244.577 19.0668 244.463C18.8026 244.349 18.517 244.25 18.2102 244.165L17.1364 243.858C16.4545 243.662 15.9148 243.382 15.517 243.018C15.1193 242.655 14.9205 242.179 14.9205 241.591C14.9205 241.102 15.0526 240.676 15.3168 240.312C15.5838 239.946 15.9418 239.662 16.3906 239.46C16.8423 239.256 17.3466 239.153 17.9034 239.153C18.4659 239.153 18.9659 239.254 19.4034 239.456C19.8409 239.655 20.1875 239.928 20.4432 240.274C20.7017 240.621 20.8381 241.014 20.8523 241.455H19.8295ZM26.6978 245.324V241.455H27.7035V248H26.6978V246.892H26.6296C26.4762 247.224 26.2376 247.507 25.9137 247.74C25.5898 247.97 25.1808 248.085 24.6864 248.085C24.2773 248.085 23.9137 247.996 23.5955 247.817C23.2773 247.635 23.0273 247.362 22.8455 246.999C22.6637 246.632 22.5728 246.17 22.5728 245.614V241.455H23.5785V245.545C23.5785 246.023 23.712 246.403 23.979 246.688C24.2489 246.972 24.5927 247.114 25.0103 247.114C25.2603 247.114 25.5146 247.05 25.7731 246.922C26.0344 246.794 26.2532 246.598 26.4293 246.334C26.6083 246.07 26.6978 245.733 26.6978 245.324ZM29.6818 248V239.273H30.6875V242.494H30.7727C30.8466 242.381 30.9489 242.236 31.0795 242.06C31.2131 241.881 31.4034 241.722 31.6506 241.582C31.9006 241.44 32.2386 241.369 32.6648 241.369C33.2159 241.369 33.7017 241.507 34.1222 241.783C34.5426 242.058 34.8707 242.449 35.1065 242.955C35.3423 243.46 35.4602 244.057 35.4602 244.744C35.4602 245.438 35.3423 246.038 35.1065 246.547C34.8707 247.053 34.544 247.445 34.1264 247.723C33.7088 247.999 33.2273 248.136 32.6818 248.136C32.2614 248.136 31.9247 248.067 31.6719 247.928C31.419 247.786 31.2244 247.625 31.0881 247.446C30.9517 247.264 30.8466 247.114 30.7727 246.994H30.6534V248H29.6818ZM30.6705 244.727C30.6705 245.222 30.7429 245.658 30.8878 246.036C31.0327 246.411 31.2443 246.705 31.5227 246.918C31.8011 247.128 32.142 247.233 32.5455 247.233C32.9659 247.233 33.3168 247.122 33.598 246.901C33.8821 246.676 34.0952 246.375 34.2372 245.997C34.3821 245.616 34.4545 245.193 34.4545 244.727C34.4545 244.267 34.3835 243.852 34.2415 243.483C34.1023 243.111 33.8906 242.817 33.6065 242.601C33.3253 242.382 32.9716 242.273 32.5455 242.273C32.1364 242.273 31.7926 242.376 31.5142 242.584C31.2358 242.788 31.0256 243.075 30.8835 243.445C30.7415 243.811 30.6705 244.239 30.6705 244.727ZM36.9986 248V241.455H37.9702V242.477H38.0554C38.1918 242.128 38.4119 241.857 38.7159 241.663C39.0199 241.467 39.3849 241.369 39.8111 241.369C40.2429 241.369 40.6023 241.467 40.8892 241.663C41.179 241.857 41.4048 242.128 41.5668 242.477H41.6349C41.8026 242.139 42.054 241.871 42.3892 241.672C42.7244 241.47 43.1264 241.369 43.5952 241.369C44.1804 241.369 44.6591 241.553 45.0312 241.919C45.4034 242.283 45.5895 242.849 45.5895 243.619V248H44.5838V243.619C44.5838 243.136 44.4517 242.791 44.1875 242.584C43.9233 242.376 43.6122 242.273 43.2543 242.273C42.794 242.273 42.4375 242.412 42.1847 242.69C41.9318 242.966 41.8054 243.315 41.8054 243.739V248H40.7827V243.517C40.7827 243.145 40.6619 242.845 40.4205 242.618C40.179 242.388 39.8679 242.273 39.4872 242.273C39.2259 242.273 38.9815 242.342 38.7543 242.482C38.5298 242.621 38.348 242.814 38.2088 243.061C38.0724 243.305 38.0043 243.588 38.0043 243.909V248H36.9986ZM50.1726 248.136C49.5419 248.136 48.9979 247.997 48.5405 247.719C48.0859 247.438 47.7351 247.045 47.4879 246.543C47.2436 246.037 47.1214 245.449 47.1214 244.778C47.1214 244.108 47.2436 243.517 47.4879 243.006C47.7351 242.491 48.0788 242.091 48.5192 241.804C48.9624 241.514 49.4794 241.369 50.0703 241.369C50.4112 241.369 50.7479 241.426 51.0803 241.54C51.4126 241.653 51.7152 241.838 51.9879 242.094C52.2607 242.347 52.478 242.682 52.6399 243.099C52.8018 243.517 52.8828 244.031 52.8828 244.642V245.068H47.8374V244.199H51.8601C51.8601 243.83 51.7862 243.5 51.6385 243.21C51.4936 242.92 51.2862 242.692 51.0163 242.524C50.7493 242.357 50.4339 242.273 50.0703 242.273C49.6697 242.273 49.3232 242.372 49.0305 242.571C48.7408 242.767 48.5178 243.023 48.3615 243.338C48.2053 243.653 48.1271 243.991 48.1271 244.352V244.932C48.1271 245.426 48.2124 245.845 48.3828 246.189C48.5561 246.53 48.7962 246.79 49.103 246.969C49.4098 247.145 49.7663 247.233 50.1726 247.233C50.4368 247.233 50.6754 247.196 50.8885 247.122C51.1044 247.045 51.2905 246.932 51.4467 246.781C51.603 246.628 51.7237 246.437 51.8089 246.21L52.7805 246.483C52.6783 246.812 52.5064 247.102 52.2649 247.352C52.0234 247.599 51.7251 247.793 51.37 247.932C51.0149 248.068 50.6158 248.136 50.1726 248.136ZM54.4126 248V241.455H55.3842V242.443H55.4524C55.5717 242.119 55.7876 241.857 56.1001 241.655C56.4126 241.453 56.7649 241.352 57.157 241.352C57.2308 241.352 57.3232 241.354 57.4339 241.357C57.5447 241.359 57.6286 241.364 57.6854 241.369V242.392C57.6513 242.384 57.5732 242.371 57.451 242.354C57.3317 242.334 57.2053 242.324 57.0717 242.324C56.7536 242.324 56.4695 242.391 56.2195 242.524C55.9723 242.655 55.7763 242.837 55.6314 243.07C55.4893 243.3 55.4183 243.562 55.4183 243.858V248H54.4126ZM61.3203 250.591C60.8345 250.591 60.4169 250.528 60.0675 250.403C59.718 250.281 59.4268 250.119 59.1939 249.918C58.9638 249.719 58.7805 249.506 58.6442 249.278L59.4453 248.716C59.5362 248.835 59.6513 248.972 59.7905 249.125C59.9297 249.281 60.12 249.416 60.3615 249.53C60.6058 249.646 60.9254 249.705 61.3203 249.705C61.8487 249.705 62.2848 249.577 62.6286 249.321C62.9723 249.065 63.1442 248.665 63.1442 248.119V246.79H63.0589C62.9851 246.909 62.88 247.057 62.7436 247.233C62.6101 247.406 62.4169 247.561 62.1641 247.697C61.9141 247.831 61.576 247.898 61.1499 247.898C60.6214 247.898 60.147 247.773 59.7266 247.523C59.3089 247.273 58.978 246.909 58.7337 246.432C58.4922 245.955 58.3714 245.375 58.3714 244.693C58.3714 244.023 58.4893 243.439 58.7251 242.942C58.9609 242.442 59.2891 242.055 59.7095 241.783C60.13 241.507 60.6158 241.369 61.1669 241.369C61.593 241.369 61.9311 241.44 62.1811 241.582C62.4339 241.722 62.6271 241.881 62.7607 242.06C62.897 242.236 63.0021 242.381 63.076 242.494H63.1783V241.455H64.1499V248.188C64.1499 248.75 64.022 249.207 63.7663 249.56C63.5135 249.915 63.1726 250.175 62.7436 250.339C62.3175 250.507 61.843 250.591 61.3203 250.591ZM61.2862 246.994C61.6896 246.994 62.0305 246.902 62.3089 246.717C62.5874 246.533 62.799 246.267 62.9439 245.92C63.0888 245.574 63.1612 245.159 63.1612 244.676C63.1612 244.205 63.0902 243.788 62.9482 243.428C62.8061 243.067 62.5959 242.784 62.3175 242.58C62.0391 242.375 61.6953 242.273 61.2862 242.273C60.8601 242.273 60.505 242.381 60.2209 242.597C59.9396 242.812 59.728 243.102 59.5859 243.466C59.4467 243.83 59.3771 244.233 59.3771 244.676C59.3771 245.131 59.4482 245.533 59.5902 245.882C59.7351 246.229 59.9482 246.501 60.2294 246.7C60.5135 246.896 60.8658 246.994 61.2862 246.994ZM68.7351 248.136C68.1044 248.136 67.5604 247.997 67.103 247.719C66.6484 247.438 66.2976 247.045 66.0504 246.543C65.8061 246.037 65.6839 245.449 65.6839 244.778C65.6839 244.108 65.8061 243.517 66.0504 243.006C66.2976 242.491 66.6413 242.091 67.0817 241.804C67.5249 241.514 68.0419 241.369 68.6328 241.369C68.9737 241.369 69.3104 241.426 69.6428 241.54C69.9751 241.653 70.2777 241.838 70.5504 242.094C70.8232 242.347 71.0405 242.682 71.2024 243.099C71.3643 243.517 71.4453 244.031 71.4453 244.642V245.068H66.3999V244.199H70.4226C70.4226 243.83 70.3487 243.5 70.201 243.21C70.0561 242.92 69.8487 242.692 69.5788 242.524C69.3118 242.357 68.9964 242.273 68.6328 242.273C68.2322 242.273 67.8857 242.372 67.593 242.571C67.3033 242.767 67.0803 243.023 66.924 243.338C66.7678 243.653 66.6896 243.991 66.6896 244.352V244.932C66.6896 245.426 66.7749 245.845 66.9453 246.189C67.1186 246.53 67.3587 246.79 67.6655 246.969C67.9723 247.145 68.3288 247.233 68.7351 247.233C68.9993 247.233 69.2379 247.196 69.451 247.122C69.6669 247.045 69.853 246.932 70.0092 246.781C70.1655 246.628 70.2862 246.437 70.3714 246.21L71.343 246.483C71.2408 246.812 71.0689 247.102 70.8274 247.352C70.5859 247.599 70.2876 247.793 69.9325 247.932C69.5774 248.068 69.1783 248.136 68.7351 248.136ZM75.4467 248.136C74.9013 248.136 74.4197 247.999 74.0021 247.723C73.5845 247.445 73.2578 247.053 73.022 246.547C72.7862 246.038 72.6683 245.438 72.6683 244.744C72.6683 244.057 72.7862 243.46 73.022 242.955C73.2578 242.449 73.5859 242.058 74.0064 241.783C74.4268 241.507 74.9126 241.369 75.4638 241.369C75.8899 241.369 76.2266 241.44 76.4737 241.582C76.7237 241.722 76.9141 241.881 77.0447 242.06C77.1783 242.236 77.282 242.381 77.3558 242.494H77.4411V239.273H78.4467V248H77.4751V246.994H77.3558C77.282 247.114 77.1768 247.264 77.0405 247.446C76.9041 247.625 76.7095 247.786 76.4567 247.928C76.2038 248.067 75.8672 248.136 75.4467 248.136ZM75.5831 247.233C75.9865 247.233 76.3274 247.128 76.6058 246.918C76.8842 246.705 77.0959 246.411 77.2408 246.036C77.3857 245.658 77.4581 245.222 77.4581 244.727C77.4581 244.239 77.3871 243.811 77.245 243.445C77.103 243.075 76.8928 242.788 76.6143 242.584C76.3359 242.376 75.9922 242.273 75.5831 242.273C75.157 242.273 74.8018 242.382 74.5178 242.601C74.2365 242.817 74.0249 243.111 73.8828 243.483C73.7436 243.852 73.674 244.267 73.674 244.727C73.674 245.193 73.745 245.616 73.8871 245.997C74.032 246.375 74.245 246.676 74.5263 246.901C74.8104 247.122 75.1626 247.233 75.5831 247.233ZM15.0568 263V254.273H18.0057C18.6875 254.273 19.2472 254.389 19.6847 254.622C20.1222 254.852 20.446 255.169 20.6562 255.572C20.8665 255.976 20.9716 256.435 20.9716 256.949C20.9716 257.463 20.8665 257.919 20.6562 258.317C20.446 258.714 20.1236 259.027 19.6889 259.254C19.2543 259.479 18.6989 259.591 18.0227 259.591H15.6364V258.636H17.9886C18.4545 258.636 18.8295 258.568 19.1136 258.432C19.4006 258.295 19.608 258.102 19.7358 257.852C19.8665 257.599 19.9318 257.298 19.9318 256.949C19.9318 256.599 19.8665 256.294 19.7358 256.033C19.6051 255.771 19.3963 255.57 19.1094 255.428C18.8224 255.283 18.4432 255.21 17.9716 255.21H16.1136V263H15.0568ZM19.1648 259.08L21.3125 263H20.0852L17.9716 259.08H19.1648ZM24.5224 263.153C24.1076 263.153 23.7312 263.075 23.3931 262.919C23.055 262.76 22.7866 262.531 22.5877 262.233C22.3888 261.932 22.2894 261.568 22.2894 261.142C22.2894 260.767 22.3633 260.463 22.511 260.23C22.6587 259.994 22.8562 259.81 23.1033 259.676C23.3505 259.543 23.6232 259.443 23.9215 259.378C24.2227 259.31 24.5252 259.256 24.8292 259.216C25.2269 259.165 25.5494 259.126 25.7965 259.101C26.0465 259.072 26.2283 259.026 26.342 258.96C26.4585 258.895 26.5167 258.781 26.5167 258.619V258.585C26.5167 258.165 26.4016 257.838 26.1715 257.605C25.9442 257.372 25.5991 257.256 25.136 257.256C24.6559 257.256 24.2795 257.361 24.0067 257.571C23.734 257.781 23.5423 258.006 23.4315 258.244L22.4769 257.903C22.6474 257.506 22.8746 257.196 23.1587 256.974C23.4457 256.75 23.7582 256.594 24.0962 256.506C24.4371 256.415 24.7724 256.369 25.1019 256.369C25.3121 256.369 25.5536 256.395 25.8263 256.446C26.1019 256.494 26.3675 256.595 26.6232 256.749C26.8817 256.902 27.0962 257.134 27.2667 257.443C27.4371 257.753 27.5224 258.168 27.5224 258.688V263H26.5167V262.114H26.4656C26.3974 262.256 26.2837 262.408 26.1246 262.57C25.9656 262.732 25.7539 262.869 25.4897 262.983C25.2255 263.097 24.9031 263.153 24.5224 263.153ZM24.6758 262.25C25.0735 262.25 25.4087 262.172 25.6815 262.016C25.957 261.859 26.1644 261.658 26.3036 261.411C26.4457 261.163 26.5167 260.903 26.5167 260.631V259.71C26.4741 259.761 26.3803 259.808 26.2354 259.851C26.0934 259.891 25.9286 259.926 25.7411 259.957C25.5565 259.986 25.3761 260.011 25.1999 260.034C25.0266 260.054 24.886 260.071 24.7781 260.085C24.5167 260.119 24.2724 260.175 24.0451 260.251C23.8207 260.325 23.6388 260.437 23.4996 260.588C23.3633 260.736 23.2951 260.937 23.2951 261.193C23.2951 261.543 23.4244 261.807 23.6829 261.986C23.9442 262.162 24.2752 262.25 24.6758 262.25ZM32.2045 256.455V257.307H28.8125V256.455H32.2045ZM29.8011 254.886H30.8068V261.125C30.8068 261.409 30.848 261.622 30.9304 261.764C31.0156 261.903 31.1236 261.997 31.2543 262.045C31.3878 262.091 31.5284 262.114 31.6761 262.114C31.7869 262.114 31.8778 262.108 31.9489 262.097C32.0199 262.082 32.0767 262.071 32.1193 262.062L32.3239 262.966C32.2557 262.991 32.1605 263.017 32.0384 263.043C31.9162 263.071 31.7614 263.085 31.5739 263.085C31.2898 263.085 31.0114 263.024 30.7386 262.902C30.4688 262.78 30.2443 262.594 30.0653 262.344C29.8892 262.094 29.8011 261.778 29.8011 261.398V254.886ZM33.7173 263V256.455H34.723V263H33.7173ZM34.2287 255.364C34.0327 255.364 33.8636 255.297 33.7216 255.163C33.5824 255.03 33.5128 254.869 33.5128 254.682C33.5128 254.494 33.5824 254.334 33.7216 254.2C33.8636 254.067 34.0327 254 34.2287 254C34.4247 254 34.5923 254.067 34.7315 254.2C34.8736 254.334 34.9446 254.494 34.9446 254.682C34.9446 254.869 34.8736 255.03 34.7315 255.163C34.5923 255.297 34.4247 255.364 34.2287 255.364ZM39.2241 263.136C38.6332 263.136 38.1147 262.996 37.6687 262.714C37.2255 262.433 36.8789 262.04 36.6289 261.534C36.3817 261.028 36.2582 260.437 36.2582 259.761C36.2582 259.08 36.3817 258.484 36.6289 257.976C36.8789 257.467 37.2255 257.072 37.6687 256.791C38.1147 256.51 38.6332 256.369 39.2241 256.369C39.815 256.369 40.332 256.51 40.7752 256.791C41.2212 257.072 41.5678 257.467 41.815 257.976C42.065 258.484 42.19 259.08 42.19 259.761C42.19 260.437 42.065 261.028 41.815 261.534C41.5678 262.04 41.2212 262.433 40.7752 262.714C40.332 262.996 39.815 263.136 39.2241 263.136ZM39.2241 262.233C39.6729 262.233 40.0423 262.118 40.332 261.888C40.6218 261.658 40.8363 261.355 40.9755 260.98C41.1147 260.605 41.1843 260.199 41.1843 259.761C41.1843 259.324 41.1147 258.916 40.9755 258.538C40.8363 258.161 40.6218 257.855 40.332 257.622C40.0423 257.389 39.6729 257.273 39.2241 257.273C38.7752 257.273 38.4059 257.389 38.1161 257.622C37.8263 257.855 37.6119 258.161 37.4727 258.538C37.3335 258.916 37.2638 259.324 37.2638 259.761C37.2638 260.199 37.3335 260.605 37.4727 260.98C37.6119 261.355 37.8263 261.658 38.1161 261.888C38.4059 262.118 38.7752 262.233 39.2241 262.233ZM44.4581 263.068C44.2479 263.068 44.0675 262.993 43.9169 262.842C43.7663 262.692 43.6911 262.511 43.6911 262.301C43.6911 262.091 43.7663 261.911 43.9169 261.76C44.0675 261.609 44.2479 261.534 44.4581 261.534C44.6683 261.534 44.8487 261.609 44.9993 261.76C45.1499 261.911 45.2251 262.091 45.2251 262.301C45.2251 262.44 45.1896 262.568 45.1186 262.685C45.0504 262.801 44.9581 262.895 44.8416 262.966C44.728 263.034 44.6001 263.068 44.4581 263.068ZM44.4581 258.21C44.2479 258.21 44.0675 258.135 43.9169 257.984C43.7663 257.834 43.6911 257.653 43.6911 257.443C43.6911 257.233 43.7663 257.053 43.9169 256.902C44.0675 256.751 44.2479 256.676 44.4581 256.676C44.6683 256.676 44.8487 256.751 44.9993 256.902C45.1499 257.053 45.2251 257.233 45.2251 257.443C45.2251 257.582 45.1896 257.71 45.1186 257.827C45.0504 257.943 44.9581 258.037 44.8416 258.108C44.728 258.176 44.6001 258.21 44.4581 258.21ZM53.456 254.273V263H52.3991V255.381H52.348L50.2173 256.795V255.722L52.3991 254.273H53.456ZM59.0682 253.864L56.2557 264.312H55.3352L58.1477 253.864H59.0682ZM63.1921 263.119C62.6296 263.119 62.1282 263.023 61.6879 262.83C61.2504 262.636 60.9023 262.368 60.6438 262.024C60.3881 261.678 60.2489 261.276 60.2262 260.818H61.3001C61.3228 261.099 61.4194 261.342 61.5898 261.547C61.7603 261.749 61.9833 261.905 62.2589 262.016C62.5344 262.126 62.8398 262.182 63.1751 262.182C63.5501 262.182 63.8825 262.116 64.1722 261.986C64.462 261.855 64.6893 261.673 64.854 261.44C65.0188 261.207 65.1012 260.938 65.1012 260.631C65.1012 260.31 65.0217 260.027 64.8626 259.783C64.7035 259.536 64.4705 259.342 64.1637 259.203C63.8569 259.064 63.4819 258.994 63.0387 258.994H62.3398V258.057H63.0387C63.3853 258.057 63.6893 257.994 63.9506 257.869C64.2148 257.744 64.4208 257.568 64.5685 257.341C64.7191 257.114 64.7944 256.847 64.7944 256.54C64.7944 256.244 64.729 255.987 64.5984 255.768C64.4677 255.55 64.283 255.379 64.0444 255.257C63.8086 255.135 63.5302 255.074 63.2092 255.074C62.908 255.074 62.6239 255.129 62.3569 255.24C62.0927 255.348 61.8768 255.506 61.7092 255.713C61.5415 255.918 61.4506 256.165 61.4364 256.455H60.4137C60.4308 255.997 60.5685 255.597 60.8271 255.253C61.0856 254.906 61.4237 254.636 61.8413 254.443C62.2617 254.25 62.7234 254.153 63.2262 254.153C63.766 254.153 64.229 254.263 64.6154 254.482C65.0018 254.697 65.2987 254.983 65.506 255.338C65.7134 255.693 65.8171 256.077 65.8171 256.489C65.8171 256.98 65.6879 257.399 65.4293 257.746C65.1737 258.092 64.8256 258.332 64.3853 258.466V258.534C64.9364 258.625 65.3668 258.859 65.6765 259.237C65.9862 259.612 66.141 260.077 66.141 260.631C66.141 261.105 66.0117 261.531 65.7532 261.909C65.4975 262.284 65.1481 262.58 64.7049 262.795C64.2617 263.011 63.7575 263.119 63.1921 263.119Z" fill="white"/>
<path d="M15.0568 39V30.2727H18.108C18.7159 30.2727 19.2173 30.3778 19.6122 30.5881C20.0071 30.7955 20.3011 31.0753 20.4943 31.4276C20.6875 31.777 20.7841 32.1648 20.7841 32.5909C20.7841 32.9659 20.7173 33.2756 20.5838 33.5199C20.4531 33.7642 20.2798 33.9574 20.0639 34.0994C19.8509 34.2415 19.6193 34.3466 19.3693 34.4148V34.5C19.6364 34.517 19.9048 34.6108 20.1747 34.7812C20.4446 34.9517 20.6705 35.196 20.8523 35.5142C21.0341 35.8324 21.125 36.2216 21.125 36.6818C21.125 37.1193 21.0256 37.5128 20.8267 37.8622C20.6278 38.2116 20.3139 38.4886 19.8849 38.6932C19.456 38.8977 18.8977 39 18.2102 39H15.0568ZM16.1136 38.0625H18.2102C18.9006 38.0625 19.3906 37.929 19.6804 37.6619C19.973 37.392 20.1193 37.0653 20.1193 36.6818C20.1193 36.3864 20.044 36.1136 19.8935 35.8636C19.7429 35.6108 19.5284 35.4091 19.25 35.2585C18.9716 35.1051 18.642 35.0284 18.2614 35.0284H16.1136V38.0625ZM16.1136 34.108H18.0739C18.392 34.108 18.679 34.0455 18.9347 33.9205C19.1932 33.7955 19.3977 33.6193 19.5483 33.392C19.7017 33.1648 19.7784 32.8977 19.7784 32.5909C19.7784 32.2074 19.6449 31.8821 19.3778 31.6151C19.1108 31.3452 18.6875 31.2102 18.108 31.2102H16.1136V34.108ZM26.8501 36.3239V32.4545H27.8558V39H26.8501V37.892H26.782C26.6286 38.2244 26.3899 38.5071 26.0661 38.7401C25.7422 38.9702 25.3331 39.0852 24.8388 39.0852C24.4297 39.0852 24.0661 38.9957 23.7479 38.8168C23.4297 38.6349 23.1797 38.3622 22.9979 37.9986C22.8161 37.6321 22.7251 37.1705 22.7251 36.6136V32.4545H23.7308V36.5455C23.7308 37.0227 23.8643 37.4034 24.1314 37.6875C24.4013 37.9716 24.745 38.1136 25.1626 38.1136C25.4126 38.1136 25.6669 38.0497 25.9254 37.9219C26.1868 37.794 26.4055 37.598 26.5817 37.3338C26.7607 37.0696 26.8501 36.733 26.8501 36.3239ZM32.3569 39.1364C31.766 39.1364 31.2475 38.9957 30.8015 38.7145C30.3583 38.4332 30.0117 38.0398 29.7617 37.5341C29.5146 37.0284 29.391 36.4375 29.391 35.7614C29.391 35.0795 29.5146 34.4844 29.7617 33.9759C30.0117 33.4673 30.3583 33.0724 30.8015 32.7912C31.2475 32.5099 31.766 32.3693 32.3569 32.3693C32.9478 32.3693 33.4648 32.5099 33.908 32.7912C34.354 33.0724 34.7006 33.4673 34.9478 33.9759C35.1978 34.4844 35.3228 35.0795 35.3228 35.7614C35.3228 36.4375 35.1978 37.0284 34.9478 37.5341C34.7006 38.0398 34.354 38.4332 33.908 38.7145C33.4648 38.9957 32.9478 39.1364 32.3569 39.1364ZM32.3569 38.233C32.8058 38.233 33.1751 38.1179 33.4648 37.8878C33.7546 37.6577 33.9691 37.3551 34.1083 36.9801C34.2475 36.6051 34.3171 36.1989 34.3171 35.7614C34.3171 35.3239 34.2475 34.9162 34.1083 34.5384C33.9691 34.1605 33.7546 33.8551 33.4648 33.6222C33.1751 33.3892 32.8058 33.2727 32.3569 33.2727C31.908 33.2727 31.5387 33.3892 31.2489 33.6222C30.9592 33.8551 30.7447 34.1605 30.6055 34.5384C30.4663 34.9162 30.3967 35.3239 30.3967 35.7614C30.3967 36.1989 30.4663 36.6051 30.6055 36.9801C30.7447 37.3551 30.9592 37.6577 31.2489 37.8878C31.5387 38.1179 31.908 38.233 32.3569 38.233ZM37.2713 41.4545C37.1009 41.4545 36.9489 41.4403 36.8153 41.4119C36.6818 41.3864 36.5895 41.3608 36.5384 41.3352L36.794 40.4489C37.0384 40.5114 37.2543 40.5341 37.4418 40.517C37.6293 40.5 37.7955 40.4162 37.9403 40.2656C38.0881 40.1179 38.223 39.8778 38.3452 39.5455L38.5327 39.0341L36.1122 32.4545H37.2031L39.0099 37.6705H39.0781L40.8849 32.4545H41.9759L39.1974 39.9545C39.0724 40.2926 38.9176 40.5724 38.733 40.794C38.5483 41.0185 38.3338 41.1847 38.0895 41.2926C37.848 41.4006 37.5753 41.4545 37.2713 41.4545ZM45.0302 39.1534C44.6154 39.1534 44.239 39.0753 43.9009 38.919C43.5629 38.7599 43.2944 38.5312 43.0955 38.233C42.8967 37.9318 42.7972 37.5682 42.7972 37.142C42.7972 36.767 42.8711 36.4631 43.0188 36.2301C43.1665 35.9943 43.364 35.8097 43.6112 35.6761C43.8583 35.5426 44.131 35.4432 44.4293 35.3778C44.7305 35.3097 45.033 35.2557 45.337 35.2159C45.7347 35.1648 46.0572 35.1264 46.3043 35.1009C46.5543 35.0724 46.7362 35.0256 46.8498 34.9602C46.9663 34.8949 47.0245 34.7812 47.0245 34.6193V34.5852C47.0245 34.1648 46.9094 33.8381 46.6793 33.6051C46.4521 33.3722 46.1069 33.2557 45.6438 33.2557C45.1637 33.2557 44.7873 33.3608 44.5146 33.571C44.2418 33.7812 44.0501 34.0057 43.9393 34.2443L42.9847 33.9034C43.1552 33.5057 43.3825 33.196 43.6665 32.9744C43.9535 32.75 44.266 32.5937 44.604 32.5057C44.945 32.4148 45.2802 32.3693 45.6097 32.3693C45.82 32.3693 46.0614 32.3949 46.3342 32.446C46.6097 32.4943 46.8754 32.5952 47.131 32.7486C47.3896 32.902 47.604 33.1335 47.7745 33.4432C47.945 33.7528 48.0302 34.1676 48.0302 34.6875V39H47.0245V38.1136H46.9734C46.9052 38.2557 46.7915 38.4077 46.6325 38.5696C46.4734 38.7315 46.2617 38.8693 45.9975 38.983C45.7333 39.0966 45.4109 39.1534 45.0302 39.1534ZM45.1836 38.25C45.5813 38.25 45.9165 38.1719 46.1893 38.0156C46.4648 37.8594 46.6722 37.6577 46.8114 37.4105C46.9535 37.1634 47.0245 36.9034 47.0245 36.6307V35.7102C46.9819 35.7614 46.8881 35.8082 46.7433 35.8509C46.6012 35.8906 46.4364 35.9261 46.2489 35.9574C46.0643 35.9858 45.8839 36.0114 45.7077 36.0341C45.5344 36.054 45.3938 36.071 45.2859 36.0852C45.0245 36.1193 44.7802 36.1747 44.5529 36.2514C44.3285 36.3253 44.1467 36.4375 44.0075 36.5881C43.8711 36.7358 43.8029 36.9375 43.8029 37.1932C43.8029 37.5426 43.9322 37.8068 44.1907 37.9858C44.4521 38.1619 44.783 38.25 45.1836 38.25ZM50.8714 35.0625V39H49.8658V32.4545H50.8374V33.4773H50.9226C51.076 33.1449 51.3089 32.8778 51.6214 32.6761C51.9339 32.4716 52.3374 32.3693 52.8317 32.3693C53.2749 32.3693 53.6626 32.4602 53.995 32.642C54.3274 32.821 54.5859 33.0938 54.7706 33.4602C54.9553 33.8239 55.0476 34.2841 55.0476 34.8409V39H54.0419V34.9091C54.0419 34.3949 53.9084 33.9943 53.6413 33.7074C53.3743 33.4176 53.0078 33.2727 52.5419 33.2727C52.2209 33.2727 51.9339 33.3423 51.6811 33.4815C51.4311 33.6207 51.2337 33.8239 51.0888 34.0909C50.9439 34.358 50.8714 34.6818 50.8714 35.0625ZM59.5444 39.1364C58.9308 39.1364 58.4023 38.9915 57.9592 38.7017C57.516 38.4119 57.1751 38.0128 56.9364 37.5043C56.6978 36.9957 56.5785 36.4148 56.5785 35.7614C56.5785 35.0966 56.7006 34.5099 56.945 34.0014C57.1921 33.4901 57.5359 33.0909 57.9762 32.804C58.4194 32.5142 58.9364 32.3693 59.5273 32.3693C59.9876 32.3693 60.4023 32.4545 60.7717 32.625C61.141 32.7955 61.4435 33.0341 61.6793 33.3409C61.9151 33.6477 62.0614 34.0057 62.1183 34.4148H61.1126C61.0359 34.1165 60.8654 33.8523 60.6012 33.6222C60.3398 33.3892 59.9876 33.2727 59.5444 33.2727C59.1523 33.2727 58.8086 33.375 58.5131 33.5795C58.2205 33.7812 57.9918 34.0668 57.8271 34.4361C57.6651 34.8026 57.5842 35.233 57.5842 35.7273C57.5842 36.233 57.6637 36.6733 57.8228 37.0483C57.9847 37.4233 58.212 37.7145 58.5046 37.9219C58.8001 38.1293 59.1467 38.233 59.5444 38.233C59.8058 38.233 60.043 38.1875 60.256 38.0966C60.4691 38.0057 60.6495 37.875 60.7972 37.7045C60.945 37.5341 61.0501 37.3295 61.1126 37.0909H62.1183C62.0614 37.4773 61.9208 37.8253 61.6964 38.1349C61.4748 38.4418 61.1808 38.6861 60.8143 38.8679C60.4506 39.0469 60.0273 39.1364 59.5444 39.1364ZM64.2362 41.4545C64.0657 41.4545 63.9137 41.4403 63.7802 41.4119C63.6467 41.3864 63.5543 41.3608 63.5032 41.3352L63.7589 40.4489C64.0032 40.5114 64.2191 40.5341 64.4066 40.517C64.5941 40.5 64.7603 40.4162 64.9052 40.2656C65.0529 40.1179 65.1879 39.8778 65.31 39.5455L65.4975 39.0341L63.0771 32.4545H64.168L65.9748 37.6705H66.043L67.8498 32.4545H68.9407L66.1623 39.9545C66.0373 40.2926 65.8825 40.5724 65.6978 40.794C65.5131 41.0185 65.2987 41.1847 65.0543 41.2926C64.8129 41.4006 64.5401 41.4545 64.2362 41.4545ZM71.0011 39.0682C70.7908 39.0682 70.6104 38.9929 70.4599 38.8423C70.3093 38.6918 70.234 38.5114 70.234 38.3011C70.234 38.0909 70.3093 37.9105 70.4599 37.7599C70.6104 37.6094 70.7908 37.5341 71.0011 37.5341C71.2113 37.5341 71.3917 37.6094 71.5423 37.7599C71.6928 37.9105 71.7681 38.0909 71.7681 38.3011C71.7681 38.4403 71.7326 38.5682 71.6616 38.6847C71.5934 38.8011 71.5011 38.8949 71.3846 38.9659C71.271 39.0341 71.1431 39.0682 71.0011 39.0682ZM71.0011 34.2102C70.7908 34.2102 70.6104 34.1349 70.4599 33.9844C70.3093 33.8338 70.234 33.6534 70.234 33.4432C70.234 33.233 70.3093 33.0526 70.4599 32.902C70.6104 32.7514 70.7908 32.6761 71.0011 32.6761C71.2113 32.6761 71.3917 32.7514 71.5423 32.902C71.6928 33.0526 71.7681 33.233 71.7681 33.4432C71.7681 33.5824 71.7326 33.7102 71.6616 33.8267C71.5934 33.9432 71.5011 34.0369 71.3846 34.108C71.271 34.1761 71.1431 34.2102 71.0011 34.2102ZM17.9716 45.2727V54H16.9148V46.3807H16.8636L14.733 47.7955V46.7216L16.9148 45.2727H17.9716ZM23.5838 44.8636L20.7713 55.3125H19.8509L22.6634 44.8636H23.5838ZM27.7077 54.1193C27.1452 54.1193 26.6438 54.0227 26.2035 53.8295C25.766 53.6364 25.418 53.3679 25.1594 53.0241C24.9038 52.6776 24.7646 52.2756 24.7418 51.8182H25.8157C25.8384 52.0994 25.935 52.3423 26.1055 52.5469C26.2759 52.7486 26.4989 52.9048 26.7745 53.0156C27.0501 53.1264 27.3555 53.1818 27.6907 53.1818C28.0657 53.1818 28.3981 53.1165 28.6879 52.9858C28.9776 52.8551 29.2049 52.6733 29.3697 52.4403C29.5344 52.2074 29.6168 51.9375 29.6168 51.6307C29.6168 51.3097 29.5373 51.027 29.3782 50.7827C29.2191 50.5355 28.9862 50.3423 28.6793 50.2031C28.3725 50.0639 27.9975 49.9943 27.5543 49.9943H26.8555V49.0568H27.5543C27.9009 49.0568 28.2049 48.9943 28.4663 48.8693C28.7305 48.7443 28.9364 48.5682 29.0842 48.3409C29.2347 48.1136 29.31 47.8466 29.31 47.5398C29.31 47.2443 29.2447 46.9872 29.114 46.7685C28.9833 46.5497 28.7987 46.3793 28.56 46.2571C28.3242 46.1349 28.0458 46.0739 27.7248 46.0739C27.4237 46.0739 27.1396 46.1293 26.8725 46.2401C26.6083 46.348 26.3924 46.5057 26.2248 46.7131C26.0572 46.9176 25.9663 47.1648 25.9521 47.4545H24.9293C24.9464 46.9972 25.0842 46.5966 25.3427 46.2528C25.6012 45.9062 25.9393 45.6364 26.3569 45.4432C26.7773 45.25 27.239 45.1534 27.7418 45.1534C28.2816 45.1534 28.7447 45.2628 29.131 45.4815C29.5174 45.6974 29.8143 45.983 30.0217 46.3381C30.229 46.6932 30.3327 47.0767 30.3327 47.4886C30.3327 47.9801 30.2035 48.3991 29.945 48.7457C29.6893 49.0923 29.3413 49.3324 28.9009 49.4659V49.5341C29.4521 49.625 29.8825 49.8594 30.1921 50.2372C30.5018 50.6122 30.6566 51.0767 30.6566 51.6307C30.6566 52.1051 30.5273 52.5312 30.2688 52.9091C30.0131 53.2841 29.6637 53.5795 29.2205 53.7955C28.7773 54.0114 28.2731 54.1193 27.7077 54.1193ZM37.462 50.1818L37.5302 48.3068L35.945 49.3125L35.5359 48.5966L37.2063 47.7273L35.5359 46.858L35.945 46.142L37.5302 47.1477L37.462 45.2727H38.2802L38.212 47.1477L39.7972 46.142L40.2063 46.858L38.5359 47.7273L40.2063 48.5966L39.7972 49.3125L38.212 48.3068L38.2802 50.1818H37.462ZM48.9165 49.1676V50.1051H45.0984V49.1676H48.9165ZM56.7884 48C56.6946 47.7131 56.571 47.456 56.4176 47.2287C56.267 46.9986 56.0866 46.8026 55.8764 46.6406C55.669 46.4787 55.4332 46.3551 55.169 46.2699C54.9048 46.1847 54.6151 46.142 54.2997 46.142C53.7827 46.142 53.3125 46.2756 52.8892 46.5426C52.4659 46.8097 52.1293 47.2031 51.8793 47.723C51.6293 48.2429 51.5043 48.8807 51.5043 49.6364C51.5043 50.392 51.6307 51.0298 51.8835 51.5497C52.1364 52.0696 52.4787 52.4631 52.9105 52.7301C53.3423 52.9972 53.8281 53.1307 54.3679 53.1307C54.8679 53.1307 55.3082 53.0241 55.6889 52.8111C56.0724 52.5952 56.3707 52.2912 56.5838 51.8991C56.7997 51.5043 56.9077 51.0398 56.9077 50.5057L57.2315 50.5739H54.6065V49.6364H57.9304V50.5739C57.9304 51.2926 57.777 51.9176 57.4702 52.4489C57.1662 52.9801 56.7457 53.392 56.2088 53.6847C55.6747 53.9744 55.0611 54.1193 54.3679 54.1193C53.5952 54.1193 52.9162 53.9375 52.331 53.5739C51.7486 53.2102 51.294 52.6932 50.9673 52.0227C50.6435 51.3523 50.4815 50.5568 50.4815 49.6364C50.4815 48.946 50.5739 48.3253 50.7585 47.7741C50.946 47.2202 51.2102 46.7486 51.5511 46.3594C51.892 45.9702 52.2955 45.6719 52.7614 45.4645C53.2273 45.2571 53.7401 45.1534 54.2997 45.1534C54.7599 45.1534 55.1889 45.223 55.5866 45.3622C55.9872 45.4986 56.3438 45.6932 56.6562 45.946C56.9716 46.196 57.2344 46.4957 57.4446 46.8452C57.6548 47.1918 57.7997 47.5767 57.8793 48H56.7884ZM59.604 54V47.4545H60.5756V48.4432H60.6438C60.7631 48.1193 60.979 47.8565 61.2915 47.6548C61.604 47.4531 61.9563 47.3523 62.3484 47.3523C62.4222 47.3523 62.5146 47.3537 62.6254 47.3565C62.7362 47.3594 62.82 47.3636 62.8768 47.3693V48.392C62.8427 48.3835 62.7646 48.3707 62.6424 48.3537C62.5231 48.3338 62.3967 48.3239 62.2631 48.3239C61.945 48.3239 61.6609 48.3906 61.4109 48.5241C61.1637 48.6548 60.9677 48.8366 60.8228 49.0696C60.6808 49.2997 60.6097 49.5625 60.6097 49.858V54H59.604ZM65.995 54.1534C65.5803 54.1534 65.2038 54.0753 64.8658 53.919C64.5277 53.7599 64.2592 53.5312 64.0604 53.233C63.8615 52.9318 63.7621 52.5682 63.7621 52.142C63.7621 51.767 63.8359 51.4631 63.9837 51.2301C64.1314 50.9943 64.3288 50.8097 64.576 50.6761C64.8232 50.5426 65.0959 50.4432 65.3942 50.3778C65.6953 50.3097 65.9979 50.2557 66.3018 50.2159C66.6996 50.1648 67.022 50.1264 67.2692 50.1009C67.5192 50.0724 67.701 50.0256 67.8146 49.9602C67.9311 49.8949 67.9893 49.7812 67.9893 49.6193V49.5852C67.9893 49.1648 67.8743 48.8381 67.6442 48.6051C67.4169 48.3722 67.0717 48.2557 66.6087 48.2557C66.1286 48.2557 65.7521 48.3608 65.4794 48.571C65.2067 48.7812 65.0149 49.0057 64.9041 49.2443L63.9496 48.9034C64.12 48.5057 64.3473 48.196 64.6314 47.9744C64.9183 47.75 65.2308 47.5937 65.5689 47.5057C65.9098 47.4148 66.245 47.3693 66.5746 47.3693C66.7848 47.3693 67.0263 47.3949 67.299 47.446C67.5746 47.4943 67.8402 47.5952 68.0959 47.7486C68.3544 47.902 68.5689 48.1335 68.7393 48.4432C68.9098 48.7528 68.995 49.1676 68.995 49.6875V54H67.9893V53.1136H67.9382C67.87 53.2557 67.7564 53.4077 67.5973 53.5696C67.4382 53.7315 67.2266 53.8693 66.9624 53.983C66.6982 54.0966 66.3757 54.1534 65.995 54.1534ZM66.1484 53.25C66.5462 53.25 66.8814 53.1719 67.1541 53.0156C67.4297 52.8594 67.6371 52.6577 67.7763 52.4105C67.9183 52.1634 67.9893 51.9034 67.9893 51.6307V50.7102C67.9467 50.7614 67.853 50.8082 67.7081 50.8509C67.5661 50.8906 67.4013 50.9261 67.2138 50.9574C67.0291 50.9858 66.8487 51.0114 66.6726 51.0341C66.4993 51.054 66.3587 51.071 66.2507 51.0852C65.9893 51.1193 65.745 51.1747 65.5178 51.2514C65.2933 51.3253 65.1115 51.4375 64.9723 51.5881C64.8359 51.7358 64.7678 51.9375 64.7678 52.1932C64.7678 52.5426 64.897 52.8068 65.1555 52.9858C65.4169 53.1619 65.7479 53.25 66.1484 53.25ZM75.9485 47.4545L73.5281 54H72.5053L70.0849 47.4545H71.1758L72.9826 52.6705H73.0508L74.8576 47.4545H75.9485ZM77.2759 54V47.4545H78.2816V54H77.2759ZM77.7873 46.3636C77.5913 46.3636 77.4222 46.2969 77.2802 46.1634C77.141 46.0298 77.0714 45.8693 77.0714 45.6818C77.0714 45.4943 77.141 45.3338 77.2802 45.2003C77.4222 45.0668 77.5913 45 77.7873 45C77.9833 45 78.1509 45.0668 78.2901 45.2003C78.4322 45.3338 78.5032 45.4943 78.5032 45.6818C78.5032 45.8693 78.4322 46.0298 78.2901 46.1634C78.1509 46.2969 77.9833 46.3636 77.7873 46.3636ZM82.9702 47.4545V48.3068H79.5781V47.4545H82.9702ZM80.5668 45.8864H81.5724V52.125C81.5724 52.4091 81.6136 52.6222 81.696 52.7642C81.7813 52.9034 81.8892 52.9972 82.0199 53.0455C82.1534 53.0909 82.294 53.1136 82.4418 53.1136C82.5526 53.1136 82.6435 53.108 82.7145 53.0966C82.7855 53.0824 82.8423 53.071 82.8849 53.0625L83.0895 53.9659C83.0213 53.9915 82.9261 54.017 82.804 54.0426C82.6818 54.071 82.527 54.0852 82.3395 54.0852C82.0554 54.0852 81.777 54.0241 81.5043 53.902C81.2344 53.7798 81.0099 53.5938 80.831 53.3438C80.6548 53.0938 80.5668 52.7784 80.5668 52.3977V45.8864ZM85.1307 56.4545C84.9602 56.4545 84.8082 56.4403 84.6747 56.4119C84.5412 56.3864 84.4489 56.3608 84.3977 56.3352L84.6534 55.4489C84.8977 55.5114 85.1136 55.5341 85.3011 55.517C85.4886 55.5 85.6548 55.4162 85.7997 55.2656C85.9474 55.1179 86.0824 54.8778 86.2045 54.5455L86.392 54.0341L83.9716 47.4545H85.0625L86.8693 52.6705H86.9375L88.7443 47.4545H89.8352L87.0568 54.9545C86.9318 55.2926 86.777 55.5724 86.5923 55.794C86.4077 56.0185 86.1932 56.1847 85.9489 56.2926C85.7074 56.4006 85.4347 56.4545 85.1307 56.4545Z" fill="black"/>
<path d="M214.057 30V21.2727H217.006C217.69 21.2727 218.25 21.3963 218.685 21.6435C219.122 21.8878 219.446 22.2188 219.656 22.6364C219.866 23.054 219.972 23.5199 219.972 24.0341C219.972 24.5483 219.866 25.0156 219.656 25.4361C219.449 25.8565 219.128 26.1918 218.693 26.4418C218.259 26.6889 217.702 26.8125 217.023 26.8125H214.909V25.875H216.989C217.457 25.875 217.834 25.794 218.118 25.6321C218.402 25.4702 218.608 25.2514 218.736 24.9759C218.866 24.6974 218.932 24.3835 218.932 24.0341C218.932 23.6847 218.866 23.3722 218.736 23.0966C218.608 22.821 218.401 22.6051 218.114 22.4489C217.827 22.2898 217.446 22.2102 216.972 22.2102H215.114V30H214.057ZM221.538 30V23.4545H222.509V24.4432H222.577C222.697 24.1193 222.913 23.8565 223.225 23.6548C223.538 23.4531 223.89 23.3523 224.282 23.3523C224.356 23.3523 224.448 23.3537 224.559 23.3565C224.67 23.3594 224.754 23.3636 224.81 23.3693V24.392C224.776 24.3835 224.698 24.3707 224.576 24.3537C224.457 24.3338 224.33 24.3239 224.197 24.3239C223.879 24.3239 223.594 24.3906 223.344 24.5241C223.097 24.6548 222.901 24.8366 222.756 25.0696C222.614 25.2997 222.543 25.5625 222.543 25.858V30H221.538ZM228.462 30.1364C227.871 30.1364 227.353 29.9957 226.907 29.7145C226.464 29.4332 226.117 29.0398 225.867 28.5341C225.62 28.0284 225.496 27.4375 225.496 26.7614C225.496 26.0795 225.62 25.4844 225.867 24.9759C226.117 24.4673 226.464 24.0724 226.907 23.7912C227.353 23.5099 227.871 23.3693 228.462 23.3693C229.053 23.3693 229.57 23.5099 230.013 23.7912C230.46 24.0724 230.806 24.4673 231.053 24.9759C231.303 25.4844 231.428 26.0795 231.428 26.7614C231.428 27.4375 231.303 28.0284 231.053 28.5341C230.806 29.0398 230.46 29.4332 230.013 29.7145C229.57 29.9957 229.053 30.1364 228.462 30.1364ZM228.462 29.233C228.911 29.233 229.281 29.1179 229.57 28.8878C229.86 28.6577 230.075 28.3551 230.214 27.9801C230.353 27.6051 230.423 27.1989 230.423 26.7614C230.423 26.3239 230.353 25.9162 230.214 25.5384C230.075 25.1605 229.86 24.8551 229.57 24.6222C229.281 24.3892 228.911 24.2727 228.462 24.2727C228.013 24.2727 227.644 24.3892 227.354 24.6222C227.065 24.8551 226.85 25.1605 226.711 25.5384C226.572 25.9162 226.502 26.3239 226.502 26.7614C226.502 27.1989 226.572 27.6051 226.711 27.9801C226.85 28.3551 227.065 28.6577 227.354 28.8878C227.644 29.1179 228.013 29.233 228.462 29.233ZM233.1 30V21.2727H234.105V24.4943H234.191C234.265 24.3807 234.367 24.2358 234.498 24.0597C234.631 23.8807 234.821 23.7216 235.069 23.5824C235.319 23.4403 235.657 23.3693 236.083 23.3693C236.634 23.3693 237.12 23.5071 237.54 23.7827C237.961 24.0582 238.289 24.4489 238.525 24.9545C238.76 25.4602 238.878 26.0568 238.878 26.7443C238.878 27.4375 238.76 28.0384 238.525 28.5469C238.289 29.0526 237.962 29.4446 237.544 29.723C237.127 29.9986 236.645 30.1364 236.1 30.1364C235.679 30.1364 235.343 30.0668 235.09 29.9276C234.837 29.7855 234.642 29.625 234.506 29.446C234.37 29.2642 234.265 29.1136 234.191 28.9943H234.071V30H233.1ZM234.088 26.7273C234.088 27.2216 234.161 27.6577 234.306 28.0355C234.451 28.4105 234.662 28.7045 234.941 28.9176C235.219 29.1278 235.56 29.233 235.963 29.233C236.384 29.233 236.735 29.1222 237.016 28.9006C237.3 28.6761 237.513 28.375 237.655 27.9972C237.8 27.6165 237.873 27.1932 237.873 26.7273C237.873 26.267 237.801 25.8523 237.659 25.483C237.52 25.1108 237.309 24.8168 237.025 24.6009C236.743 24.3821 236.39 24.2727 235.963 24.2727C235.554 24.2727 235.211 24.3764 234.932 24.5838C234.654 24.7884 234.444 25.0753 234.301 25.4446C234.159 25.8111 234.088 26.2386 234.088 26.7273ZM243.161 30.1364C242.53 30.1364 241.986 29.9972 241.529 29.7188C241.074 29.4375 240.723 29.0455 240.476 28.5426C240.232 28.0369 240.11 27.4489 240.11 26.7784C240.11 26.108 240.232 25.517 240.476 25.0057C240.723 24.4915 241.067 24.0909 241.507 23.804C241.951 23.5142 242.468 23.3693 243.059 23.3693C243.4 23.3693 243.736 23.4261 244.069 23.5398C244.401 23.6534 244.703 23.8381 244.976 24.0938C245.249 24.3466 245.466 24.6818 245.628 25.0994C245.79 25.517 245.871 26.0312 245.871 26.642V27.0682H240.826V26.1989H244.848C244.848 25.8295 244.775 25.5 244.627 25.2102C244.482 24.9205 244.275 24.6918 244.005 24.5241C243.738 24.3565 243.422 24.2727 243.059 24.2727C242.658 24.2727 242.311 24.3722 242.019 24.571C241.729 24.767 241.506 25.0227 241.35 25.3381C241.194 25.6534 241.115 25.9915 241.115 26.3523V26.9318C241.115 27.4261 241.201 27.8452 241.371 28.1889C241.544 28.5298 241.784 28.7898 242.091 28.9688C242.398 29.1449 242.755 29.233 243.161 29.233C243.425 29.233 243.664 29.196 243.877 29.1222C244.093 29.0455 244.279 28.9318 244.435 28.7812C244.591 28.6278 244.712 28.4375 244.797 28.2102L245.769 28.483C245.667 28.8125 245.495 29.1023 245.253 29.3523C245.012 29.5994 244.713 29.7926 244.358 29.9318C244.003 30.0682 243.604 30.1364 243.161 30.1364ZM214.057 45V36.2727H215.114V44.0625H219.17V45H214.057ZM223.33 45.1364C222.739 45.1364 222.22 44.9957 221.774 44.7145C221.331 44.4332 220.984 44.0398 220.734 43.5341C220.487 43.0284 220.364 42.4375 220.364 41.7614C220.364 41.0795 220.487 40.4844 220.734 39.9759C220.984 39.4673 221.331 39.0724 221.774 38.7912C222.22 38.5099 222.739 38.3693 223.33 38.3693C223.92 38.3693 224.438 38.5099 224.881 38.7912C225.327 39.0724 225.673 39.4673 225.92 39.9759C226.17 40.4844 226.295 41.0795 226.295 41.7614C226.295 42.4375 226.17 43.0284 225.92 43.5341C225.673 44.0398 225.327 44.4332 224.881 44.7145C224.438 44.9957 223.92 45.1364 223.33 45.1364ZM223.33 44.233C223.778 44.233 224.148 44.1179 224.438 43.8878C224.727 43.6577 224.942 43.3551 225.081 42.9801C225.22 42.6051 225.29 42.1989 225.29 41.7614C225.29 41.3239 225.22 40.9162 225.081 40.5384C224.942 40.1605 224.727 39.8551 224.438 39.6222C224.148 39.3892 223.778 39.2727 223.33 39.2727C222.881 39.2727 222.511 39.3892 222.222 39.6222C221.932 39.8551 221.717 40.1605 221.578 40.5384C221.439 40.9162 221.369 41.3239 221.369 41.7614C221.369 42.1989 221.439 42.6051 221.578 42.9801C221.717 43.3551 221.932 43.6577 222.222 43.8878C222.511 44.1179 222.881 44.233 223.33 44.233ZM230.49 45.1364C229.876 45.1364 229.348 44.9915 228.904 44.7017C228.461 44.4119 228.12 44.0128 227.882 43.5043C227.643 42.9957 227.524 42.4148 227.524 41.7614C227.524 41.0966 227.646 40.5099 227.89 40.0014C228.137 39.4901 228.481 39.0909 228.922 38.804C229.365 38.5142 229.882 38.3693 230.473 38.3693C230.933 38.3693 231.348 38.4545 231.717 38.625C232.086 38.7955 232.389 39.0341 232.625 39.3409C232.86 39.6477 233.007 40.0057 233.064 40.4148H232.058C231.981 40.1165 231.811 39.8523 231.547 39.6222C231.285 39.3892 230.933 39.2727 230.49 39.2727C230.098 39.2727 229.754 39.375 229.458 39.5795C229.166 39.7812 228.937 40.0668 228.772 40.4361C228.61 40.8026 228.529 41.233 228.529 41.7273C228.529 42.233 228.609 42.6733 228.768 43.0483C228.93 43.4233 229.157 43.7145 229.45 43.9219C229.745 44.1293 230.092 44.233 230.49 44.233C230.751 44.233 230.988 44.1875 231.201 44.0966C231.414 44.0057 231.595 43.875 231.743 43.7045C231.89 43.5341 231.995 43.3295 232.058 43.0909H233.064C233.007 43.4773 232.866 43.8253 232.642 44.1349C232.42 44.4418 232.126 44.6861 231.76 44.8679C231.396 45.0469 230.973 45.1364 230.49 45.1364ZM236.46 45.1534C236.045 45.1534 235.669 45.0753 235.331 44.919C234.993 44.7599 234.724 44.5312 234.525 44.233C234.326 43.9318 234.227 43.5682 234.227 43.142C234.227 42.767 234.301 42.4631 234.449 42.2301C234.596 41.9943 234.794 41.8097 235.041 41.6761C235.288 41.5426 235.561 41.4432 235.859 41.3778C236.16 41.3097 236.463 41.2557 236.767 41.2159C237.164 41.1648 237.487 41.1264 237.734 41.1009C237.984 41.0724 238.166 41.0256 238.279 40.9602C238.396 40.8949 238.454 40.7812 238.454 40.6193V40.5852C238.454 40.1648 238.339 39.8381 238.109 39.6051C237.882 39.3722 237.537 39.2557 237.074 39.2557C236.593 39.2557 236.217 39.3608 235.944 39.571C235.672 39.7812 235.48 40.0057 235.369 40.2443L234.414 39.9034C234.585 39.5057 234.812 39.196 235.096 38.9744C235.383 38.75 235.696 38.5937 236.034 38.5057C236.375 38.4148 236.71 38.3693 237.039 38.3693C237.25 38.3693 237.491 38.3949 237.764 38.446C238.039 38.4943 238.305 38.5952 238.561 38.7486C238.819 38.902 239.034 39.1335 239.204 39.4432C239.375 39.7528 239.46 40.1676 239.46 40.6875V45H238.454V44.1136H238.403C238.335 44.2557 238.221 44.4077 238.062 44.5696C237.903 44.7315 237.691 44.8693 237.427 44.983C237.163 45.0966 236.841 45.1534 236.46 45.1534ZM236.613 44.25C237.011 44.25 237.346 44.1719 237.619 44.0156C237.895 43.8594 238.102 43.6577 238.241 43.4105C238.383 43.1634 238.454 42.9034 238.454 42.6307V41.7102C238.412 41.7614 238.318 41.8082 238.173 41.8509C238.031 41.8906 237.866 41.9261 237.679 41.9574C237.494 41.9858 237.314 42.0114 237.137 42.0341C236.964 42.054 236.824 42.071 236.716 42.0852C236.454 42.1193 236.21 42.1747 235.983 42.2514C235.758 42.3253 235.576 42.4375 235.437 42.5881C235.301 42.7358 235.233 42.9375 235.233 43.1932C235.233 43.5426 235.362 43.8068 235.62 43.9858C235.882 44.1619 236.213 44.25 236.613 44.25ZM244.142 38.4545V39.3068H240.75V38.4545H244.142ZM241.739 36.8864H242.744V43.125C242.744 43.4091 242.786 43.6222 242.868 43.7642C242.953 43.9034 243.061 43.9972 243.192 44.0455C243.325 44.0909 243.466 44.1136 243.614 44.1136C243.724 44.1136 243.815 44.108 243.886 44.0966C243.957 44.0824 244.014 44.071 244.057 44.0625L244.261 44.9659C244.193 44.9915 244.098 45.017 243.976 45.0426C243.854 45.071 243.699 45.0852 243.511 45.0852C243.227 45.0852 242.949 45.0241 242.676 44.902C242.406 44.7798 242.182 44.5938 242.003 44.3438C241.827 44.0938 241.739 43.7784 241.739 43.3977V36.8864ZM245.655 45V38.4545H246.661V45H245.655ZM246.166 37.3636C245.97 37.3636 245.801 37.2969 245.659 37.1634C245.52 37.0298 245.45 36.8693 245.45 36.6818C245.45 36.4943 245.52 36.3338 245.659 36.2003C245.801 36.0668 245.97 36 246.166 36C246.362 36 246.53 36.0668 246.669 36.2003C246.811 36.3338 246.882 36.4943 246.882 36.6818C246.882 36.8693 246.811 37.0298 246.669 37.1634C246.53 37.2969 246.362 37.3636 246.166 37.3636ZM251.162 45.1364C250.571 45.1364 250.052 44.9957 249.606 44.7145C249.163 44.4332 248.816 44.0398 248.566 43.5341C248.319 43.0284 248.196 42.4375 248.196 41.7614C248.196 41.0795 248.319 40.4844 248.566 39.9759C248.816 39.4673 249.163 39.0724 249.606 38.7912C250.052 38.5099 250.571 38.3693 251.162 38.3693C251.752 38.3693 252.27 38.5099 252.713 38.7912C253.159 39.0724 253.505 39.4673 253.752 39.9759C254.002 40.4844 254.127 41.0795 254.127 41.7614C254.127 42.4375 254.002 43.0284 253.752 43.5341C253.505 44.0398 253.159 44.4332 252.713 44.7145C252.27 44.9957 251.752 45.1364 251.162 45.1364ZM251.162 44.233C251.61 44.233 251.98 44.1179 252.27 43.8878C252.559 43.6577 252.774 43.3551 252.913 42.9801C253.052 42.6051 253.122 42.1989 253.122 41.7614C253.122 41.3239 253.052 40.9162 252.913 40.5384C252.774 40.1605 252.559 39.8551 252.27 39.6222C251.98 39.3892 251.61 39.2727 251.162 39.2727C250.713 39.2727 250.343 39.3892 250.054 39.6222C249.764 39.8551 249.549 40.1605 249.41 40.5384C249.271 40.9162 249.201 41.3239 249.201 41.7614C249.201 42.1989 249.271 42.6051 249.41 42.9801C249.549 43.3551 249.764 43.6577 250.054 43.8878C250.343 44.1179 250.713 44.233 251.162 44.233ZM256.668 41.0625V45H255.663V38.4545H256.634V39.4773H256.719C256.873 39.1449 257.106 38.8778 257.418 38.6761C257.731 38.4716 258.134 38.3693 258.629 38.3693C259.072 38.3693 259.46 38.4602 259.792 38.642C260.124 38.821 260.383 39.0938 260.567 39.4602C260.752 39.8239 260.844 40.2841 260.844 40.8409V45H259.839V40.9091C259.839 40.3949 259.705 39.9943 259.438 39.7074C259.171 39.4176 258.805 39.2727 258.339 39.2727C258.018 39.2727 257.731 39.3423 257.478 39.4815C257.228 39.6207 257.031 39.8239 256.886 40.0909C256.741 40.358 256.668 40.6818 256.668 41.0625ZM267.319 39.9205L266.415 40.1761C266.358 40.0256 266.275 39.8793 266.164 39.7372C266.056 39.5923 265.908 39.473 265.721 39.3793C265.533 39.2855 265.293 39.2386 265 39.2386C264.6 39.2386 264.266 39.331 263.999 39.5156C263.735 39.6974 263.603 39.929 263.603 40.2102C263.603 40.4602 263.694 40.6577 263.875 40.8026C264.057 40.9474 264.341 41.0682 264.728 41.1648L265.699 41.4034C266.284 41.5455 266.721 41.7628 267.007 42.0554C267.294 42.3452 267.438 42.7187 267.438 43.1761C267.438 43.5511 267.33 43.8864 267.114 44.1818C266.901 44.4773 266.603 44.7102 266.219 44.8807C265.836 45.0511 265.39 45.1364 264.881 45.1364C264.213 45.1364 263.661 44.9915 263.223 44.7017C262.786 44.4119 262.509 43.9886 262.392 43.4318L263.347 43.1932C263.438 43.5455 263.61 43.8097 263.863 43.9858C264.118 44.1619 264.452 44.25 264.864 44.25C265.333 44.25 265.705 44.1506 265.98 43.9517C266.259 43.75 266.398 43.5085 266.398 43.2273C266.398 43 266.319 42.8097 266.159 42.6562C266 42.5 265.756 42.3835 265.426 42.3068L264.336 42.0511C263.736 41.9091 263.296 41.6889 263.015 41.3906C262.736 41.0895 262.597 40.7131 262.597 40.2614C262.597 39.892 262.701 39.5653 262.908 39.2812C263.118 38.9972 263.404 38.7741 263.765 38.6122C264.128 38.4503 264.54 38.3693 265 38.3693C265.648 38.3693 266.157 38.5114 266.526 38.7955C266.898 39.0795 267.162 39.4545 267.319 39.9205Z" fill="black"/>
<path d="M170.394 139.919C169.886 140.137 169.298 139.902 169.081 139.394L165.536 131.122C165.318 130.614 165.553 130.026 166.061 129.809C166.568 129.591 167.156 129.826 167.374 130.334L170.525 137.687L177.878 134.536C178.386 134.318 178.974 134.553 179.191 135.061C179.409 135.568 179.174 136.156 178.666 136.374L170.394 139.919ZM210 39L210.928 39.3714L170.928 139.371L170 139L169.072 138.629L209.072 38.6286L210 39Z" fill="black" fill-opacity="0.5"/>
<path d="M169.739 62.9655C169.206 62.8216 168.891 62.2727 169.035 61.7395L171.379 53.0503C171.523 52.5171 172.072 52.2014 172.605 52.3453C173.138 52.4892 173.454 53.0381 173.31 53.5713L171.226 61.2951L178.95 63.3792C179.483 63.5231 179.799 64.072 179.655 64.6052C179.511 65.1384 178.962 65.4541 178.429 65.3102L169.739 62.9655ZM210 39L210.498 39.8669L170.498 62.8669L170 62L169.502 61.1331L209.502 38.1331L210 39Z" fill="black" fill-opacity="0.5"/>
<path d="M46.7028 64.2886C46.31 63.9005 45.6768 63.9043 45.2886 64.2972L38.9631 70.6993C38.575 71.0922 38.5788 71.7254 38.9717 72.1135C39.3645 72.5017 39.9977 72.4979 40.3858 72.105L46.0085 66.4142L51.6993 72.0369C52.0922 72.425 52.7254 72.4212 53.1135 72.0283C53.5017 71.6355 53.4979 71.0023 53.105 70.6142L46.7028 64.2886ZM47 231L48 230.994L47 64.994L46 65L45 65.006L46 231.006L47 231Z" fill="black" fill-opacity="0.5"/>
<path d="M165.516 220.857C165.042 221.142 164.428 220.989 164.143 220.516L159.503 212.804C159.218 212.331 159.371 211.717 159.844 211.432C160.317 211.147 160.932 211.3 161.216 211.773L165.341 218.628L172.196 214.503C172.669 214.218 173.283 214.371 173.568 214.844C173.853 215.317 173.7 215.932 173.227 216.216L165.516 220.857ZM210 39L210.97 39.2413L165.97 220.241L165 220L164.03 219.759L209.03 38.7587L210 39Z" fill="black" fill-opacity="0.5"/>
<path d="M181.388 6.7195L90.9232 37.0494L109.797 57.3957L178.051 34.5121L181.388 6.7195Z" fill="white"/>
<ellipse cx="138.355" cy="32.0593" rx="32.7625" ry="19.5426" transform="rotate(-18.5346 138.355 32.0593)" fill="white"/>
</g>
<defs>
<clipPath id="clip0_2201_499">
<rect width="300" height="312" fill="white"/>
</clipPath>
</defs>
</svg>
